/* XPM */
static char * info_xpm[] = {
"32 32 277 2",
"  	c None",
". 	c #235DB9",
"+ 	c #235AB8",
"@ 	c #2158B6",
"# 	c #2155B4",
"$ 	c #1F52B1",
"% 	c #1E4FAF",
"& 	c #1D4CAC",
"* 	c #1C48AA",
"= 	c #1A45A7",
"- 	c #1942A5",
"; 	c #183EA2",
"> 	c #173CA0",
", 	c #2560BC",
"' 	c #245EBB",
") 	c #235CB9",
"! 	c #2259B6",
"~ 	c #1F59B9",
"{ 	c #1663CA",
"] 	c #0F6BD7",
"^ 	c #0F69D6",
"/ 	c #0E68D5",
"( 	c #0E66D4",
"_ 	c #1258C2",
": 	c #1744A9",
"< 	c #173CA1",
"[ 	c #16399E",
"} 	c #15369B",
"| 	c #14339A",
"1 	c #2561BD",
"2 	c #255FBC",
"3 	c #1A65C9",
"4 	c #1A7EE8",
"5 	c #5BB1FF",
"6 	c #99CEFF",
"7 	c #B8DDFF",
"8 	c #D8ECFF",
"9 	c #A9D6FF",
"0 	c #6BB8FF",
"a 	c #2481E7",
"b 	c #104AB5",
"c 	c #123097",
"d 	c #112D95",
"e 	c #2662BE",
"f 	c #1F62C2",
"g 	c #1782ED",
"h 	c #73BCFF",
"i 	c #DAEDFF",
"j 	c #E9F4FF",
"k 	c #90CAFF",
"l 	c #217EE5",
"m 	c #0F38A2",
"n 	c #102A93",
"o 	c #0F2790",
"p 	c #2663BE",
"q 	c #1D65C7",
"r 	c #2A96FB",
"s 	c #BDE0FF",
"t 	c #D9EDFF",
"u 	c #FFFFFF",
"v 	c #F7FBFF",
"w 	c #CFE2F7",
"x 	c #CBE6FF",
"y 	c #51A6F8",
"z 	c #0C39A5",
"A 	c #0E248E",
"B 	c #0D228C",
"C 	c #4CA6FB",
"D 	c #C9E5FF",
"E 	c #D0E8FF",
"F 	c #92A2C6",
"G 	c #B2CEEF",
"H 	c #7DBBF8",
"I 	c #0A34A2",
"J 	c #0C1E89",
"K 	c #0A1C87",
"L 	c #2562BD",
"M 	c #2063C3",
"N 	c #2493FB",
"O 	c #ACD7FF",
"P 	c #CAE5FF",
"Q 	c #A4B0CE",
"R 	c #6385BE",
"S 	c #50A5F8",
"T 	c #092996",
"U 	c #091885",
"V 	c #081683",
"W 	c #1380EE",
"X 	c #91CAFF",
"Y 	c #A7D4FF",
"Z 	c #EDF7FF",
"` 	c #4A629E",
" .	c #6C95CE",
"..	c #2179E0",
"+.	c #071381",
"@.	c #245FBB",
"#.	c #1A67CB",
"$.	c #4AA8FF",
"%.	c #95CBFF",
"&.	c #9BCEFF",
"*.	c #AACAEF",
"=.	c #8EA0C6",
"-.	c #2B478D",
";.	c #4771B6",
">.	c #6FBAFF",
",.	c #0530A0",
"'.	c #06107E",
").	c #050D7C",
"!.	c #107FED",
"~.	c #7ABEFF",
"{.	c #83C2FF",
"].	c #6CB8FF",
"^.	c #4CA9FF",
"/.	c #0A65D7",
"(.	c #040B7A",
"_.	c #205CBC",
":.	c #2A99FF",
"<.	c #70BAFF",
"[.	c #95CCFF",
"}.	c #BADEFF",
"|.	c #D4EAFF",
"1.	c #DDEFFF",
"2.	c #9BC3EF",
"3.	c #6BB1F7",
"4.	c #63B4FF",
"5.	c #339EFF",
"6.	c #0F8DFF",
"7.	c #0086FF",
"8.	c #041283",
"9.	c #030878",
"0.	c #225AB7",
"a.	c #1766CC",
"b.	c #3AA0FF",
"c.	c #5EB1FF",
"d.	c #F4FAFF",
"e.	c #8696BE",
"f.	c #356FBE",
"g.	c #48A7FF",
"h.	c #1991FF",
"i.	c #022FA2",
"j.	c #020575",
"k.	c #2157B5",
"l.	c #106DD9",
"m.	c #389FFF",
"n.	c #4BA8FF",
"o.	c #4D9DEF",
"p.	c #DCEEFF",
"q.	c #8695BA",
"r.	c #2365BB",
"s.	c #148FFF",
"t.	c #0145BA",
"u.	c #010273",
"v.	c #2054B3",
"w.	c #106CD8",
"x.	c #2998FF",
"y.	c #379EFF",
"z.	c #8592B3",
"A.	c #0556B3",
"B.	c #0044B9",
"C.	c #000072",
"D.	c #1F51B1",
"E.	c #1B91FF",
"F.	c #2494FF",
"G.	c #92CAFF",
"H.	c #848FAB",
"I.	c #0553AB",
"J.	c #0043B9",
"K.	c #0C89FF",
"L.	c #108BFF",
"M.	c #88C5FF",
"N.	c #838CA3",
"O.	c #0450A4",
"P.	c #0085FF",
"Q.	c #1D4CAD",
"R.	c #135BC5",
"S.	c #0184FF",
"T.	c #0284FF",
"U.	c #0183FF",
"V.	c #80C1FF",
"W.	c #828A9B",
"X.	c #034C9C",
"Y.	c #0083FF",
"Z.	c #00299E",
"`.	c #1C49AA",
" +	c #194AAE",
".+	c #0081FF",
"++	c #0082FF",
"@+	c #0182FF",
"#+	c #80C0FF",
"$+	c #828794",
"%+	c #024895",
"&+	c #00087B",
"*+	c #1B46A8",
"=+	c #1A44A6",
"-+	c #086BE3",
";+	c #007FFF",
">+	c #80BFFF",
",+	c #81848C",
"'+	c #02448D",
")+	c #0057D3",
"!+	c #1941A4",
"~+	c #134FB9",
"{+	c #0982FF",
"]+	c #84C1FF",
"^+	c #808285",
"/+	c #054488",
"(+	c #022095",
"_+	c #163B9F",
":+	c #1474E7",
"<+	c #1588FF",
"[+	c #B5DAFF",
"}+	c #CFD0D1",
"|+	c #1B5696",
"1+	c #0F66DC",
"2+	c #15389D",
"3+	c #1540A7",
"4+	c #1F88F9",
"5+	c #218EFF",
"6+	c #4AA3FF",
"7+	c #4D7AB0",
"8+	c #1F86F2",
"9+	c #1E85F6",
"0+	c #041284",
"a+	c #14359B",
"b+	c #133299",
"c+	c #1642AA",
"d+	c #2B8EF8",
"e+	c #2D95FF",
"f+	c #3A9BFF",
"g+	c #5992D4",
"h+	c #5072A3",
"i+	c #4F709D",
"j+	c #4F6E98",
"k+	c #4E6D94",
"l+	c #4E6C93",
"m+	c #4E6D95",
"n+	c #204272",
"o+	c #267DDA",
"p+	c #298BF6",
"q+	c #081C8C",
"r+	c #122F96",
"s+	c #112C94",
"t+	c #173EA6",
"u+	c #3693F8",
"v+	c #399BFF",
"w+	c #3591F6",
"x+	c #0A1D8C",
"y+	c #102A92",
"z+	c #0F2690",
"A+	c #14339B",
"B+	c #3680E2",
"C+	c #45A1FF",
"D+	c #3278DC",
"E+	c #081484",
"F+	c #0C218B",
"G+	c #0B1D89",
"H+	c #1B3DA4",
"I+	c #3979D8",
"J+	c #51A7FF",
"K+	c #3672D3",
"L+	c #132995",
"M+	c #0B1E89",
"N+	c #0A1B87",
"O+	c #091884",
"P+	c #081482",
"Q+	c #0C1B87",
"R+	c #1F3FA5",
"S+	c #2F5BBD",
"T+	c #2E59BB",
"U+	c #2E57BA",
"V+	c #2D56B9",
"W+	c #1C359E",
"X+	c #060B7B",
"Y+	c #071280",
"Z+	c #060F7D",
"`+	c #040B7B",
" @	c #020576",
"                                                                ",
"                                                                ",
"                    . + @ # $ % & * = - ; >                     ",
"                , ' ) ! ~ { ] ^ / ( _ : < [ } |                 ",
"              1 2 ) 3 4 5 6 7 7 8 7 9 0 a b | c d               ",
"            e , f g h i j j j j j j j j j k l m n o             ",
"          p , q r s t t t j u u v w t t t t x y z A B           ",
"        e 1 q C D D D D E u u u u F G D D D D D H I J K         ",
"      L 1 M N O 7 7 7 7 P u u u u Q R 7 7 7 7 7 7 S T U V       ",
"      1 ' W X Y Y Y Y Y Y Z u u u `  .Y Y Y Y Y Y Y ..V +.      ",
"    2 @.#.$.%.%.%.%.%.%.%.&.*.=.-.;.%.%.%.%.%.%.%.%.>.,.'.).    ",
"    ' ) !.~.{.{.{.{.{.{.{.{.{.{.{.{.{.{.{.{.{.{.{.].^./.).(.    ",
"    ) _.:.<.<.<.<.<.<.[.}.}.}.|.1.2.3.<.<.<.4.5.6.7.7.7.8.9.    ",
"    0.a.b.c.c.c.c.c.c.6 d.u u u u e.f.c.g.h.7.7.7.7.7.7.i.j.    ",
"    k.l.m.n.n.n.n.n.n.n.o.p.u u u q.r.s.7.7.7.7.7.7.7.7.t.u.    ",
"    v.w.x.y.y.y.y.y.y.y.y.&.u u u z.A.7.7.7.7.7.7.7.7.7.B.C.    ",
"    D.] E.F.F.F.F.F.F.F.F.G.u u u H.I.7.7.7.7.7.7.7.7.7.J.C.    ",
"    % ^ K.L.L.L.L.L.L.L.L.M.u u u N.O.P.P.P.P.P.P.P.P.P.J.C.    ",
"    Q.R.S.T.T.T.T.T.T.S.U.V.u u u W.X.Y.Y.Y.Y.Y.Y.Y.Y.Y.Z.C.    ",
"    `. +.+++@+@+++++.+.+.+#+u u u $+%+.+.+.+.+.+.+.+.+.+&+C.    ",
"    *+=+-+;+;+;+;+;+;+;+;+>+u u u ,+'+;+;+;+;+;+;+;+;+)+C.C.    ",
"    =+!+~+{+{+{+{+{+{+{+{+]+u u u ^+/+{+{+{+{+{+{+{+{+(+C.C.    ",
"      ; _+:+<+<+<+<+<+<+<+[+u u u }+|+<+<+<+<+<+<+<+1+C.C.      ",
"      _+2+3+4+5+5+5+5+6+u u u u u u u 7+8+5+5+5+5+9+0+C.C.      ",
"        a+b+c+d+e+e+e+f+g+h+i+j+k+l+m+n+o+e+e+e+p+q+C.C.        ",
"          r+s+t+u+v+v+v+v+v+v+v+v+v+v+v+v+v+v+w+x+C.C.          ",
"            y+z+A+B+C+C+C+C+C+C+C+C+C+C+C+C+D+E+C.C.            ",
"              A F+G+H+I+J+J+J+J+J+J+J+J+K+L+C.C.C.              ",
"                M+N+O+P+Q+R+S+T+U+V+W+X+C.C.C.C.                ",
"                    P+Y+Z+`+9. @u.C.C.C.C.C.                    ",
"                                                                ",
"                                                                "};
