/* XPM */
static char * cancel_xpm[] = {
"22 22 73 1",
" 	c None",
".	c #E94400",
"+	c #E94300",
"@	c #D21F00",
"#	c #D11E00",
"$	c #E84300",
"%	c #E63F00",
"&	c #E43C00",
"*	c #D11B00",
"=	c #CF1800",
"-	c #F69D50",
";	c #F59A4D",
">	c #E23800",
",	c #E03500",
"'	c #EE5F1F",
")	c #ED5A1D",
"!	c #CD1700",
"~	c #CC1400",
"{	c #FECBA2",
"]	c #FEC69A",
"^	c #F39045",
"/	c #DE3200",
"(	c #DB2F00",
"_	c #FE7B3C",
":	c #FE7234",
"<	c #EC4C15",
"[	c #CC1100",
"}	c #CA0F00",
"|	c #FEC091",
"1	c #FEBA89",
"2	c #F2873D",
"3	c #DA2C00",
"4	c #D82900",
"5	c #FE692C",
"6	c #EB4712",
"7	c #FEB480",
"8	c #FEAE78",
"9	c #F07D35",
"0	c #D62600",
"a	c #D52300",
"b	c #CA0E00",
"c	c #FEA870",
"d	c #FEA166",
"e	c #EF722D",
"f	c #D32100",
"g	c #FE9B5F",
"h	c #FE9356",
"i	c #F16C2A",
"j	c #F16525",
"k	c #FE8B4D",
"l	c #FE8445",
"m	c #EE4B15",
"n	c #FE6025",
"o	c #EE4310",
"p	c #C90E00",
"q	c #C80C00",
"r	c #FE561D",
"s	c #FE4B16",
"t	c #EA2F08",
"u	c #C70900",
"v	c #C60700",
"w	c #FE4010",
"x	c #FE350B",
"y	c #EA1D03",
"z	c #C60500",
"A	c #FE2906",
"B	c #FE1A02",
"C	c #E90900",
"D	c #C50300",
"E	c #FE0A00",
"F	c #FE0000",
"G	c #E90000",
"H	c #C40000",
"                      ",
"    .+          @#    ",
"   .$%&        @#*=   ",
"  .$-;>,      @#')!~  ",
" .$-{]^/(    @#'_:<[} ",
" +%;]|1234  @#'_:56}} ",
"  &>^17890a@#'_:56}b  ",
"   ,/28cdef#'_:56}b   ",
"    (39dghij_:56}b    ",
"     40ehkl_:56}b     ",
"      afil_:5m}b      ",
"      @#j_:5nopq      ",
"     @#'_:5nrstuv     ",
"    @#'_:5moswxyvz    ",
"   @#'_:56}ptxABCDD   ",
"  @#'_:56}bquyBEFGHH  ",
" @#'_:56}b  vvCFFFGHH ",
" #*):56}b    zDGFFGHH ",
"  =!<6}b      DHGGHH  ",
"   ~[}b        HHHH   ",
"    }}          HH    ",
"                      "};
