/* XPM */
static char * yes_xpm[] = {
"22 22 92 2",
"  	c None",
". 	c #0EAA00",
"+ 	c #13AC00",
"@ 	c #18AF00",
"# 	c #01A100",
"$ 	c #00A000",
"% 	c #009F00",
"& 	c #00A100",
"* 	c #03A200",
"= 	c #06A500",
"- 	c #009B00",
"; 	c #009900",
"> 	c #009A00",
", 	c #0AA20A",
"' 	c #009C00",
") 	c #009D00",
"! 	c #009500",
"~ 	c #17A917",
"{ 	c #009300",
"] 	c #009200",
"^ 	c #009400",
"/ 	c #089C08",
"( 	c #40CB40",
"_ 	c #2EB62E",
": 	c #009700",
"< 	c #008F00",
"[ 	c #17AA17",
"} 	c #36D536",
"| 	c #008E00",
"1 	c #008C00",
"2 	c #008D00",
"3 	c #059505",
"4 	c #29C729",
"5 	c #50F150",
"6 	c #14A314",
"7 	c #009100",
"8 	c #008A00",
"9 	c #008800",
"0 	c #2BF72B",
"a 	c #18D318",
"b 	c #008600",
"c 	c #008500",
"d 	c #008700",
"e 	c #028F02",
"f 	c #11C411",
"g 	c #28F828",
"h 	c #0B9E0B",
"i 	c #008900",
"j 	c #008200",
"k 	c #03D703",
"l 	c #05FE05",
"m 	c #01CF01",
"n 	c #008100",
"o 	c #008000",
"p 	c #007F00",
"q 	c #00C000",
"r 	c #04F604",
"s 	c #05E605",
"t 	c #018901",
"u 	c #007B00",
"v 	c #00A900",
"w 	c #00F600",
"x 	c #00C700",
"y 	c #00B800",
"z 	c #00EE00",
"A 	c #00DF00",
"B 	c #008300",
"C 	c #007C00",
"D 	c #007600",
"E 	c #00EC00",
"F 	c #00D600",
"G 	c #00E500",
"H 	c #006E00",
"I 	c #00CD00",
"J 	c #00E300",
"K 	c #007000",
"L 	c #006800",
"M 	c #00DA00",
"N 	c #006900",
"O 	c #006200",
"P 	c #00D100",
"Q 	c #008B00",
"R 	c #006400",
"S 	c #005C00",
"T 	c #00BB00",
"U 	c #00C800",
"V 	c #00C100",
"W 	c #007700",
"X 	c #005D00",
"Y 	c #005B00",
"Z 	c #00B900",
"` 	c #006D00",
"                                            ",
"                                            ",
"                                            ",
"                                      . + @ ",
"# $                               % & * * = ",
"- - ;                         ; > , - ' )   ",
"! ~ ! {                   ] ^ / ( _ ! :     ",
"< [ } | 1             1 2 3 4 5 6 < 7       ",
"8 9 0 a 9 b       c d e f g 0 h i           ",
"  j k l m n o p o i q r l s t j             ",
"  u v w w x u j y z w w A B C               ",
"  D C E E E F G E E E q C D                 ",
"    H I J J J J J J y H K                   ",
"    L & M M M M M > L N                     ",
"    O D P P P P Q O R                       ",
"      S T U V W S X                         ",
"      Y > Z H Y Y                           ",
"      Y ` ` Y                               ",
"      Y Y Y                                 ",
"                                            ",
"                                            ",
"                                            "};
