/* XPM */
static char * no_xpm[] = {
"22 22 134 2",
"  	c None",
". 	c #CB0000",
"+ 	c #CA0000",
"@ 	c #D10000",
"# 	c #D00000",
"$ 	c #CE0000",
"% 	c #CC0000",
"& 	c #C90000",
"* 	c #C30000",
"= 	c #B60000",
"- 	c #B40000",
"; 	c #DB2D2D",
"> 	c #FCB8B8",
", 	c #CE2D2D",
"' 	c #B20000",
") 	c #AF0000",
"! 	c #DB2929",
"~ 	c #FED4D4",
"{ 	c #FFE3E3",
"] 	c #CB2929",
"^ 	c #AD0000",
"/ 	c #AB0000",
"( 	c #DB2525",
"_ 	c #FEBFBF",
": 	c #FFCDCD",
"< 	c #C82525",
"[ 	c #A80000",
"} 	c #A60000",
"| 	c #DB2121",
"1 	c #FEAAAA",
"2 	c #FFB6B6",
"3 	c #FFBBBB",
"4 	c #FFE6E6",
"5 	c #C52121",
"6 	c #A40000",
"7 	c #A10000",
"8 	c #DB1C1C",
"9 	c #FE9494",
"0 	c #FF9E9E",
"a 	c #FFA5A5",
"b 	c #FFEEEE",
"c 	c #FFFFFF",
"d 	c #C21C1C",
"e 	c #9F0000",
"f 	c #FC6464",
"g 	c #FF8585",
"h 	c #FFC1C1",
"i 	c #FFEAEA",
"j 	c #FF8D8D",
"k 	c #FC6666",
"l 	c #F73535",
"m 	c #FC5151",
"n 	c #FF6C6C",
"o 	c #FFC6C6",
"p 	c #FFE5E5",
"q 	c #FCADAD",
"r 	c #F72B2B",
"s 	c #F30707",
"t 	c #F20000",
"u 	c #B00000",
"v 	c #CF0000",
"w 	c #FC3D3D",
"x 	c #FF5252",
"y 	c #FFBCBC",
"z 	c #FA9F9F",
"A 	c #AE0000",
"B 	c #FC2A2A",
"C 	c #FF3838",
"D 	c #FFB2B2",
"E 	c #AC0000",
"F 	c #FC1515",
"G 	c #FF1D1D",
"H 	c #FF2B2B",
"I 	c #FFD6D6",
"J 	c #FDCFCF",
"K 	c #F31010",
"L 	c #FD0303",
"M 	c #FF0505",
"N 	c #FF1414",
"O 	c #FFD1D1",
"P 	c #F61010",
"Q 	c #F60000",
"R 	c #AA0000",
"S 	c #FC0000",
"T 	c #FD0000",
"U 	c #FC1010",
"V 	c #FFCFCF",
"W 	c #FE9F9F",
"X 	c #FECFCF",
"Y 	c #FA1010",
"Z 	c #FA0000",
"` 	c #A90000",
" .	c #C50000",
"..	c #FE0202",
"+.	c #FFA0A0",
"@.	c #FFA1A1",
"#.	c #B50000",
"$.	c #CF0505",
"%.	c #FF1111",
"&.	c #FF2020",
"*.	c #FFD3D3",
"=.	c #FFA7A7",
"-.	c #B70505",
";.	c #8A0000",
">.	c #B30000",
",.	c #B10000",
"'.	c #CD0B0B",
").	c #FF2121",
"!.	c #FF3030",
"~.	c #FF8484",
"{.	c #B70B0B",
"].	c #890000",
"^.	c #CA1212",
"/.	c #FF3232",
"(.	c #B71212",
"_.	c #A70000",
":.	c #C71818",
"<.	c #FF4343",
"[.	c #B71818",
"}.	c #A50000",
"|.	c #A30000",
"1.	c #C41E1E",
"2.	c #FF5454",
"3.	c #B71E1E",
"4.	c #A00000",
"5.	c #9E0000",
"6.	c #AE1212",
"7.	c #B31818",
"8.	c #B11818",
"9.	c #AF1818",
"0.	c #AD1818",
"a.	c #AC1818",
"b.	c #AA1818",
"c.	c #A11212",
"                                            ",
"          . + @ @ # $ % . & * = -           ",
"        . + ; > > > > > > > > , ' )         ",
"      . + ! ~ { { { { { { { { ~ ] ^ /       ",
"    . + ( _ : : : : : : : : : : _ < [ }     ",
"  . + | 1 2 3 4 3 2 2 2 2 3 4 3 2 1 5 6 7   ",
"  + 8 9 0 a b c b a 0 0 a b c b a 0 9 d e   ",
"  # f g g h c c c i j j i c c c h g k l ^   ",
"  @ m n n n o c c c p p c c c q r s t t u   ",
"  v w x x x x y c c c c c c z t t t t t A   ",
"  $ B C C C C C D c c c c z t t t t t t E   ",
"  % F G G G G H I c c c c J K t t t t t /   ",
"  . L M M M N O c c c c c c J P Q Q Q Q R   ",
"  + S S T U V c c c W W c c c X Y Z Z Z `   ",
"   .......+.c c c @.....@.c c c +.......7   ",
"  #.$.%.%.&.*.c =.%.%.%.%.=.c *.&.%.%.-.;.  ",
"  >.,.'.).).!.~.).).).).).).~.!.).).{.;.].  ",
"    A E ^././././././././././././.(.;.].    ",
"      R _.:.<.<.<.<.<.<.<.<.<.<.[.;.].      ",
"        }.|.1.2.2.2.2.2.2.2.2.3.;.].        ",
"          4.5.6.7.8.9.0.a.b.c.;.].          ",
"                                            "};
