/* XPM */
static char * help_xpm[] = {
"32 32 250 2",
"  	c None",
". 	c #C60000",
"+ 	c #C40000",
"@ 	c #C20000",
"# 	c #C10000",
"$ 	c #BF0000",
"% 	c #BD0000",
"& 	c #BC0000",
"* 	c #CA0000",
"= 	c #C90000",
"- 	c #C70000",
"; 	c #BE0000",
"> 	c #BB0000",
", 	c #B90000",
"' 	c #B70000",
") 	c #B60000",
"! 	c #CB0000",
"~ 	c #D90000",
"{ 	c #E30000",
"] 	c #EB2F2F",
"^ 	c #F53E3E",
"/ 	c #EB3E3E",
"( 	c #E10000",
"_ 	c #D20000",
": 	c #B40000",
"< 	c #B20000",
"[ 	c #CD0000",
"} 	c #E20000",
"| 	c #F75858",
"1 	c #FBA3A3",
"2 	c #FFF0F0",
"3 	c #FDC2C2",
"4 	c #F97676",
"5 	c #DC1D1D",
"6 	c #B10000",
"7 	c #AF0000",
"8 	c #AE0000",
"9 	c #DD0000",
"0 	c #F64545",
"a 	c #FDC4C4",
"b 	c #FFE1E1",
"c 	c #FCD3D3",
"d 	c #ED9C9C",
"e 	c #E99292",
"f 	c #F0B2B2",
"g 	c #EFAEAE",
"h 	c #F3B7B7",
"i 	c #F96F6F",
"j 	c #D20E0E",
"k 	c #AC0000",
"l 	c #AA0000",
"m 	c #E30D0D",
"n 	c #FA8181",
"o 	c #FFD1D1",
"p 	c #F9B7B7",
"q 	c #EB9090",
"r 	c #EEAFAF",
"s 	c #FFFFFF",
"t 	c #EDBABA",
"u 	c #F6C1C1",
"v 	c #FDA9A9",
"w 	c #DA2626",
"x 	c #A90000",
"y 	c #A70000",
"z 	c #FD9B9B",
"A 	c #FFC0C0",
"B 	c #F59D9D",
"C 	c #E88C8C",
"D 	c #FFD9D9",
"E 	c #FEB3B3",
"F 	c #D92323",
"G 	c #A50000",
"H 	c #FA6C6C",
"I 	c #FFAFAF",
"J 	c #FCA4A4",
"K 	c #E88B8B",
"L 	c #FFC9C9",
"M 	c #FD8D8D",
"N 	c #CC0B0B",
"O 	c #A40000",
"P 	c #A30000",
"Q 	c #CC0000",
"R 	c #F63030",
"S 	c #FF9E9E",
"T 	c #EB6F6F",
"U 	c #FFA3A3",
"V 	c #FFA9A9",
"W 	c #FFECEC",
"X 	c #FFF3F3",
"Y 	c #FA6262",
"Z 	c #A00000",
"` 	c #9F0000",
" .	c #C80000",
"..	c #FD7A7A",
"+.	c #FF8C8C",
"@.	c #EE9393",
"#.	c #F58282",
"$.	c #FAEFEF",
"%.	c #FF9494",
"&.	c #D51111",
"*.	c #9E0000",
"=.	c #F72E2E",
"-.	c #FF7B7B",
";.	c #F19E9E",
">.	c #FFACAC",
",.	c #F56C6C",
"'.	c #EABFBF",
").	c #FF9C9C",
"!.	c #FB5656",
"~.	c #F83838",
"{.	c #F41010",
"].	c #A80000",
"^.	c #9C0000",
"/.	c #C50000",
"(.	c #D80000",
"_.	c #FB4848",
":.	c #FF6969",
"<.	c #FB9090",
"[.	c #FFF5F5",
"}.	c #FF7272",
"|.	c #D45252",
"1.	c #F73232",
"2.	c #F30707",
"3.	c #F20000",
"4.	c #9A0000",
"5.	c #990000",
"6.	c #FE5252",
"7.	c #FF5858",
"8.	c #FF8B8B",
"9.	c #FF6C6C",
"0.	c #DA5252",
"a.	c #EFCFCF",
"b.	c #FCBFBF",
"c.	c #D60000",
"d.	c #980000",
"e.	c #C30000",
"f.	c #EA0404",
"g.	c #FF4646",
"h.	c #DA4B4B",
"i.	c #FEEFEF",
"j.	c #F42020",
"k.	c #970000",
"l.	c #950000",
"m.	c #C00000",
"n.	c #F50D0D",
"o.	c #FF3434",
"p.	c #CF3E3E",
"q.	c #F43030",
"r.	c #940000",
"s.	c #F50808",
"t.	c #FF2222",
"u.	c #D92222",
"v.	c #920000",
"w.	c #EA0101",
"x.	c #FF0F0F",
"y.	c #FE0E0E",
"z.	c #D98181",
"A.	c #FEDFDF",
"B.	c #F40000",
"C.	c #910000",
"D.	c #E40000",
"E.	c #FF0202",
"F.	c #FE0101",
"G.	c #FA0101",
"H.	c #F80000",
"I.	c #E9BFBF",
"J.	c #F93030",
"K.	c #F70000",
"L.	c #D70000",
"M.	c #900000",
"N.	c #8F0000",
"O.	c #BA0000",
"P.	c #D50000",
"Q.	c #FC0000",
"R.	c #FD0101",
"S.	c #FD0000",
"T.	c #FB0000",
"U.	c #E8BFBF",
"V.	c #FECFCF",
"W.	c #8E0000",
"X.	c #B80000",
"Y.	c #FE0000",
"Z.	c #EDA0A0",
"`.	c #FF8080",
" +	c #8D0000",
".+	c #B50000",
"++	c #E30505",
"@+	c #FF0808",
"#+	c #FF1818",
"$+	c #FF7676",
"%+	c #FF6666",
"&+	c #D50505",
"*+	c #8C0000",
"=+	c #B30000",
"-+	c #BB0202",
";+	c #FF1414",
">+	c #D21818",
",+	c #E58383",
"'+	c #E48383",
")+	c #F82F2F",
"!+	c #9B0202",
"~+	c #8B0000",
"{+	c #B00000",
"]+	c #D70F0F",
"^+	c #FF2020",
"/+	c #EC1919",
"(+	c #ECCFCF",
"_+	c #FFF1F1",
":+	c #FF2D2D",
"<+	c #C60F0F",
"[+	c #8A0000",
"}+	c #AD0000",
"|+	c #E01A1A",
"1+	c #FF2B2B",
"2+	c #E52020",
"3+	c #FF6060",
"4+	c #D41A1A",
"5+	c #AB0000",
"6+	c #DE2121",
"7+	c #FF3737",
"8+	c #F23030",
"9+	c #FF5050",
"0+	c #D42121",
"a+	c #890000",
"b+	c #A60000",
"c+	c #D22020",
"d+	c #FF4343",
"e+	c #FF6767",
"f+	c #FFC5C5",
"g+	c #FF7E7E",
"h+	c #C62020",
"i+	c #AD0909",
"j+	c #DB3030",
"k+	c #FF4E4E",
"l+	c #D53030",
"m+	c #9B0909",
"n+	c #A20000",
"o+	c #A90B0B",
"p+	c #C72626",
"q+	c #DF3C3C",
"r+	c #EC4848",
"s+	c #FF5A5A",
"t+	c #EB4848",
"u+	c #DD3C3C",
"v+	c #C02626",
"w+	c #9C0B0B",
"x+	c #9D0000",
"y+	c #9B0000",
"z+	c #960000",
"A+	c #930000",
"                                                                ",
"                        . . + @ # $ % &                         ",
"                  * = - . + @ # $ ; & > , ' )                   ",
"                * = - ! ~ { ] ^ ^ / ( _ $ ) : <                 ",
"            ! * = [ } | 1 2 2 2 2 2 2 3 4 5 > 6 7 8             ",
"          ! * = 9 0 a b b c d e f g h b b b i j 8 k l           ",
"        ! * = m n o o p q r s s s s s t u o o v w l x y         ",
"        * = } z A A B C s s s s s s s s s D A A E F y G         ",
"      * = 9 H I I J K s s s s s s s s s s s L I I M N O P       ",
"    = = Q R S S S T s s s s D U S V W s s s X S S S Y k Z `     ",
"     .- } ..+.+.+.@.s s s 2 +.+.+.+.#.$.s s s %.+.+.+.&.` *.    ",
"    - ! =.-.-.-.-.;.s s s >.-.-.-.-.,.'.s s s ).-.!.~.{.].^.    ",
"  . /.(._.:.:.:.:.<.s s [.}.:.:.:.:.|.s s s s 1.2.3.3.3.# 4.5.  ",
"  /.+ { 6.7.7.7.7.7.8.V 9.7.7.7.7.0.a.s s s b.3.3.3.3.3.c.5.d.  ",
"  e.@ f.g.g.g.g.g.g.g.g.g.g.g.g.h.$.s s s i.j.3.3.3.3.3.( k.l.  ",
"  @ m.n.o.o.o.o.o.o.o.o.o.o.o.p.$.s s s i.q.3.3.3.3.3.3.3.l.r.  ",
"  m.$ s.t.t.t.t.t.t.t.t.t.t.u.$.s s s i.q.3.3.3.3.3.3.3.3.r.v.  ",
"  ; % w.x.x.x.x.x.x.x.x.x.y.z.s s s A.R B.B.B.B.B.B.B.B.( v.C.  ",
"  % > D.E.E.E.E.E.E.E.F.G.H.I.s s s J.K.K.K.K.K.K.K.K.K.L.M.N.  ",
"  > O.P.Q.R.R.R.S.Q.T.T.T.T.U.s s V.T.T.T.T.T.T.T.T.T.T.; W.W.  ",
"    X.$ Y.Y.Y.Y.Y.Y.Y.Y.Y.Y.Z.s s `.Y.Y.Y.Y.Y.Y.Y.Y.Y.Y.^. +    ",
"    ) .+++@+@+@+@+@+@+@+@+@+#+$+%+@+@+@+@+@+@+@+@+@+@+&+ +*+    ",
"    .+=+-+;+;+;+;+;+;+;+;+;+>+,+'+)+;+;+;+;+;+;+;+;+;+!+~+~+    ",
"      < {+]+^+^+^+^+^+^+^+/+(+s s _+:+^+^+^+^+^+^+^+<+~+[+      ",
"        8 }+|+1+1+1+1+1+1+2+s s s s 3+1+1+1+1+1+1+4+~+[+        ",
"        }+5+x 6+7+7+7+7+7+8+X s s s 9+7+7+7+7+7+0+~+[+a+        ",
"          x ].b+c+d+d+d+d+d+e+f+o g+d+d+d+d+d+h+~+[+a+          ",
"            b+O P i+j+k+k+k+k+k+k+k+k+k+k+l+m+~+[+a+            ",
"                n+Z *.o+p+q+r+s+s+t+u+v+w+ +~+[+                ",
"                  *.x+y+5.d.z+l.A+C.M.W. +~+[+                  ",
"                        d.k.l.A+C.M.N.W.                        ",
"                                                                "};
