/* XPM */
static char * build_xpm[] = {
"16 16 184 2",
"  	c None",
". 	c #00067A",
"+ 	c #000A80",
"@ 	c #000B80",
"# 	c #00067C",
"$ 	c #00138C",
"% 	c #2D51C2",
"& 	c #6D8FE6",
"* 	c #88A9F6",
"= 	c #86A8F7",
"- 	c #6A8DE9",
"; 	c #2E54C7",
"> 	c #011790",
", 	c #000571",
"' 	c #000474",
") 	c #1E3FB7",
"! 	c #91B2FA",
"~ 	c #D5E7FF",
"{ 	c #D4E4FF",
"] 	c #C8DCFF",
"^ 	c #C7DAFF",
"/ 	c #CADCFF",
"( 	c #BED7FF",
"_ 	c #79A2FA",
": 	c #183FBC",
"< 	c #000876",
"[ 	c #1F41B8",
"} 	c #BBD4FF",
"| 	c #E1EDFF",
"1 	c #BFD3FF",
"2 	c #A7C3FF",
"3 	c #B5CDFF",
"4 	c #B1CAFF",
"5 	c #9FBDFF",
"6 	c #A4C1FF",
"7 	c #B0CCFF",
"8 	c #8CB5FF",
"9 	c #1A44C3",
"0 	c #000674",
"a 	c #011B94",
"b 	c #99B8FB",
"c 	c #D0E0FF",
"d 	c #ABC5FF",
"e 	c #A8C3FF",
"f 	c #A3C0FF",
"g 	c #F9FBFF",
"h 	c #EEF3FF",
"i 	c #93B5FF",
"j 	c #8FB2FF",
"k 	c #90B3FF",
"l 	c #9ABBFF",
"m 	c #6397FF",
"n 	c #04229E",
"o 	c #365BC8",
"p 	c #C6DDFF",
"q 	c #A3C1FF",
"r 	c #A0BFFF",
"s 	c #88AEFF",
"t 	c #92B4FF",
"u 	c #FEFEFF",
"v 	c #F3F7FF",
"w 	c #87ACFF",
"x 	c #7FA7FF",
"y 	c #81A8FF",
"z 	c #83A9FF",
"A 	c #7DAAFF",
"B 	c #1F52D3",
"C 	c #000C78",
"D 	c #001286",
"E 	c #6B91EC",
"F 	c #A8C6FF",
"G 	c #7FA8FF",
"H 	c #77A2FF",
"I 	c #6898FF",
"J 	c #84ABFF",
"K 	c #FDFEFF",
"L 	c #F4F7FF",
"M 	c #78A3FF",
"N 	c #6E9CFF",
"O 	c #74A2FF",
"P 	c #3A73F4",
"Q 	c #01198A",
"R 	c #052294",
"S 	c #719BF9",
"T 	c #6B9AFF",
"U 	c #7BA5FF",
"V 	c #BAD0FF",
"W 	c #6998FF",
"X 	c #FCFDFF",
"Y 	c #5D90FF",
"Z 	c #C2D6FF",
"` 	c #6193FF",
" .	c #3B78FC",
"..	c #06279F",
"+.	c #0B2B9B",
"@.	c #5F92FA",
"#.	c #4281FF",
"$.	c #9FBEFF",
"%.	c #FFFFFF",
"&.	c #E5EDFF",
"*.	c #86AEFF",
"=.	c #F6F9FF",
"-.	c #89AFFF",
";.	c #F1F6FF",
">.	c #FFFFFE",
",.	c #86AEFE",
"'.	c #377AFF",
").	c #2C71FD",
"!.	c #0E31A5",
"~.	c #0A2B9A",
"{.	c #568BF1",
"].	c #3C83FF",
"^.	c #4285FD",
"/.	c #BCD3FC",
"(.	c #F2F7FF",
"_.	c #FBFDFF",
":.	c #F4F8FF",
"<.	c #A1C0FA",
"[.	c #347BFD",
"}.	c #337DFF",
"|.	c #3479F8",
"1.	c #10339F",
"2.	c #0B2C99",
"3.	c #4276D9",
"4.	c #599DFF",
"5.	c #3B87FF",
"6.	c #408AFD",
"7.	c #BFD6FC",
"8.	c #AFCBFA",
"9.	c #3B86FD",
"0.	c #3F8AFF",
"a.	c #4B94FF",
"b.	c #3774E2",
"c.	c #0D2F9B",
"d.	c #2351BA",
"e.	c #67A8FE",
"f.	c #559EFF",
"g.	c #4A96FF",
"h.	c #539AFD",
"i.	c #CADEFC",
"j.	c #C1D9FA",
"k.	c #4F97FC",
"l.	c #4B98FF",
"m.	c #549DFF",
"n.	c #5DA4FF",
"o.	c #2658C1",
"p.	c #1039A5",
"q.	c #427BD8",
"r.	c #76BAFF",
"s.	c #67AFFF",
"t.	c #59A6FF",
"u.	c #62A9FD",
"v.	c #BED9FA",
"w.	c #BBD7FA",
"x.	c #60A8FD",
"y.	c #66AEFF",
"z.	c #75BAFF",
"A.	c #4683DF",
"B.	c #113BA8",
"C.	c #1543AE",
"D.	c #4A86DD",
"E.	c #82C2FE",
"F.	c #85C7FF",
"G.	c #76BDFF",
"H.	c #6DB7FE",
"I.	c #82C3FF",
"J.	c #4E8BE0",
"K.	c #1846B1",
"L.	c #1546B4",
"M.	c #2F66C8",
"N.	c #629CE6",
"O.	c #85BFF8",
"P.	c #8FC8FD",
"Q.	c #90C9FD",
"R.	c #87C0F9",
"S.	c #67A0E8",
"T.	c #326ACA",
"U.	c #1547B4",
"V.	c #174DBA",
"W.	c #2158C0",
"X.	c #2C63C6",
"Y.	c #2C62C7",
"Z.	c #2159C1",
"`.	c #194EBB",
"            . + @ #             ",
"        $ % & * = - ; > ,       ",
"    ' ) ! ~ { ] ^ / ( _ : <     ",
"  , [ } | 1 2 3 4 5 6 7 8 9 0   ",
"  a b c d e f g h i j k l m n   ",
"  o p q r s t u v w x y z A B C ",
"D E F G H I J K L M I I N O P Q ",
"R S T U V H W X v Y w Z H `  ...",
"+.@.#.$.%.&.*.=.h -.;.>.,.'.).!.",
"~.{.].^./.%.(.X _.:.>.<.[.}.|.1.",
"2.3.4.5.6.7.%.%.%.%.8.9.0.a.b.c.",
"  d.e.f.g.h.i.%.%.j.k.l.m.n.o.  ",
"  p.q.r.s.t.u.v.w.x.t.y.z.A.B.  ",
"    C.D.E.F.G.H.H.G.F.I.J.K.    ",
"      L.M.N.O.P.Q.R.S.T.U.      ",
"          V.W.X.Y.Z.`.          "};
