/* XPM */
static char * rebuild_xpm[] = {
"16 16 114 2",
"  	c None",
". 	c #439CE8",
"+ 	c #59ABEF",
"@ 	c #56A5ED",
"# 	c #4E9CEB",
"$ 	c #4794E8",
"% 	c #408AE6",
"& 	c #3881E3",
"* 	c #3178E1",
"= 	c #286EDE",
"- 	c #2165DC",
"; 	c #195CD9",
"> 	c #0A4AD4",
", 	c #0543D2",
"' 	c #033ECA",
") 	c #0034AD",
"! 	c #83C7FF",
"~ 	c #7ABEFF",
"{ 	c #6FB4FF",
"] 	c #65AAFF",
"^ 	c #599EFF",
"/ 	c #4D92FF",
"( 	c #4287FF",
"_ 	c #347AFF",
": 	c #296FFF",
"< 	c #1056FF",
"[ 	c #044AFF",
"} 	c #0345F9",
"| 	c #0136C1",
"1 	c #74B6F0",
"2 	c #B8DDFF",
"3 	c #B3D8FF",
"4 	c #ADD3FF",
"5 	c #A8CEFF",
"6 	c #A2C7FF",
"7 	c #9CC1FF",
"8 	c #96BCFF",
"9 	c #8FB5FF",
"0 	c #88AFFF",
"a 	c #82A8FE",
"b 	c #7399FD",
"c 	c #7095F9",
"d 	c #315AC4",
"e 	c #92C4F0",
"f 	c #FEFEFE",
"g 	c #F5F5F9",
"h 	c #F1F2F5",
"i 	c #6984C5",
"j 	c #EBEBF2",
"k 	c #91C2EE",
"l 	c #647FC1",
"m 	c #8DBBEA",
"n 	c #DBF7DB",
"o 	c #B6F2B3",
"p 	c #B4EFB3",
"q 	c #DAECDF",
"r 	c #E6E6F0",
"s 	c #AAEFAA",
"t 	c #58F358",
"u 	c #9CF89A",
"v 	c #96F296",
"w 	c #53E154",
"x 	c #94D997",
"y 	c #E3E3ED",
"z 	c #CEE5CE",
"A 	c #3EE63F",
"B 	c #15F415",
"C 	c #4ED54F",
"D 	c #B2E4B5",
"E 	c #81C785",
"F 	c #C2DAC7",
"G 	c #44C344",
"H 	c #04EC04",
"I 	c #2DAE2E",
"J 	c #D9E4DD",
"K 	c #CDE6D1",
"L 	c #E0E6E7",
"M 	c #5F7ABE",
"N 	c #B2D2B5",
"O 	c #29C629",
"P 	c #2FBA30",
"Q 	c #C3E5C9",
"R 	c #61E861",
"S 	c #5BEA5C",
"T 	c #DEDEE9",
"U 	c #89B5E6",
"V 	c #B2CAB6",
"W 	c #B4CAB9",
"X 	c #D7DFDC",
"Y 	c #41CB43",
"Z 	c #1AFA1A",
"` 	c #43D545",
" .	c #BDD3C6",
"..	c #D9D9E5",
"+.	c #4588D6",
"@.	c #6498D8",
"#.	c #6092D4",
"$.	c #5C8BD0",
"%.	c #427C90",
"&.	c #39727D",
"*.	c #42769D",
"=.	c #3C7491",
"-.	c #128F38",
";.	c #01E203",
">.	c #04C310",
",.	c #1D6E63",
"'.	c #3864A2",
").	c #4162B4",
"!.	c #1C47AB",
"~.	c #0A550A",
"{.	c #007400",
"].	c #009300",
"^.	c #00C300",
"/.	c #006A00",
". + @ # $ % & * = - ; > > , ' ) ",
"+ ! ~ { ] ^ / ( _ : : < [ [ } | ",
"1 2 3 4 5 6 7 8 9 0 a b b b c d ",
"e f f f f f f f f f f f f g h i ",
"e f f f f f f f f f f f g h j i ",
"k f f f f f f f f f g g g h j i ",
"k f f f f f f f f g g g h h j l ",
"m f f f f f n o p q h h h j r l ",
"m f f f f s t u v w x j j j y l ",
"m f f h z A B C D D E F j r y l ",
"m f f z G H H I J q K L r y y M ",
"m f f f N O P N Q R S Q r y T M ",
"U g f g h V W X Y B Z `  .y ..M ",
"+.@.#.$.%.&.*.=.-.;.>.,.'.).'.!.",
"          ~.{.].^.^.            ",
"              /.{.              "};
