/* XPM */
static char * debug_messages_xpm[] = {
"16 16 192 2",
"  	c None",
". 	c #2D87E1",
"+ 	c #4097E8",
"@ 	c #3C91E7",
"# 	c #3686E3",
"$ 	c #307DE0",
"% 	c #2A74DC",
"& 	c #246AD8",
"* 	c #1E61D5",
"= 	c #1858D1",
"- 	c #1350CE",
"; 	c #0D46CB",
"> 	c #083DC6",
", 	c #0436C4",
"' 	c #022FC0",
") 	c #012BB8",
"! 	c #002299",
"~ 	c #449CEC",
"{ 	c #74C2FE",
"] 	c #64B2FE",
"^ 	c #58A4FE",
"/ 	c #4D99FE",
"( 	c #408BFE",
"_ 	c #357DFE",
": 	c #296FFE",
"< 	c #1D62FE",
"[ 	c #1355FE",
"} 	c #0A48FE",
"| 	c #023AFE",
"1 	c #002FFE",
"2 	c #002EFE",
"3 	c #002CFE",
"4 	c #0021B3",
"5 	c #56A4ED",
"6 	c #99CEFE",
"7 	c #8BC2FE",
"8 	c #83B9FE",
"9 	c #7BB1FE",
"0 	c #73A8FE",
"a 	c #6AA0FE",
"b 	c #6297FE",
"c 	c #598DFE",
"d 	c #5184FE",
"e 	c #487BFE",
"f 	c #3F70FE",
"g 	c #3969FE",
"h 	c #3768FE",
"i 	c #3968FD",
"j 	c #1339B7",
"k 	c #7CB7EC",
"l 	c #F9FCFE",
"m 	c #FCFEFE",
"n 	c #FDFEFE",
"o 	c #F7F9FE",
"p 	c #F8FBFE",
"q 	c #FBFEFE",
"r 	c #FBFDFE",
"s 	c #F9FDFE",
"t 	c #F6F8FE",
"u 	c #F3F6FE",
"v 	c #EEF1FD",
"w 	c #F2F2F8",
"x 	c #516DB9",
"y 	c #7FB7EC",
"z 	c #FEFEFE",
"A 	c #DBDBDB",
"B 	c #D0CFCF",
"C 	c #D2D1D1",
"D 	c #FEFEFD",
"E 	c #ECECEB",
"F 	c #CFCFCE",
"G 	c #D2D2D1",
"H 	c #D0D0D0",
"I 	c #CECECE",
"J 	c #CAC9CA",
"K 	c #D1D1D2",
"L 	c #FEF9F8",
"M 	c #556FB8",
"N 	c #7FB5E9",
"O 	c #B3B3B3",
"P 	c #9B9B9B",
"Q 	c #A0A0A0",
"R 	c #FCFCFC",
"S 	c #D6D6D6",
"T 	c #999999",
"U 	c #9F9F9F",
"V 	c #9B9B9E",
"W 	c #9A9A9C",
"X 	c #959597",
"Y 	c #A7A7AA",
"Z 	c #FBF8F9",
"` 	c #526CB7",
" .	c #7CB2E9",
"..	c #FDFDFE",
"+.	c #F3F1F2",
"@.	c #506BB5",
"#.	c #7CB1E8",
"$.	c #7B7B7B",
"%.	c #818181",
"&.	c #FBFBFB",
"*.	c #C8C8C8",
"=.	c #797979",
"-.	c #7F7F80",
";.	c #7D7D7F",
">.	c #7C7C7D",
",.	c #7A7A7D",
"'.	c #747477",
").	c #8F8F92",
"!.	c #F5F2F6",
"~.	c #4E69B5",
"{.	c #7BB0E7",
"].	c #F7F7FE",
"^.	c #EDEBEE",
"/.	c #4D68B2",
"(.	c #79AEE6",
"_.	c #B1B1B1",
":.	c #A7A7A7",
"<.	c #D0D0D2",
"[.	c #97979A",
"}.	c #969699",
"|.	c #939398",
"1.	c #8F8F93",
"2.	c #A6A6AC",
"3.	c #EEEBF1",
"4.	c #4C67B1",
"5.	c #79ACE4",
"6.	c #D5D5D5",
"7.	c #F9F9FC",
"8.	c #E4E4E8",
"9.	c #CACACE",
"0.	c #C8C8CE",
"a.	c #C5C5CA",
"b.	c #C3C3C9",
"c.	c #C0C0C8",
"d.	c #BDBDC4",
"e.	c #C6C6CF",
"f.	c #EBE6ED",
"g.	c #4B66B1",
"h.	c #79ABE3",
"i.	c #ECECEC",
"j.	c #E4E4E6",
"k.	c #E6E6E7",
"l.	c #F8F8FB",
"m.	c #EBEBF0",
"n.	c #DBDBE1",
"o.	c #DADADE",
"p.	c #D7D7DC",
"q.	c #D5D5DB",
"r.	c #D1D1DA",
"s.	c #CECED7",
"t.	c #D2D2DC",
"u.	c #E7E3EC",
"v.	c #4B65B0",
"w.	c #78AAE3",
"x.	c #A6A6A6",
"y.	c #8B8B8C",
"z.	c #969697",
"A.	c #F3F3F8",
"B.	c #C5C5C9",
"C.	c #89898E",
"D.	c #89898D",
"E.	c #87878B",
"F.	c #85858B",
"G.	c #848489",
"H.	c #7F7F84",
"I.	c #9898A0",
"J.	c #E8E4ED",
"K.	c #4A65B0",
"L.	c #7BAAE2",
"M.	c #FEFCFD",
"N.	c #FEFCFE",
"O.	c #FCF8FC",
"P.	c #F9F5FB",
"Q.	c #F7F3F8",
"R.	c #F1EDF3",
"S.	c #EDE6E8",
"T.	c #4F68B1",
"U.	c #3678CF",
"V.	c #5F91D3",
"W.	c #5887CE",
"X.	c #5481CA",
"Y.	c #507AC4",
"Z.	c #4C75BF",
"`.	c #486EBC",
" +	c #4569B7",
".+	c #4163B2",
"++	c #3D5DAE",
"@+	c #3A59AA",
"#+	c #3A58AA",
"$+	c #3958AA",
"%+	c #3C5AAB",
"&+	c #14389B",
". + @ # $ % & * = - ; > , ' ) ! ",
"~ { ] ^ / ( _ : < [ } | 1 2 3 4 ",
"5 6 7 8 9 0 a b c d e f g h i j ",
"k l m n m o p q r s p t u v w x ",
"y z A B C D E F G G H I J K L M ",
"N z O P Q R S T Q U V W X Y Z ` ",
" .z z z z z z z z z z z z ..+.@.",
"#.z P $.%.&.*.=.-.;.>.,.'.).!.~.",
"{.z z z z z z z z z z z z ].^./.",
"(.z _.P :.R <.V V [.}.|.1.2.3.4.",
"5.z A H 6.7.8.9.0.a.b.c.d.e.f.g.",
"h.z i.j.k.l.m.n.o.p.q.r.s.t.u.v.",
"w.z x.y.z.A.B.C.D.E.F.G.H.I.J.K.",
"L.z z z z L M.z z N.O.P.Q.R.S.T.",
"U.V.W.X.Y.Z.`. +.+++@+#+$+$+%+&+",
"                                "};
