/* XPM */
static char * format_decreaseindent_xpm[] = {
"16 16 49 1",
" 	c None",
".	c #575757",
"+	c #4E4F4E",
"@	c #464646",
"#	c #3E3E3D",
"$	c #2E2E2E",
"%	c #262627",
"&	c #202020",
"*	c #191919",
"=	c #131314",
"-	c #0D0E0D",
";	c #080908",
">	c #4F4F4F",
",	c #3E3D3E",
"'	c #2E2E2F",
")	c #272727",
"!	c #131414",
"~	c #0E0E0E",
"{	c #090908",
"]	c #8095EE",
"^	c #131313",
"/	c #0E0D0E",
"(	c #090808",
"_	c #040404",
":	c #000000",
"<	c #4B6AE7",
"[	c #4C6AE7",
"}	c #1F45E0",
"|	c #1E45E0",
"1	c #1F44E0",
"2	c #1F201F",
"3	c #1A1919",
"4	c #0D0D0E",
"5	c #002BDC",
"6	c #272627",
"7	c #1F2020",
"8	c #19191A",
"9	c #090809",
"0	c #4F4E4E",
"a	c #3E3E3E",
"b	c #262726",
"c	c #1A191A",
"d	c #0E0E0D",
"e	c #080808",
"f	c #4E4E4E",
"g	c #3D3E3D",
"h	c #262727",
"i	c #191A19",
"j	c #0D0E0E",
"                ",
"                ",
"  .+@# $%&*=-;  ",
"  .>@, ')&*!~{  ",
"                ",
"  ]    ')&*^/(_:",
" <[             ",
"}}}|1    23^4(  ",
" 55             ",
"  5    $678=~9_:",
"                ",
"  .0@a $b&c^de  ",
"  .f@g $h7i^je  ",
"                ",
"                ",
"                "};
