/* XPM */
static char * editcopy_xpm[] = {
"16 16 97 2",
"  	c None",
". 	c #C5C5DA",
"+ 	c #D6D6E6",
"@ 	c #D5D5E4",
"# 	c #D1D1E2",
"$ 	c #CFCFE1",
"% 	c #D1D1E4",
"& 	c #A6A6C2",
"* 	c #CECEDE",
"= 	c #FEFEFE",
"- 	c #F9F9FE",
"; 	c #EDEDF7",
"> 	c #D7D7E7",
", 	c #FCFCFE",
"' 	c #F3F3FD",
") 	c #B2B2CC",
"! 	c #9292B1",
"~ 	c #8282A3",
"{ 	c #FDFDFE",
"] 	c #F0F0F9",
"^ 	c #E0E0F0",
"/ 	c #C8C8DC",
"( 	c #ABABC5",
"_ 	c #79799C",
": 	c #F3F3FC",
"< 	c #D2D2E6",
"[ 	c #BFBFD6",
"} 	c #B9B9D0",
"| 	c #B2B2CA",
"1 	c #C3C3D8",
"2 	c #B6B6CE",
"3 	c #F3F3FE",
"4 	c #E2E2F0",
"5 	c #C6C6DA",
"6 	c #F1F1F8",
"7 	c #E6E6F3",
"8 	c #E1E1F0",
"9 	c #ABABC6",
"0 	c #F6F6FE",
"a 	c #E9E9F6",
"b 	c #E4E4F3",
"c 	c #C9C9DD",
"d 	c #F8F8FC",
"e 	c #F1F1FC",
"f 	c #DCDCEC",
"g 	c #9E9EB9",
"h 	c #8787A8",
"i 	c #78789B",
"j 	c #EDEDF8",
"k 	c #ECECF7",
"l 	c #CACADE",
"m 	c #F7F7FC",
"n 	c #F5F5FD",
"o 	c #E2E2F1",
"p 	c #B7B7CE",
"q 	c #F7F7FE",
"r 	c #EEEEF8",
"s 	c #CECEE1",
"t 	c #8686A8",
"u 	c #D0D0E0",
"v 	c #F0F0FC",
"w 	c #CCCCE0",
"x 	c #DDDDEC",
"y 	c #8787A9",
"z 	c #C3C3D7",
"A 	c #F1F1F9",
"B 	c #E4E4F1",
"C 	c #E0E0EE",
"D 	c #DDDDED",
"E 	c #C6C6DC",
"F 	c #F8F8FD",
"G 	c #DCDCED",
"H 	c #D7D7E9",
"I 	c #DADAEC",
"J 	c #8B8BA9",
"K 	c #7C7C9E",
"L 	c #737397",
"M 	c #A0A0BC",
"N 	c #E8E8F5",
"O 	c #DEDEEE",
"P 	c #8B8BAA",
"Q 	c #B8B8CF",
"R 	c #E7E7F5",
"S 	c #E2E2F3",
"T 	c #C0C0D7",
"U 	c #F9F9FD",
"V 	c #F8F8FE",
"W 	c #C2C2D7",
"X 	c #E8E8F7",
"Y 	c #8C8CAB",
"Z 	c #8D8DAB",
"` 	c #9B9BB7",
" .	c #9A9AB6",
"..	c #9797B6",
"+.	c #9696B3",
"@.	c #9797B3",
"#.	c #8080A2",
". + @ # $ % &                   ",
"* = = = - ; > &                 ",
"* = = = , ' ) ! ~               ",
"* = = = { ] ^ / ( _             ",
"* = = = = : < [ } | / 1 2       ",
"* = = = 3 4 5 6 = = 3 7 8 9     ",
"* = = 0 a b c d = = = e f g h i ",
"* = { ] j k l m = = = n o p 9 ~ ",
"* = q e r k l m = = = q a s 5 t ",
"u = q n : v w m = = = j x w $ y ",
"z A B 4 C D E F = = e o G H I J ",
"K K K K K L M = = 0 ; N b O ^ P ",
"            Q , = : ] a R 8 S P ",
"            T U V ' ] k R 8 S P ",
"            W - { - q e j R X Y ",
"            Z ` ` `  .....+.@.#."};
