/* XPM */
static char * editcut_xpm[] = {
"16 16 90 1",
" 	c None",
".	c #C9C9D8",
"+	c #C8C8D6",
"@	c #E6E6ED",
"#	c #D5D5DE",
"$	c #DBDBE3",
"%	c #AEAEC2",
"&	c #D6D6E2",
"*	c #C3C3D1",
"=	c #CECEDB",
"-	c #9B9BB1",
";	c #FDFDFE",
">	c #C5C5D5",
",	c #AFAFC3",
"'	c #BEBECC",
")	c #9090A9",
"!	c #F3F3F8",
"~	c #CCCCDA",
"{	c #9A9AB5",
"]	c #9C9CB2",
"^	c #82829E",
"/	c #E1E1E8",
"(	c #A7A7BC",
"_	c #676586",
":	c #8B8BA6",
"<	c #C6C6D6",
"[	c #8182A0",
"}	c #D3870B",
"|	c #EEB50F",
"1	c #F2C312",
"2	c #DB8F10",
"3	c #857C7F",
"4	c #8F92B8",
"5	c #575B86",
"6	c #DD8706",
"7	c #E6960A",
"8	c #E3930D",
"9	c #F8B710",
"0	c #FED113",
"a	c #F9CF16",
"b	c #BEB145",
"c	c #846452",
"d	c #B15E05",
"e	c #DB7B03",
"f	c #FED010",
"g	c #FEEC16",
"h	c #F3BC11",
"i	c #FBC20F",
"j	c #F5AC0D",
"k	c #E8A20F",
"l	c #D36900",
"m	c #B85C03",
"n	c #CA780B",
"o	c #FEBE0C",
"p	c #CE830D",
"q	c #E4A70F",
"r	c #FEED13",
"s	c #FECE13",
"t	c #FED313",
"u	c #F0B510",
"v	c #B55501",
"w	c #F27600",
"x	c #A95603",
"y	c #C06A04",
"z	c #E78D06",
"A	c #BC6D0B",
"B	c #E9A30C",
"C	c #F2AF0D",
"D	c #F8B00D",
"E	c #CA7F0C",
"F	c #B15202",
"G	c #DA6E00",
"H	c #C26A03",
"I	c #E08C09",
"J	c #D58209",
"K	c #CE810A",
"L	c #D08509",
"M	c #C46D06",
"N	c #DC7D03",
"O	c #D87B04",
"P	c #BF6B06",
"Q	c #8B440A",
"R	c #EB7900",
"S	c #C56301",
"T	c #C86501",
"U	c #E87600",
"V	c #853F08",
"W	c #D16400",
"X	c #C96100",
"Y	c #843E08",
"         .      ",
"        +@      ",
"        #$   %& ",
"        *=  -;> ",
"        ,' )!~  ",
"        {]^/(   ",
"        _:<[    ",
"   }|12 345     ",
"  67890abc      ",
" de   fghijk    ",
" lm  nopqrstu   ",
" vwxyzA BC  DE  ",
"  FGH   IJ  KL  ",
"        MN  OP  ",
"        QRSTU   ",
"         VWXY   "};
