/* XPM */
static char * undo_xpm[] = {
"16 16 69 1",
" 	c None",
".	c #0D9C01",
"+	c #069700",
"@	c #018B01",
"#	c #4EC44E",
"$	c #25AB25",
"%	c #007B00",
"&	c #28B728",
"*	c #8BFE8B",
"=	c #70F072",
"-	c #0B950B",
";	c #0CA20C",
">	c #3FF83F",
",	c #44FE44",
"'	c #46FE46",
")	c #2FE32F",
"!	c #038403",
"~	c #009000",
"{	c #09F509",
"]	c #0DFE0D",
"^	c #0BFE0B",
"/	c #0EFE0E",
"(	c #04D604",
"_	c #007500",
":	c #006600",
"<	c #008300",
"[	c #009700",
"}	c #00BC00",
"|	c #00FD00",
"1	c #00F000",
"2	c #00AE00",
"3	c #009600",
"4	c #008000",
"5	c #00E600",
"6	c #00E800",
"7	c #008F00",
"8	c #005700",
"9	c #005F00",
"0	c #006400",
"a	c #00C200",
"b	c #00E200",
"c	c #00C000",
"d	c #006700",
"e	c #005600",
"f	c #008600",
"g	c #00D000",
"h	c #00A900",
"i	c #006900",
"j	c #004D00",
"k	c #005500",
"l	c #005C00",
"m	c #004C00",
"n	c #004B00",
"o	c #00C300",
"p	c #00B200",
"q	c #009100",
"r	c #008700",
"s	c #008200",
"t	c #004F00",
"u	c #00A600",
"v	c #00B900",
"w	c #00AC00",
"x	c #005900",
"y	c #004700",
"z	c #005100",
"A	c #006000",
"B	c #005D00",
"C	c #004E00",
"D	c #004600",
"                ",
"                ",
"    .+          ",
"   @#$          ",
"  %&*=-         ",
"  ;>,')!        ",
" ~{]^^/(_       ",
":<[}|123_:      ",
"   45678       9",
"   0abcd      e8",
"    fgghij  klm ",
"    n[oapqr7se  ",
"     t4upvw<x   ",
"      yzABCD    ",
"                ",
"                "};
