/* XPM */
static char * editpaste_xpm[] = {
"16 16 157 2",
"  	c None",
". 	c #81829B",
"+ 	c #9C9CAF",
"@ 	c #8989A1",
"# 	c #7A7B96",
"$ 	c #E2E3EB",
"% 	c #FEFEFE",
"& 	c #EBEBEE",
"* 	c #8385A1",
"= 	c #86674E",
"- 	c #CA8526",
"; 	c #EEC959",
"> 	c #95886C",
", 	c #B0B0C5",
"' 	c #ECECF3",
") 	c #E0E0E9",
"! 	c #E1E1E9",
"~ 	c #E8E8F0",
"{ 	c #C2C3D5",
"] 	c #888177",
"^ 	c #E7C55A",
"/ 	c #D0912C",
"( 	c #CEA03C",
"_ 	c #FFFFFF",
": 	c #A9A873",
"< 	c #8C8DA0",
"[ 	c #9292A6",
"} 	c #9292A3",
"| 	c #9393A2",
"1 	c #96969B",
"2 	c #93939E",
"3 	c #9A9970",
"4 	c #FEFE73",
"5 	c #DCAF39",
"6 	c #C3983A",
"7 	c #ECE168",
"8 	c #C3BB64",
"9 	c #BFB663",
"0 	c #C2B860",
"a 	c #BBB36E",
"b 	c #9FA0A9",
"c 	c #9F9FA8",
"d 	c #C3C0AC",
"e 	c #DCD8B0",
"f 	c #CCBC9C",
"g 	c #BDB9CC",
"h 	c #B58935",
"i 	c #FBE85F",
"j 	c #FEF05F",
"k 	c #FEF159",
"l 	c #F2E670",
"m 	c #DEDEED",
"n 	c #F8F9FE",
"o 	c #EDEDFE",
"p 	c #E4E8FD",
"q 	c #E1E2F1",
"r 	c #B9B9CC",
"s 	c #8F8FAA",
"t 	c #A87D2F",
"u 	c #F5DB53",
"v 	c #F5DB54",
"w 	c #F5DC54",
"x 	c #F7DD4E",
"y 	c #E8D365",
"z 	c #DBDBE8",
"A 	c #ACACC3",
"B 	c #9696B1",
"C 	c #8686A4",
"D 	c #9C732B",
"E 	c #F2D349",
"F 	c #F1D249",
"G 	c #F1D148",
"H 	c #F3D142",
"I 	c #E4CB5B",
"J 	c #FBFBFE",
"K 	c #F2F2F9",
"L 	c #E4E4F0",
"M 	c #C0C0D2",
"N 	c #B2B2C8",
"O 	c #9292AE",
"P 	c #9A6E28",
"Q 	c #EEC53C",
"R 	c #EEB837",
"S 	c #EEAF33",
"T 	c #F1AB2B",
"U 	c #E3AC47",
"V 	c #F5F5FC",
"W 	c #E8E8F2",
"X 	c #D1D1E1",
"Y 	c #C8C8D8",
"Z 	c #9898B2",
"` 	c #996B24",
" .	c #EBA72A",
"..	c #EBA028",
"+.	c #EBA128",
"@.	c #ED9F21",
"#.	c #E0A33E",
"$.	c #EEEEF7",
"%.	c #DDDDEB",
"&.	c #CFCFE0",
"*.	c #CFCFDE",
"=.	c #9999B3",
"-.	c #98651E",
";.	c #E7971E",
">.	c #E7981F",
",.	c #E89618",
"'.	c #DD9B37",
").	c #DBDCE8",
"!.	c #F1F1F8",
"~.	c #E4E4EE",
"{.	c #DCDCE9",
"].	c #D8D8E7",
"^.	c #9B9BB6",
"/.	c #975A18",
"(.	c #E48F16",
"_.	c #E68D10",
":.	c #DB932F",
"<.	c #DBDCE9",
"[.	c #EBEBF3",
"}.	c #E7E7F1",
"|.	c #E3E3EE",
"1.	c #9C9CB6",
"2.	c #975513",
"3.	c #E6880E",
"4.	c #E78508",
"5.	c #DC8E26",
"6.	c #ECECF5",
"7.	c #E1E1EC",
"8.	c #E0E0EC",
"9.	c #9C9CB7",
"0.	c #7C4313",
"a.	c #CA700A",
"b.	c #CC720A",
"c.	c #CB720A",
"d.	c #CB6D04",
"e.	c #C67B22",
"f.	c #DCDDE9",
"g.	c #EDEDF6",
"h.	c #E9E9F3",
"i.	c #6C3914",
"j.	c #7B4013",
"k.	c #793F13",
"l.	c #76390B",
"m.	c #824D26",
"n.	c #DEE0EB",
"o.	c #F3F3F9",
"p.	c #EBEBF5",
"q.	c #E6E6F0",
"r.	c #9E9EB7",
"s.	c #9FA1BE",
"t.	c #A7A7BE",
"u.	c #A4A4BC",
"v.	c #A3A3BC",
"w.	c #A2A2BB",
"x.	c #A1A1BB",
"y.	c #A0A0B9",
"z.	c #8F8FAB",
"        . + + @                 ",
"      # $ % % & * =             ",
"- ; > , ' ) ! ~ { ] ^ /         ",
"( _ : < [ } | 1 2 3 4 5         ",
"6 _ 7 8 9 0 a b c d e f g       ",
"h _ i j j k l m % n o p q r s   ",
"t _ u v w x y z _ _ _ _ _ A B C ",
"D _ E F G H I z _ % J K L M N O ",
"P _ Q R S T U z _ % % V W X Y Z ",
"` _  ...+.@.#.z _ % J $.%.&.*.=.",
"-._ ;.>.>.,.'.)._ J !.~.{.].].^.",
"/._ (.(.(._.:.<._ V [.}.|.%.%.1.",
"2._ 3.3.3.4.5.<._ !.6.W L 7.8.9.",
"0.a.b.c.c.d.e.f._ $.g.h.L 7.8.9.",
"  i.j.k.k.l.m.n._ V o.$.p.q.L r.",
"              s.t.u.v.w.x.y.y.z."};
