/* XPM */
static char * redo_xpm[] = {
"16 16 75 1",
" 	c None",
".	c #089900",
"+	c #19A410",
"@	c #3DB62D",
"#	c #48BB37",
"$	c #22AA13",
"%	c #0A9A02",
"&	c #13A213",
"*	c #57D057",
"=	c #BDFEBE",
"-	c #E3FEE3",
";	c #DDFEDE",
">	c #C8FCC9",
",	c #5CCC5C",
"'	c #0A9809",
")	c #089608",
"!	c #41C341",
"~	c #5CD05C",
"{	c #50C950",
"]	c #58D358",
"^	c #77F777",
"/	c #87FE87",
"(	c #95FE95",
"_	c #52DB52",
":	c #038703",
"<	c #007900",
"[	c #088808",
"}	c #038303",
"|	c #007A00",
"1	c #0F970F",
"2	c #2FDC2F",
"3	c #42FE42",
"4	c #46FE46",
"5	c #18B918",
"6	c #006F00",
"7	c #007000",
"8	c #018401",
"9	c #0BE30B",
"0	c #0DFE0D",
"a	c #0AE80A",
"b	c #008100",
"c	c #006800",
"d	c #005E00",
"e	c #009C00",
"f	c #00F600",
"g	c #008C00",
"h	c #005D00",
"i	c #006A00",
"j	c #008800",
"k	c #00A100",
"l	c #00E100",
"m	c #00EE00",
"n	c #00AF00",
"o	c #008B00",
"p	c #007800",
"q	c #005B00",
"r	c #00B100",
"s	c #00D700",
"t	c #00D600",
"u	c #00E000",
"v	c #00CF00",
"w	c #007200",
"x	c #005600",
"y	c #00AE00",
"z	c #00CB00",
"A	c #00C400",
"B	c #005700",
"C	c #00AC00",
"D	c #00BD00",
"E	c #007500",
"F	c #004000",
"G	c #006100",
"H	c #007600",
"I	c #004400",
"J	c #004600",
"                ",
"                ",
"    .+@#$%      ",
"   &*=-;>,'     ",
"  )!~{]^/(_:    ",
" <[}  |12345    ",
"67      890ab   ",
"c       deffg   ",
"      hijklmnoph",
"       qrlstuvw ",
"        xyvzAw  ",
"         BCDEF  ",
"          GHI   ",
"          IJ    ",
"                ",
"                "};
