/* XPM */
static char * editdelete_xpm[] = {
"16 16 158 2",
"  	c None",
". 	c #C5CAD6",
"+ 	c #D5D8E2",
"@ 	c #D3D7E1",
"# 	c #D1D6E1",
"$ 	c #C9CEDA",
"% 	c #C4C8D5",
"& 	c #B0B6C6",
"* 	c #ACB1C4",
"= 	c #CCD0DC",
"- 	c #FEFEFE",
"; 	c #FDFDFD",
"> 	c #F5F7FB",
", 	c #F2F3FB",
"' 	c #CFD2DE",
") 	c #DBDDE7",
"! 	c #B8BDCE",
"~ 	c #F7F9FB",
"{ 	c #F3F5F9",
"] 	c #D1D5E0",
"^ 	c #F3F6FB",
"/ 	c #F8F8FB",
"( 	c #C3C8D6",
"_ 	c #FDFEFE",
": 	c #F8F9FB",
"< 	c #F9FBFD",
"[ 	c #B0B5C3",
"} 	c #BBBEC9",
"| 	c #C5C9D1",
"1 	c #BFC3CE",
"2 	c #9A9FB2",
"3 	c #F9FBFC",
"4 	c #FBFCFD",
"5 	c #C5C9D5",
"6 	c #B5BCCA",
"7 	c #AEB1C2",
"8 	c #9BA0B1",
"9 	c #A0A7B8",
"0 	c #6F7585",
"a 	c #F7F7F9",
"b 	c #F2F9FD",
"c 	c #ECF1F8",
"d 	c #D8E4F1",
"e 	c #C6CBD8",
"f 	c #CBD0DE",
"g 	c #6A6F7D",
"h 	c #FEFCFB",
"i 	c #FED5C8",
"j 	c #FED7CB",
"k 	c #FCFEFE",
"l 	c #F7FBFD",
"m 	c #F3FCFE",
"n 	c #E6D7DB",
"o 	c #EE7B6A",
"p 	c #DDA19F",
"q 	c #CBD5E3",
"r 	c #D1D6E3",
"s 	c #6D7280",
"t 	c #FEE0D5",
"u 	c #FE9C80",
"v 	c #FE9170",
"w 	c #FBB9A9",
"x 	c #ECF5FD",
"y 	c #EBD6D7",
"z 	c #F76851",
"A 	c #FE2509",
"B 	c #F74330",
"C 	c #D8CCD5",
"D 	c #DAE2F0",
"E 	c #6E7380",
"F 	c #FEF9F8",
"G 	c #FEBBA7",
"H 	c #FE7755",
"I 	c #FE6A48",
"J 	c #F7856E",
"K 	c #F9614A",
"L 	c #FE240B",
"M 	c #F93E2B",
"N 	c #E6AFB1",
"O 	c #DBE0EC",
"P 	c #E0E3EE",
"Q 	c #6E7381",
"R 	c #CCD1DC",
"S 	c #F6FBFC",
"T 	c #F8B1A0",
"U 	c #FD5938",
"V 	c #FE3F21",
"W 	c #FE2910",
"X 	c #F94E3B",
"Y 	c #E7CCD0",
"Z 	c #E1EDF8",
"` 	c #DEE1EC",
" .	c #E3E7F2",
"..	c #6F7482",
"+.	c #CED1DC",
"@.	c #F2F8FC",
"#.	c #F3FDFE",
"$.	c #F7B3A8",
"%.	c #FE3E22",
"&.	c #FE240C",
"*.	c #FE1704",
"=.	c #F93328",
"-.	c #E8CAD1",
";.	c #E2F3FD",
">.	c #E1E2EC",
",.	c #E6E8F2",
"'.	c #6F7481",
").	c #F3F3F6",
"!.	c #F9A091",
"~.	c #FE3C20",
"{.	c #FE2913",
"].	c #FB5644",
"^.	c #FC2217",
"/.	c #FE0000",
"(.	c #FB1616",
"_.	c #E9A9B0",
":.	c #E1EBF6",
"<.	c #E7E9F3",
"[.	c #F7B7AE",
"}.	c #FE3519",
"|.	c #F88276",
"1.	c #EEF7FD",
"2.	c #F1AFB1",
"3.	c #FD0E0F",
"4.	c #F91C1D",
"5.	c #E3D5DE",
"6.	c #E6EEF9",
"7.	c #F3EDF0",
"8.	c #F87767",
"9.	c #F7938B",
"0.	c #F1F7FC",
"a.	c #EDF6FC",
"b.	c #ECFCFE",
"c.	c #EDB9C0",
"d.	c #F72F30",
"e.	c #EC969A",
"f.	c #E1E2ED",
"g.	c #E6E9F5",
"h.	c #F9FBFE",
"i.	c #F8FBFE",
"j.	c #F5FDFE",
"k.	c #F1FEFE",
"l.	c #EDF9FD",
"m.	c #ECEEF7",
"n.	c #F0F2FC",
"o.	c #707582",
"p.	c #BDC2CE",
"q.	c #848791",
"r.	c #868995",
"s.	c #858993",
"t.	c #858893",
"u.	c #848793",
"v.	c #838792",
"w.	c #838793",
"x.	c #828692",
"y.	c #828591",
"z.	c #838693",
"A.	c #646775",
". + @ @ @ # $ % & *             ",
"= - - - - ; > , ' ) !           ",
"= - - - - - ~ { ] ^ / (         ",
"= - - - - _ : < [ } | 1 2       ",
"= - - - - _ 3 4 5 6 7 8 9 0     ",
"= - - - - - 4 a b c d e f g     ",
"= - h i j k l m n o p q r s     ",
"= - t u v w x y z A B C D E     ",
"= - F G H I J K L M N O P Q     ",
"R - S ~ T U V W X Y Z `  ...    ",
"+.- @.#.$.%.&.*.=.-.;.>.,.'.    ",
"R - ).!.~.{.].^./.(._.:.<...    ",
"R - [.}.&.|.1.2.3./.4.5.6...    ",
"+.- 7.8.9.0.a.b.c.d.e.f.g.'.    ",
"= - - - _ k h.i.j.k.l.m.n.o.    ",
"p.q.r.r.s.r.t.u.v.w.x.y.z.A.    "};
