/* XPM */
static char * konsole_xpm[] = {
"16 16 140 2",
"  	c None",
". 	c #C6C6C6",
"+ 	c #C8C8C8",
"@ 	c #C5C5C5",
"# 	c #C4C4C4",
"$ 	c #CBCBCB",
"% 	c #A3A3A3",
"& 	c #D0D0D0",
"* 	c #F4F4F4",
"= 	c #DADADA",
"- 	c #E3E2E2",
"; 	c #E6E6E6",
"> 	c #E9E9E9",
", 	c #E8E8E8",
"' 	c #E4E4E4",
") 	c #D7D7D7",
"! 	c #FFFFFF",
"~ 	c #6A6A6A",
"{ 	c #E4E3E3",
"] 	c #BABABA",
"^ 	c #A7B1B1",
"/ 	c #B5BDBD",
"( 	c #8F9090",
"_ 	c #838383",
": 	c #848484",
"< 	c #818181",
"[ 	c #676767",
"} 	c #F7F7F7",
"| 	c #747474",
"1 	c #BDBDBD",
"2 	c #828888",
"3 	c #E0F0F0",
"4 	c #CBD8D8",
"5 	c #626262",
"6 	c #605F5F",
"7 	c #616161",
"8 	c #606060",
"9 	c #6F6F6F",
"0 	c #EDEDED",
"a 	c #707070",
"b 	c #97A1A1",
"c 	c #8F9797",
"d 	c #555757",
"e 	c #383737",
"f 	c #393838",
"g 	c #3D3C3C",
"h 	c #404040",
"i 	c #3F3F3F",
"j 	c #3A3A3A",
"k 	c #414141",
"l 	c #E2E2E2",
"m 	c #EBEBEB",
"n 	c #B6B6B6",
"o 	c #050606",
"p 	c #0E0D0D",
"q 	c #242323",
"r 	c #717777",
"s 	c #848C8C",
"t 	c #606565",
"u 	c #282828",
"v 	c #272727",
"w 	c #232323",
"x 	c #1F1F1F",
"y 	c #090909",
"z 	c #EEEEEE",
"A 	c #B7B7B7",
"B 	c #010101",
"C 	c #0B0B0B",
"D 	c #1A1A1A",
"E 	c #333535",
"F 	c #3B3D3D",
"G 	c #323333",
"H 	c #222222",
"I 	c #181818",
"J 	c #0F0F0F",
"K 	c #000000",
"L 	c #242424",
"M 	c #DFDFDF",
"N 	c #BBBBBB",
"O 	c #121212",
"P 	c #1D1D1D",
"Q 	c #2A2A2A",
"R 	c #2E2E2E",
"S 	c #303030",
"T 	c #313131",
"U 	c #2C2C2C",
"V 	c #252525",
"W 	c #0C0C0C",
"X 	c #DBDBDB",
"Y 	c #F0F0F0",
"Z 	c #191919",
"` 	c #262626",
" .	c #333333",
"..	c #3B3B3B",
"+.	c #393939",
"@.	c #131313",
"#.	c #2F2F2F",
"$.	c #D8D8D8",
"%.	c #F1F1F1",
"&.	c #464646",
"*.	c #545454",
"=.	c #5C5C5C",
"-.	c #646464",
";.	c #5B5B5B",
">.	c #515151",
",.	c #343434",
"'.	c #4A4A4A",
").	c #737373",
"!.	c #DEDEDE",
"~.	c #F3F3F3",
"{.	c #E3E3E3",
"].	c #E1E1E1",
"^.	c #DDDDDD",
"/.	c #D9D9D9",
"(.	c #D6D6D6",
"_.	c #D4D4D4",
":.	c #D2D2D2",
"<.	c #6B6B6B",
"[.	c #ADADAD",
"}.	c #9E9E9E",
"|.	c #D1D1D1",
"1.	c #CECECE",
"2.	c #CDCDCD",
"3.	c #949494",
"4.	c #8F8F8F",
"5.	c #999999",
"6.	c #878787",
"7.	c #666666",
"8.	c #C2C2C2",
"9.	c #AFAFAF",
"0.	c #ECECEC",
"a.	c #E7E7E7",
"b.	c #E5E5E5",
"c.	c #ABABAB",
"d.	c #EAEAEA",
"e.	c #7C7C7C",
"f.	c #868686",
"g.	c #909090",
"h.	c #7E7E7E",
"i.	c #575757",
"  . + . . . . . . . . @ # $ %   ",
"& * = - ; > > > > > , , ' ) ! ~ ",
"{ ] ^ / ( _ : : : : : : < [ } | ",
"' 1 2 3 4 5 6 7 5 5 5 5 8 9 0 a ",
"; 1 b c d e f g h h i h j k l a ",
"m n o p q r s t u v w x y w l a ",
"z A B C D E F G H x I J K L M a ",
"z N O P v Q R S T U V P W Q X a ",
"Y 1 Z `  ...h k i +.T ` @.#.$.a ",
"%.@ ..&.*.=.5 -.7 ;.>.&.,.'.) ).",
"!.! } ~.0 ; {.].^./.(.) _.:.^.<.",
"  [.[.}.A X (.|.1.2.N 3.4.5.6.  ",
"      7.8.X l {.l /.& 9.        ",
"      ! ! 0.a.> b.(.a.! X       ",
"      c.d.~.z > > z %.].e.      ",
"          7.f.g.4.h.i.          "};
