/* XPM */
static char * reload_xpm[] = {
"16 16 96 2",
"  	c None",
". 	c #A64806",
"+ 	c #BA6C25",
"@ 	c #E4B976",
"# 	c #CB8748",
"$ 	c #BD6D16",
"% 	c #E9B43D",
"& 	c #FFD351",
"* 	c #FFD971",
"= 	c #E7B375",
"- 	c #BF723F",
"; 	c #C27417",
"> 	c #FFD540",
", 	c #FFCD3A",
"' 	c #FFBC3B",
") 	c #FFC555",
"! 	c #FFC572",
"~ 	c #EDAE77",
"{ 	c #B25A20",
"] 	c #BA6812",
"^ 	c #FAC43A",
"/ 	c #FFBE37",
"( 	c #DA891C",
"_ 	c #F49924",
": 	c #FFA847",
"< 	c #F7A66A",
"[ 	c #AC5014",
"} 	c #BC6A12",
"| 	c #F0B131",
"1 	c #9E3F00",
"2 	c #A54905",
"3 	c #E98A1D",
"4 	c #FF9D41",
"5 	c #E0803C",
"6 	c #B4550C",
"7 	c #DEA65F",
"8 	c #C58147",
"9 	c #A84D06",
"0 	c #A84C04",
"a 	c #F79025",
"b 	c #FD882E",
"c 	c #AE4907",
"d 	c #C55E09",
"e 	c #FFD06B",
"f 	c #D49A63",
"g 	c #D77819",
"h 	c #FF8C24",
"i 	c #C5570B",
"j 	c #BE5807",
"k 	c #FFB851",
"l 	c #DC9956",
"m 	c #CC6F15",
"n 	c #FF9428",
"o 	c #CF5E0F",
"p 	c #A94701",
"q 	c #FC9C33",
"r 	c #F8B565",
"s 	c #A74A08",
"t 	c #A03C00",
"u 	c #C66813",
"v 	c #EF8220",
"w 	c #C3560B",
"x 	c #DE7717",
"y 	c #FFB352",
"z 	c #E19148",
"A 	c #D8975C",
"B 	c #B45F22",
"C 	c #AE4C05",
"D 	c #F99026",
"E 	c #FFAC52",
"F 	c #E6954E",
"G 	c #C26E30",
"H 	c #F8C692",
"I 	c #F6CB99",
"J 	c #B3602A",
"K 	c #B75508",
"L 	c #F48921",
"M 	c #FFA13D",
"N 	c #FFAF5C",
"O 	c #FFAA57",
"P 	c #FFA23B",
"Q 	c #F9BA75",
"R 	c #BB6B33",
"S 	c #A84503",
"T 	c #CD6710",
"U 	c #EC7E1A",
"V 	c #FF8E23",
"W 	c #FF8E21",
"X 	c #FA8D26",
"Y 	c #D07B37",
"Z 	c #C55F0F",
"` 	c #F48922",
" .	c #CF6411",
"..	c #AA4501",
"+.	c #AD4904",
"@.	c #A74403",
"                  .             ",
"              + @ #             ",
"          $ % & * = -           ",
"          ; > , ' ) ! ~ {       ",
"            ] ^ / ( _ : < [     ",
"              } | 1 2 3 4 5     ",
"  6 7 8         9     0 a b c   ",
"  d e f                 g h i   ",
"  j k l                 m n o   ",
"  p q r s     t         u v w   ",
"    x y z     A B               ",
"    C D E F G H I J             ",
"      K L M N O P Q R           ",
"        S T U V W X Y           ",
"            Z `  ...            ",
"            +.@.                "};
