/* XPM */
static char * windows_list_xpm[] = {
"16 16 197 2",
"  	c None",
". 	c #253974",
"+ 	c #5D70AC",
"@ 	c #576AA6",
"# 	c #5166A4",
"$ 	c #4C62A1",
"% 	c #485EA0",
"& 	c #445A9D",
"* 	c #3E569B",
"= 	c #395199",
"- 	c #344E97",
"; 	c #2F4A95",
"> 	c #2B4797",
", 	c #0C2153",
"' 	c #52618F",
") 	c #C7C8E5",
"! 	c #B6BADA",
"~ 	c #ACB2D6",
"{ 	c #A4ABD1",
"] 	c #9BA4CF",
"^ 	c #939DCC",
"/ 	c #8A95C7",
"( 	c #828EC4",
"_ 	c #7888BF",
": 	c #7181BC",
"< 	c #6A7DBE",
"[ 	c #233668",
"} 	c #5F6E92",
"| 	c #EFEEF3",
"1 	c #EDECF2",
"2 	c #ECECF1",
"3 	c #ECECF2",
"4 	c #EAEAF0",
"5 	c #E7E7ED",
"6 	c #E8E9F0",
"7 	c #EAEAF1",
"8 	c #F2F2F9",
"9 	c #5C6782",
"0 	c #616F92",
"a 	c #FEFEFE",
"b 	c #FFFFFF",
"c 	c #F5F5F4",
"d 	c #D6D6D5",
"e 	c #F9F8F8",
"f 	c #D4D4D3",
"g 	c #E8E7E9",
"h 	c #FBFBFE",
"i 	c #FFFEFF",
"j 	c #5D667D",
"k 	c #FCFCFD",
"l 	c #FDFDFD",
"m 	c #D9D9D9",
"n 	c #CFCFCF",
"o 	c #D6D6D7",
"p 	c #CFCFD1",
"q 	c #F2F2F6",
"r 	c #F4F4F9",
"s 	c #F7F6F9",
"t 	c #68769D",
"u 	c #203B87",
"v 	c #264496",
"w 	c #F8F8F8",
"x 	c #DEDEDD",
"y 	c #E6E6E6",
"z 	c #CBCBCB",
"A 	c #C4C4C5",
"B 	c #DFDFE3",
"C 	c #F2F2F7",
"D 	c #F0F0F6",
"E 	c #F2F1F6",
"F 	c #7985AC",
"G 	c #5F72B3",
"H 	c #6075B9",
"I 	c #172852",
"J 	c #FDFCFD",
"K 	c #DBDBDB",
"L 	c #DFDFDF",
"M 	c #F1F1F2",
"N 	c #CBCBCD",
"O 	c #D5D5D7",
"P 	c #C6C6C9",
"Q 	c #D9D9DE",
"R 	c #EFEFF6",
"S 	c #959DB6",
"T 	c #DBDDE8",
"U 	c #ECEDF8",
"V 	c #414963",
"W 	c #626F94",
"X 	c #FEFEFF",
"Y 	c #FAFAFA",
"Z 	c #DDDDDE",
"` 	c #E2E2E4",
" .	c #CECED0",
"..	c #DFDFE2",
"+.	c #C3C3C7",
"@.	c #DADAE0",
"#.	c #EDEDF5",
"$.	c #E7E7F0",
"%.	c #99A0B7",
"&.	c #EDEFF4",
"*.	c #FAFBFF",
"=.	c #424B63",
"-.	c #637196",
";.	c #F9F9F9",
">.	c #D2D2D4",
",.	c #D4D4D6",
"'.	c #CECED1",
").	c #CECED2",
"!.	c #D2D2D7",
"~.	c #E9E9F1",
"{.	c #E8E8F1",
"].	c #E5E5EF",
"^.	c #979EB4",
"/.	c #E7E8F0",
"(.	c #F5F5FD",
"_.	c #414961",
":.	c #687599",
"<.	c #FAF9FA",
"[.	c #F4F3F6",
"}.	c #F1F0F5",
"|.	c #EEEEF4",
"1.	c #EFEEF6",
"2.	c #EBEBF4",
"3.	c #E9E9F3",
"4.	c #979DB3",
"5.	c #E3E4ED",
"6.	c #F2F3FB",
"7.	c #3F465E",
"8.	c #50618A",
"9.	c #D8DEF0",
"0.	c #D6DCED",
"a.	c #CED3E4",
"b.	c #C8CDDF",
"c.	c #C5CADD",
"d.	c #C1C6D9",
"e.	c #C0C4D7",
"f.	c #BEC2D5",
"g.	c #BCC0D2",
"h.	c #BCBFD0",
"i.	c #B6B9C9",
"j.	c #8890A7",
"k.	c #EFF0F9",
"l.	c #3C455B",
"m.	c #0C1736",
"n.	c #0A1634",
"o.	c #596B9B",
"p.	c #A8B3D0",
"q.	c #A7B3CF",
"r.	c #A8B2CE",
"s.	c #A4AFC9",
"t.	c #A2ABC5",
"u.	c #A0A8C1",
"v.	c #9EA5BC",
"w.	c #999FB5",
"x.	c #C3C7D5",
"y.	c #F0F0F7",
"z.	c #EBECF6",
"A.	c #3C4459",
"B.	c #848FAF",
"C.	c #FEFDFF",
"D.	c #FBFAFE",
"E.	c #F8F7FC",
"F.	c #E8E8F2",
"G.	c #E9EAF5",
"H.	c #3C4258",
"I.	c #8791B2",
"J.	c #FBFBFD",
"K.	c #F8F8FB",
"L.	c #F5F5FA",
"M.	c #F2F2F8",
"N.	c #ECECF4",
"O.	c #EAEAF4",
"P.	c #ECECF7",
"Q.	c #3F4557",
"R.	c #7886AB",
"S.	c #F3F6FF",
"T.	c #EDF0FA",
"U.	c #EAEDF8",
"V.	c #E7EAF6",
"W.	c #E5E8F4",
"X.	c #E2E4F2",
"Y.	c #DFE1EF",
"Z.	c #DDDFED",
"`.	c #DBDDEB",
" +	c #DCDDEA",
".+	c #D9DCEB",
"++	c #34394E",
"@+	c #1F2B47",
"#+	c #1E2845",
"$+	c #1C2844",
"%+	c #1C2744",
"&+	c #1B2540",
"*+	c #19233D",
"=+	c #192339",
"-+	c #192238",
";+	c #192234",
">+	c #171F32",
". + @ # $ % & * = - ; > ,       ",
"' ) ! ~ { ] ^ / ( _ : < [       ",
"} | 1 2 3 4 5 2 4 6 7 8 9       ",
"0 a b b b c d e f g h i j       ",
"0 k b l m m n o p q r s t u v   ",
"0 k b w x y z A B C D E F G H I ",
"0 J b K L M N O P Q R 7 S T U V ",
"W X b Y Z `  ...+.@.#.$.%.&.*.=.",
"-.b b ;.>.,.'.).!.~.{.].^./.(._.",
":.b b b <.[.O }.|.1.2.3.4.5.6.7.",
"8.9.0.a.b.c.d.e.f.g.h.i.j.$.k.l.",
"  m.n.o.p.q.r.s.t.u.v.w.x.y.z.A.",
"      B.b b b b b C.D.E.y.F.G.H.",
"      I.b b b J.K.L.M.R N.O.P.Q.",
"      R.S.T.U.V.W.X.Y.Z.`. +.+++",
"        @+#+$+%+%+&+*+=+-+;+>+  "};
