/* XPM */
static char * info_xpm[] = {
"16 16 117 2",
"  	c None",
". 	c #235AB8",
"+ 	c #2155B4",
"@ 	c #1B57BA",
"# 	c #1952B6",
"$ 	c #1A45A7",
"% 	c #183FA2",
"& 	c #2560BC",
"* 	c #1D64C6",
"= 	c #669FE3",
"- 	c #A9D2FA",
"; 	c #B7DDFF",
"> 	c #B8D8F9",
", 	c #729CDB",
"' 	c #1F4BAE",
") 	c #122F96",
"! 	c #2561BD",
"~ 	c #3A85DD",
"{ 	c #C0E1FF",
"] 	c #DDEEFF",
"^ 	c #ECF6FF",
"/ 	c #F9FCFF",
"( 	c #E2EBF7",
"_ 	c #CEE7FF",
": 	c #4B78C9",
"< 	c #0E258E",
"[ 	c #3582DD",
"} 	c #B3DBFF",
"| 	c #F7FBFF",
"1 	c #FFFFFF",
"2 	c #7292C6",
"3 	c #4C73C5",
"4 	c #0A1B86",
"5 	c #1D66C7",
"6 	c #8CC8FF",
"7 	c #A2D2FF",
"8 	c #E1E5EF",
"9 	c #95A3C6",
"0 	c #719DD6",
"a 	c #97CCFF",
"b 	c #102F9A",
"c 	c #245DBA",
"d 	c #3D8CE5",
"e 	c #82C2FF",
"f 	c #83B7EF",
"g 	c #94BFEF",
"h 	c #7BBFFF",
"i 	c #5DB1FF",
"j 	c #256ACF",
"k 	c #050C7C",
"l 	c #2259B7",
"m 	c #45A1FA",
"n 	c #62B2FF",
"o 	c #B3D4F7",
"p 	c #3D78C6",
"q 	c #57AEFF",
"r 	c #2898FF",
"s 	c #0086FF",
"t 	c #007EF7",
"u 	c #030777",
"v 	c #1D5BBD",
"w 	c #309BFF",
"x 	c #40A2FF",
"y 	c #ABD6FF",
"z 	c #0F5BB6",
"A 	c #011385",
"B 	c #178FFF",
"C 	c #1F92FF",
"D 	c #8FC8FF",
"E 	c #0452A9",
"F 	c #001184",
"G 	c #1D4BAC",
"H 	c #0480FA",
"I 	c #0385FF",
"J 	c #0384FF",
"K 	c #81C1FF",
"L 	c #034B9B",
"M 	c #0083FF",
"N 	c #007AF6",
"O 	c #000072",
"P 	c #1B46A8",
"Q 	c #0A69DD",
"R 	c #0080FF",
"S 	c #80BFFF",
"T 	c #02458F",
"U 	c #0050CA",
"V 	c #1449B2",
"W 	c #0F85FF",
"X 	c #95CAFF",
"Y 	c #185595",
"Z 	c #02188C",
"` 	c #15379D",
" .	c #1A61CC",
"..	c #2490FF",
"+.	c #77BAFF",
"@.	c #C1C6D2",
"#.	c #C1C4CC",
"$.	c #C0C3C9",
"%.	c #C0C3CA",
"&.	c #1760B2",
"*.	c #1148B9",
"=.	c #112D95",
"-.	c #2260C7",
";.	c #399BFF",
">.	c #1A4CB9",
",.	c #0D228D",
"'.	c #17369F",
").	c #326FD1",
"!.	c #499CF7",
"~.	c #4EA5FF",
"{.	c #489BF6",
"].	c #2E66CA",
"^.	c #0D1E8C",
"/.	c #081481",
"(.	c #050D7C",
"_.	c #0E1C89",
":.	c #0C1785",
"          . + @ # $ %           ",
"      & * = - ; ; > , ' )       ",
"    ! ~ { ] ^ / ( ] ] _ : <     ",
"  ! [ } { { | 1 1 2 { { { 3 4   ",
"  5 6 7 7 7 _ 8 9 0 7 7 7 a b   ",
"c d e e e e e f g e e e h i j k ",
"l m n n n o 1 1 1 p q r s s t u ",
"v w x x x x y 1 1 z s s s s s A ",
"@ B C C C C D 1 1 E s s s s s F ",
"G H I I J J K 1 1 L M M M M N O ",
"P Q R R R R S 1 1 T R R R R U O ",
"  V W W W W X 1 1 Y W W W W Z   ",
"  `  .....+.@.#.$.%.&.....*.O   ",
"    =.-.;.;.;.;.;.;.;.;.>.O     ",
"      ,.'.).!.~.~.{.].^.O       ",
"          /.(._.:.O O           "};
