/* XPM */
static char * yast_powertweak_xpm[] = {
"16 16 63 1",
" 	c None",
".	c #CECECE",
"+	c #FFFFFF",
"@	c #979797",
"#	c #CFCFCF",
"$	c #959595",
"%	c #C6C6C6",
"&	c #FDFDFD",
"*	c #7A7A7A",
"=	c #C0C0C0",
"-	c #ECECEC",
";	c #F3F3F3",
">	c #F5F5F5",
",	c #A1A1A1",
"'	c #777777",
")	c #DCDCDC",
"!	c #DFDFDF",
"~	c #E5E5E5",
"{	c #E4E4E4",
"]	c #939393",
"^	c #626262",
"/	c #D7D7D7",
"(	c #D3D3D3",
"_	c #D5D5D5",
":	c #888888",
"<	c #C8C8C8",
"[	c #D2D2D2",
"}	c #A8A8A8",
"|	c #363636",
"1	c #B2B2B2",
"2	c #DBDBDB",
"3	c #DADADA",
"4	c #BFBFBF",
"5	c #575757",
"6	c #EAEAEA",
"7	c #E7E7E7",
"8	c #CDCDCD",
"9	c #595959",
"0	c #878787",
"a	c #FCFCFC",
"b	c #C4C4C4",
"c	c #404040",
"d	c #AEAEAE",
"e	c #A5A5A5",
"f	c #A4A4A4",
"g	c #1D1D1D",
"h	c #C7C7C7",
"i	c #E2E2E2",
"j	c #BEBEBE",
"k	c #6D6D6D",
"l	c #B5B5B5",
"m	c #AFAFAF",
"n	c #A7A7A7",
"o	c #505050",
"p	c #C5C5C5",
"q	c #C1C1C1",
"r	c #BDBDBD",
"s	c #BABABA",
"t	c #535353",
"u	c #F4F4F4",
"v	c #B3B3B3",
"w	c #646464",
"x	c #636363",
"             .+@",
"            #++$",
"           %&++*",
"          =-;>, ",
"        ')!~{]  ",
"       ^/((_:   ",
"       <(.[}|   ",
"      12(345    ",
"     ]6!789     ",
"     0+abc      ",
"  de  ]fg       ",
" h!ij           ",
"klmdno          ",
"^pqrst          ",
" luuv           ",
"  wx            "};
