/* XPM */
static char * colorize_xpm[] = {
"16 16 164 2",
"  	c None",
". 	c #C47427",
"+ 	c #BB8757",
"@ 	c #D3A46F",
"# 	c #DCAF78",
"$ 	c #CE985E",
"% 	c #BE742C",
"& 	c #CA8136",
"* 	c #ECCFAA",
"= 	c #BCD3F0",
"- 	c #CAE9FE",
"; 	c #BEE3FE",
"> 	c #EDFCFE",
", 	c #FEFCF9",
"' 	c #FDE8E0",
") 	c #F7D5B6",
"! 	c #BD8143",
"~ 	c #E3AF69",
"{ 	c #FEFEE9",
"] 	c #FEFEF8",
"^ 	c #4DB1FE",
"/ 	c #38BDFE",
"( 	c #2AA9FE",
"_ 	c #C5CFD3",
": 	c #FEA876",
"< 	c #FEC69C",
"[ 	c #FEAE88",
"} 	c #FEF2DC",
"| 	c #DCA668",
"1 	c #D18E3F",
"2 	c #AE7D44",
"3 	c #845426",
"4 	c #D69E5B",
"5 	c #98D5D5",
"6 	c #60D3F3",
"7 	c #5BC6E6",
"8 	c #EBDDB9",
"9 	c #FE8D2A",
"0 	c #FE9C31",
"a 	c #F97F1D",
"b 	c #FCDCB2",
"c 	c #FEF0C4",
"d 	c #C9843C",
"e 	c #C97A24",
"f 	c #D39E53",
"g 	c #6A2E00",
"h 	c #FEDC92",
"i 	c #F8E7AF",
"j 	c #FEE1A1",
"k 	c #FEE1A0",
"l 	c #FECF81",
"m 	c #F9C980",
"n 	c #F8C06D",
"o 	c #FDD298",
"p 	c #FEECD1",
"q 	c #FECC8F",
"r 	c #723602",
"s 	c #DEAB56",
"t 	c #F6E292",
"u 	c #B9782A",
"v 	c #B26718",
"w 	c #CF9540",
"x 	c #FDDA86",
"y 	c #FED882",
"z 	c #FED37C",
"A 	c #FED079",
"B 	c #FECF7B",
"C 	c #FECB78",
"D 	c #FEC56B",
"E 	c #FEC436",
"F 	c #FEED61",
"G 	c #FEC939",
"H 	c #AE5D0F",
"I 	c #E19E3E",
"J 	c #FEF897",
"K 	c #FEE681",
"L 	c #FED772",
"M 	c #FED770",
"N 	c #FECC65",
"O 	c #FEC65E",
"P 	c #FEC258",
"Q 	c #FEBE53",
"R 	c #FEBB4F",
"S 	c #FEB64B",
"T 	c #FEB045",
"U 	c #FEC31A",
"V 	c #FEF03F",
"W 	c #FDC818",
"X 	c #C26A12",
"Y 	c #6F3806",
"Z 	c #E19C39",
"` 	c #FECA5D",
" .	c #FED667",
"..	c #FEC959",
"+.	c #FEBF4D",
"@.	c #FEB945",
"#.	c #FEB33D",
"$.	c #FEAE35",
"%.	c #FEA92E",
"&.	c #FEA328",
"*.	c #FE9E22",
"=.	c #F6A22E",
"-.	c #F2AA3B",
";.	c #FE9916",
">.	c #BF6106",
",.	c #6E3806",
"'.	c #D08628",
").	c #FEBF4C",
"!.	c #FEBC46",
"~.	c #FEB23B",
"{.	c #FEAC33",
"].	c #FEA626",
"^.	c #FD9919",
"/.	c #FE9613",
"(.	c #CE9315",
"_.	c #BFD59F",
":.	c #CCDEB6",
"<.	c #E09517",
"[.	c #AB4B00",
"}.	c #B96913",
"|.	c #FEB33A",
"1.	c #FEA427",
"2.	c #FCA436",
"3.	c #F2B275",
"4.	c #FEA340",
"5.	c #899906",
"6.	c #2DE943",
"7.	c #2FF24E",
"8.	c #779608",
"9.	c #832F00",
"0.	c #D37C19",
"a.	c #FEAC2A",
"b.	c #FC981D",
"c.	c #D38CA2",
"d.	c #DCCCFE",
"e.	c #D8A0E3",
"f.	c #C0870D",
"g.	c #56DE22",
"h.	c #52E62A",
"i.	c #967500",
"j.	c #6F3401",
"k.	c #FD9A1A",
"l.	c #FE9C16",
"m.	c #BB67B1",
"n.	c #B688FE",
"o.	c #A763F6",
"p.	c #F07013",
"q.	c #FE8C04",
"r.	c #F78407",
"s.	c #752F00",
"t.	c #984B04",
"u.	c #F28609",
"v.	c #F3862F",
"w.	c #E8A38D",
"x.	c #E98246",
"y.	c #FE8300",
"z.	c #F27400",
"A.	c #883900",
"B.	c #552400",
"C.	c #883F00",
"D.	c #9C4A00",
"E.	c #A75000",
"F.	c #8F4200",
"G.	c #4C2000",
"                                ",
"          . + @ # $ %           ",
"      & * = - ; > , ' ) !       ",
"    ~ { ] ^ / ( _ : < [ } |     ",
"  1 2 3 4 5 6 7 8 9 0 a b c d   ",
"e f     g h i j k l m n o p q r ",
"s t u v w x y z A B C D E F G H ",
"I J K L M N O P Q R S T U V W X ",
"Y Z `  ...+.@.#.$.%.&.*.=.-.;.>.",
"    ,.'.).!.~.{.].^./.(._.:.<.[.",
"        }.|.{.1.2.3.4.5.6.7.8.9.",
"          0.a.b.c.d.e.f.g.h.i.  ",
"          j.k.l.m.n.o.p.q.r.s.  ",
"            t.u.v.w.x.y.z.A.    ",
"              B.C.D.E.F.G.      ",
"                                "};
