/* XPM */
static char * edit_xpm[] = {
"16 16 139 2",
"  	c None",
". 	c #C8CCDA",
"+ 	c #D5D8E2",
"@ 	c #CBD1DD",
"# 	c #C3CADC",
"$ 	c #B3AAAA",
"% 	c #E08F1D",
"& 	c #D78C56",
"* 	c #A33B22",
"= 	c #D6DAE3",
"- 	c #FEFEFE",
"; 	c #F8F9FC",
"> 	c #F1F8FE",
", 	c #E2B66B",
"' 	c #FCBF00",
") 	c #FEBC38",
"! 	c #F29148",
"~ 	c #FBFEFE",
"{ 	c #F0E4E7",
"] 	c #F3BD1D",
"^ 	c #FEAA00",
"/ 	c #FE7B00",
"( 	c #E44C02",
"_ 	c #FCFEFE",
": 	c #F3D08D",
"< 	c #FBBD00",
"[ 	c #FE9900",
"} 	c #FE6A00",
"| 	c #B35435",
"1 	c #8189A3",
"2 	c #F9F0F1",
"3 	c #F6C02F",
"4 	c #FEB800",
"5 	c #FE9002",
"6 	c #E44F03",
"7 	c #A8878B",
"8 	c #8895AA",
"9 	c #F9E1B0",
"0 	c #F9BC00",
"a 	c #FEB006",
"b 	c #FD7903",
"c 	c #CC6A3D",
"d 	c #C5CBDE",
"e 	c #9EA6B5",
"f 	c #F8C243",
"g 	c #FEC909",
"h 	c #FEA40E",
"i 	c #EC6A11",
"j 	c #C0928B",
"k 	c #D7E7F8",
"l 	c #A1A6B2",
"m 	c #FBE6C6",
"n 	c #FBCA1D",
"o 	c #FEBE15",
"p 	c #FE9615",
"q 	c #DA763B",
"r 	c #D1D2E0",
"s 	c #E0E6F1",
"t 	c #AFB2BF",
"u 	c #FEFBFB",
"v 	c #F9CC64",
"w 	c #FDD21F",
"x 	c #FEB723",
"y 	c #F28621",
"z 	c #C99284",
"A 	c #E2ECFB",
"B 	c #E4E8F3",
"C 	c #B0B5C0",
"D 	c #D6D8E2",
"E 	c #F7FDFE",
"F 	c #F7E3CC",
"G 	c #FBD345",
"H 	c #FECF30",
"I 	c #FEB737",
"J 	c #DC7D3E",
"K 	c #DED8E1",
"L 	c #DCE0EB",
"M 	c #D7DAE4",
"N 	c #A2A6B2",
"O 	c #F5FBFE",
"P 	c #F5E0C4",
"Q 	c #FBD160",
"R 	c #FED752",
"S 	c #F29E37",
"T 	c #C89079",
"U 	c #D0D6E4",
"V 	c #C9CBD7",
"W 	c #CBCCD8",
"X 	c #A0A3AF",
"Y 	c #F6FBFE",
"Z 	c #F1DBC5",
"` 	c #FED6A4",
" .	c #FBD397",
"..	c #C37448",
"+.	c #C3B5B9",
"@.	c #CCD5E0",
"#.	c #C6C9D6",
"$.	c #CFD1DC",
"%.	c #A1A3B0",
"&.	c #D7C4BB",
"*.	c #A98268",
"=.	c #C48B73",
"-.	c #C4B1B2",
";.	c #CFD7E2",
">.	c #CBCFD8",
",.	c #C6C9D5",
"'.	c #D2D5DE",
").	c #ABAEBB",
"!.	c #FDFEFE",
"~.	c #CFBBB7",
"{.	c #905C4F",
"].	c #C9BEC2",
"^.	c #D7DEE9",
"/.	c #CFD1DA",
"(.	c #D1D3DD",
"_.	c #D7DAE3",
":.	c #E8EBF5",
"<.	c #AFB3BE",
"[.	c #D8DCE4",
"}.	c #F8EEEE",
"|.	c #F3EBEC",
"1.	c #F2F3F9",
"2.	c #EDEEF6",
"3.	c #F2F5FC",
"4.	c #F0F2FB",
"5.	c #F6F8FE",
"6.	c #B2B6C2",
"7.	c #B5B8C5",
"8.	c #828490",
"9.	c #858892",
"0.	c #868B97",
"a.	c #868C98",
"b.	c #848892",
"c.	c #848795",
"d.	c #838792",
"e.	c #828692",
"f.	c #818491",
"g.	c #838692",
"h.	c #737784",
". + + + + @ # $ % & *           ",
"= - - - - ; > , ' ) !           ",
"+ - - - - ~ { ] ^ / (           ",
"+ - - - - _ : < [ } | 1         ",
"+ - - - - 2 3 4 5 6 7 8         ",
"+ - - - - 9 0 a b c d e         ",
"+ - - - - f g h i j k l         ",
"+ - - - m n o p q r s t         ",
"+ - - u v w x y z A B C         ",
"D - E F G H I J K L M N         ",
"D - O P Q R S T U V W X         ",
"D - Y Z `  ...+.@.#.$.%.        ",
"D - ~ &.*.=.-.;.>.,.'.).        ",
"D !.~ ~.{.].^./.(._.:.<.        ",
"[.- - }.|.Y 1.2.3.4.5.6.        ",
"7.8.9.0.a.b.c.d.e.f.g.h.        "};
