/* XPM */
static char * folder_xpm[] = {
"16 16 92 2",
"  	c None",
". 	c #848BA3",
"+ 	c #FFFFFF",
"@ 	c #F8FAFE",
"# 	c #E2E4EB",
"$ 	c #E5E6ED",
"% 	c #E7E9EF",
"& 	c #EAEBF0",
"* 	c #EDEEF3",
"= 	c #7782A2",
"- 	c #ECEBEC",
"; 	c #F1EEEE",
"> 	c #F4F1F0",
", 	c #F7F4F2",
"' 	c #FAF7F3",
") 	c #F9F7F6",
"! 	c #3069DC",
"~ 	c #CADBFA",
"{ 	c #CBDEFF",
"] 	c #B9D2FE",
"^ 	c #BBD3FF",
"/ 	c #ACC5F7",
"( 	c #98B5F6",
"_ 	c #D1E3FD",
": 	c #C7DCFC",
"< 	c #C3D9FC",
"[ 	c #C0D6FC",
"} 	c #C1D7FC",
"| 	c #92B9FE",
"1 	c #699EFD",
"2 	c #629AFD",
"3 	c #6399FF",
"4 	c #699DFF",
"5 	c #4176EA",
"6 	c #003EE2",
"7 	c #D0E4FD",
"8 	c #8BB9FB",
"9 	c #81B1FB",
"0 	c #78AAFC",
"a 	c #6FA3FD",
"b 	c #659BFD",
"c 	c #649BFD",
"d 	c #659AFE",
"e 	c #6699FF",
"f 	c #6B9BFF",
"g 	c #4473EA",
"h 	c #0039E1",
"i 	c #C9DEFD",
"j 	c #78A9FB",
"k 	c #70A3FD",
"l 	c #649AFE",
"m 	c #669AFF",
"n 	c #6696FF",
"o 	c #6B96FF",
"p 	c #446DEB",
"q 	c #0030E1",
"r 	c #C4DBFE",
"s 	c #77A9FB",
"t 	c #6FA2FD",
"u 	c #679DFD",
"v 	c #639AFD",
"w 	c #6399FE",
"x 	c #6499FF",
"y 	c #6595FF",
"z 	c #6590FF",
"A 	c #6A8FFF",
"B 	c #EDF3FF",
"C 	c #D5E4FE",
"D 	c #D4E4FF",
"E 	c #D4E3FF",
"F 	c #D5E2FF",
"G 	c #D5E1FF",
"H 	c #D5E0FF",
"I 	c #D5DEFF",
"J 	c #D3DBFD",
"K 	c #C4CCF4",
"L 	c #A4B2F3",
"M 	c #FFFFFA",
"N 	c #FEFCF6",
"O 	c #EDF0F9",
"P 	c #F7FBFF",
"Q 	c #E6EDFF",
"R 	c #DFE6FB",
"S 	c #D9E1F7",
"T 	c #D3DBF3",
"U 	c #D0D8F0",
"V 	c #D0D7EF",
"W 	c #D0D6EF",
"X 	c #CDD4EE",
"Y 	c #CAD1EB",
"Z 	c #CAD0E9",
"` 	c #B7C3EF",
"                                ",
"                                ",
"  . . . . . .                   ",
". + + + + + @ . . . . . .       ",
". + # $ % & * + + + + + + =     ",
". + - ; > , ' ) ! ! ! ! ! ! !   ",
". + - ! ! ! ! ! ~ { ] ] ^ / ( ! ",
". + ! _ : < [ } | 1 2 3 4 5 6 ! ",
". + ! 7 8 9 0 a b c d e f g h ! ",
". + ! i 9 j k 1 c l m n o p q ! ",
". + ! r s t u v w x y z A p q ! ",
". + ! B C D E E F G H I J K L ! ",
". + ! + + + + + + + + + M N O ! ",
". + ! P Q R S T U V W X Y Z ` ! ",
"  ! ! ! ! ! ! ! ! ! ! ! ! ! !   ",
"                                "};
