/* XPM */
static char * memory_xpm[] = {
"16 16 124 2",
"  	c None",
". 	c #878791",
"+ 	c #ACACB3",
"@ 	c #C6C6CC",
"# 	c #E8E8EB",
"$ 	c #F3F3F8",
"% 	c #B0AAA4",
"& 	c #B6B7C0",
"* 	c #D4D5DA",
"= 	c #EFEFF2",
"- 	c #FEFEFE",
"; 	c #FDFDFD",
"> 	c #EBECF4",
", 	c #BAB5B8",
"' 	c #5A4E45",
") 	c #C6C0BA",
"! 	c #FAFAFD",
"~ 	c #ECEDF3",
"{ 	c #E7E7EC",
"] 	c #E6E6EC",
"^ 	c #E7E7ED",
"/ 	c #DFDFE7",
"( 	c #CCCDDB",
"_ 	c #B7B7C6",
": 	c #7D6F63",
"< 	c #DCBE89",
"[ 	c #CDBEB4",
"} 	c #E0E0EA",
"| 	c #D5D6E0",
"1 	c #D2D2DC",
"2 	c #D0D0DA",
"3 	c #BBBBCA",
"4 	c #B3B3C3",
"5 	c #B9B9CA",
"6 	c #B2B2C4",
"7 	c #7F777B",
"8 	c #FFF2B5",
"9 	c #DFCFB5",
"0 	c #AC988D",
"a 	c #D1D1DA",
"b 	c #C4C5D3",
"c 	c #B5B5C5",
"d 	c #9E9EB3",
"e 	c #A2A2B6",
"f 	c #A0A0B5",
"g 	c #A2A3B8",
"h 	c #A0A2BA",
"i 	c #85818D",
"j 	c #60482A",
"k 	c #FFE685",
"l 	c #CC962A",
"m 	c #BD9D73",
"n 	c #BFB0A7",
"o 	c #B8B9C9",
"p 	c #ABACC0",
"q 	c #8E8EA7",
"r 	c #9292AB",
"s 	c #727292",
"t 	c #6C6C8D",
"u 	c #9D9DB3",
"v 	c #C6CADC",
"w 	c #A9977F",
"x 	c #653B06",
"y 	c #FFD250",
"z 	c #FFE275",
"A 	c #C5860D",
"B 	c #F9E5AA",
"C 	c #EADAB9",
"D 	c #937D75",
"E 	c #A7A5B4",
"F 	c #8F90AB",
"G 	c #787896",
"H 	c #83839F",
"I 	c #9797AF",
"J 	c #CECED9",
"K 	c #F3F6FE",
"L 	c #B8A37A",
"M 	c #905C09",
"N 	c #9A6E0D",
"O 	c #D0951B",
"P 	c #AC7613",
"Q 	c #FEE486",
"R 	c #D39B27",
"S 	c #BC9359",
"T 	c #B8A89D",
"U 	c #938E9F",
"V 	c #8F90AA",
"W 	c #9292AA",
"X 	c #BEBECD",
"Y 	c #DDDDE6",
"Z 	c #E2E5F0",
"` 	c #8C7A64",
" .	c #965B07",
"..	c #250F01",
"+.	c #E2B03C",
"@.	c #FFEC7A",
"#.	c #C1830B",
"$.	c #F0D184",
"%.	c #F8ECC4",
"&.	c #9D877D",
"*.	c #8D8CA3",
"=.	c #8A8AA6",
"-.	c #ABABBF",
";.	c #A3A3B3",
">.	c #5B5B69",
",.	c #171518",
"'.	c #180B00",
").	c #D29818",
"!.	c #895B0A",
"~.	c #EDD47B",
"{.	c #E2B03E",
"].	c #867068",
"^.	c #8C8DAA",
"/.	c #737390",
"(.	c #565667",
"_.	c #1B1B22",
":.	c #BF8F23",
"<.	c #FFF37C",
"[.	c #C38D1F",
"}.	c #473F47",
"|.	c #5A5C71",
"1.	c #24242D",
"2.	c #D59F17",
"3.	c #6C4505",
"                                ",
"            .                   ",
"      + @ # $ %                 ",
"  & * = - - ; > , '             ",
"  ) ! ~ { ] ^ / ( _ :           ",
"  < [ } | 1 2 3 4 5 6 7         ",
"  8 9 0 a b c d e f g h i j     ",
"  k l m n o p q r s t u v w x   ",
"y z A B C D E F G H I J K L M   ",
"N O P Q R S T U V W X Y Z `  ...",
"    +.@.#.$.%.&.*.=.-.;.>.,.'.  ",
"      ).!.~.{.].^./.(._.        ",
"        :.<.[.}.|.1.            ",
"          2.3.                  ",
"                                ",
"                                "};
