/* XPM */
static char * window_list_xpm[] = {
"16 16 104 2",
"  	c None",
". 	c #D1D1D1",
"+ 	c #999999",
"@ 	c #D3D3D3",
"# 	c #CCCCCC",
"$ 	c #9F9F9F",
"% 	c #E5E5E5",
"& 	c #E1E1E1",
"* 	c #AAAAAA",
"= 	c #A4A4A4",
"- 	c #A1A1A1",
"; 	c #737373",
"> 	c #F9F9F9",
", 	c #FFFFFF",
"' 	c #F7F7F7",
") 	c #B6B6B6",
"! 	c #818181",
"~ 	c #848484",
"{ 	c #858585",
"] 	c #676767",
"^ 	c #D9D9D9",
"/ 	c #D4D4D4",
"( 	c #8C8C8C",
"_ 	c #6C6C6C",
": 	c #757575",
"< 	c #7D7D7D",
"[ 	c #F6F6F6",
"} 	c #FDFDFD",
"| 	c #F5F5F5",
"1 	c #E6E6E6",
"2 	c #B2B2B2",
"3 	c #747474",
"4 	c #6F6F6F",
"5 	c #7C7C7C",
"6 	c #515151",
"7 	c #93C9F8",
"8 	c #BEDFFF",
"9 	c #A8CDF9",
"0 	c #98C2F3",
"a 	c #8FBDF6",
"b 	c #7CB1F2",
"c 	c #6CA5EC",
"d 	c #5E9BE6",
"e 	c #4E8DDB",
"f 	c #5E95DE",
"g 	c #3B79C0",
"h 	c #BCBCBC",
"i 	c #C5C5C5",
"j 	c #979797",
"k 	c #626262",
"l 	c #AADCFF",
"m 	c #83BEF8",
"n 	c #6FB0F3",
"o 	c #5EA2E9",
"p 	c #4F94DE",
"q 	c #4287D3",
"r 	c #3277C8",
"s 	c #4880CA",
"t 	c #225CA5",
"u 	c #939393",
"v 	c #BABABA",
"w 	c #AEAEAE",
"x 	c #5A5A5A",
"y 	c #FAFAFA",
"z 	c #F4F4F4",
"A 	c #EFEFEF",
"B 	c #E9E9E9",
"C 	c #E3E3E3",
"D 	c #CECECE",
"E 	c #CACACA",
"F 	c #6696D0",
"G 	c #F2F2F2",
"H 	c #EDEDED",
"I 	c #DCDCDC",
"J 	c #D0D0D0",
"K 	c #6798D4",
"L 	c #8A8A8A",
"M 	c #FBFBFB",
"N 	c #F0F0F0",
"O 	c #E0E0E0",
"P 	c #CDCDCD",
"Q 	c #C7C7C7",
"R 	c #C6C6C6",
"S 	c #5C90D1",
"T 	c #717171",
"U 	c #616161",
"V 	c #3B3B3B",
"W 	c #D2D2D2",
"X 	c #C0C0C0",
"Y 	c #BDBDBD",
"Z 	c #5088CF",
"` 	c #595959",
" .	c #4B4B4B",
"..	c #DDDDDD",
"+.	c #CFCFCF",
"@.	c #CBCBCB",
"#.	c #C3C3C3",
"$.	c #B9B9B9",
"%.	c #467CC4",
"&.	c #3E3E3E",
"*.	c #E8E8E8",
"=.	c #DEDEDE",
"-.	c #A8A8A8",
";.	c #3C74BF",
"            .                   ",
"          + @ # $               ",
"          % & * = - ;           ",
"          > , ' ) ! ~ { ]       ",
"        ^ , , , , / ( _ : <     ",
"        [ , , , } | 1 2 3 4 5 6 ",
"7 8 9 0 a b c d e f g h i j k   ",
"7 l 7 m n o p q r s t u v w x   ",
"7 , y z A B C ^ D E F ~ * 5     ",
"7 , } > G H I . D J K 5 L x     ",
"7 , M z N O P # Q R S T U V     ",
"7 , > G B W P Q X Y Z `  .      ",
"7 , > N ..+.@.#.$.2 %.&.V       ",
"7 , | *.=.^ . i ) -.;.          ",
";.;.;.;.;.;.;.;.;.;.;.          ",
"                                "};
