/* XPM */
static char * enhanced_browsing_xpm[] = {
"16 16 114 2",
"  	c None",
". 	c #3775CA",
"+ 	c #85AFE4",
"@ 	c #4E7FCD",
"# 	c #1956B7",
"$ 	c #9BC7F5",
"% 	c #FFFFFF",
"& 	c #C8E7FF",
"* 	c #103062",
"= 	c #3D79CF",
"- 	c #CEEAFF",
"; 	c #E6F5FF",
"> 	c #A8D1FE",
", 	c #09275B",
"' 	c #77AFEF",
") 	c #C9E8FF",
"! 	c #CEECFF",
"~ 	c #4F82D2",
"{ 	c #91B3E2",
"] 	c #ADC5E6",
"^ 	c #5365A1",
"/ 	c #2764C3",
"( 	c #9AD0FF",
"_ 	c #B6DEFF",
": 	c #92C7FF",
"< 	c #0E317C",
"[ 	c #5396E4",
"} 	c #93D0FF",
"| 	c #8ECFFF",
"1 	c #61AFFF",
"2 	c #04154C",
"3 	c #5196E7",
"4 	c #98D1FF",
"5 	c #A0D6FF",
"6 	c #467FD7",
"7 	c #000729",
"8 	c #1D7EEB",
"9 	c #1592FF",
"0 	c #088BFF",
"a 	c #0083FF",
"b 	c #001855",
"c 	c #1A4FB4",
"d 	c #69B7FF",
"e 	c #83C5FF",
"f 	c #76BBFF",
"g 	c #113385",
"h 	c #0E3C95",
"i 	c #1C81F7",
"j 	c #2490FF",
"k 	c #0E4CBB",
"l 	c #2E7CDE",
"m 	c #63B8FF",
"n 	c #6FC0FF",
"o 	c #397BDC",
"p 	c #000630",
"q 	c #0C1648",
"r 	c #103BA6",
"s 	c #399EFD",
"t 	c #50ACFF",
"u 	c #4DAAFF",
"v 	c #0F338B",
"w 	c #1464D3",
"x 	c #2E9FFF",
"y 	c #3AA5FF",
"z 	c #2574E1",
"A 	c #000537",
"B 	c #0B2A98",
"C 	c #0D83F9",
"D 	c #1892FF",
"E 	c #2196FF",
"F 	c #092F94",
"G 	c #81A6DE",
"H 	c #9DB8E4",
"I 	c #435797",
"J 	c #1658C9",
"K 	c #048CFF",
"L 	c #0289FF",
"M 	c #0A6CE8",
"N 	c #01043C",
"O 	c #5795E0",
"P 	c #A2D7FF",
"Q 	c #A2D9FF",
"R 	c #6EB1FC",
"S 	c #05133F",
"T 	c #0D2092",
"U 	c #338EF4",
"V 	c #2595FF",
"W 	c #1690FF",
"X 	c #072E9A",
"Y 	c #2383ED",
"Z 	c #1D96FF",
"` 	c #108EFF",
" .	c #0086FF",
"..	c #00184D",
"+.	c #2145B5",
"@.	c #4FAFFF",
"#.	c #46A8FF",
"$.	c #3181EF",
"%.	c #020545",
"&.	c #0E47AA",
"*.	c #1787FF",
"=.	c #1D92FF",
"-.	c #0C56CC",
";.	c #000319",
">.	c #0C1784",
",.	c #4A8EEF",
"'.	c #52A7FF",
").	c #19389F",
"!.	c #0F1F51",
"~.	c #14295D",
"{.	c #020120",
"].	c #050941",
"^.	c #0C154D",
"/.	c #00001F",
"                        . + @   ",
"                      # $ % & * ",
"                      = - ; > , ",
"                      ' ) ! ~   ",
"  { ] ^             / ( _ : <   ",
"[ } | 1 2           3 4 5 6 7   ",
"8 9 0 a b         c d e f g     ",
"h i j k           l m n o p     ",
"    q           r s t u v       ",
"                w x y z A       ",
"              B C D E F         ",
"  G H I       J K L M N         ",
"O P Q R S   T U V W X           ",
"Y Z `  ...  +.@.#.$.%.          ",
"&.*.=.-.;.  >.,.'.).            ",
"  !.~.{.      ].^./.            "};
