/* XPM */
static char * 1downarrow_xpm[] = {
"16 16 92 2",
"  	c None",
". 	c #772D00",
"+ 	c #913C00",
"@ 	c #994100",
"# 	c #883700",
"$ 	c #AA510C",
"% 	c #EE9F58",
"& 	c #FFCEA0",
"* 	c #FFD4AB",
"= 	c #FFD2A8",
"- 	c #FFC793",
"; 	c #EE9849",
"> 	c #AA4E06",
", 	c #803200",
"' 	c #E68834",
") 	c #FFE6CD",
"! 	c #FFF0E1",
"~ 	c #FFE2C6",
"{ 	c #FFD8B4",
"] 	c #FFD8B3",
"^ 	c #FFDAB6",
"/ 	c #FFDDBC",
"( 	c #FFCFA1",
"_ 	c #E67D1F",
": 	c #E68732",
"< 	c #FFF0E3",
"[ 	c #FFE7CF",
"} 	c #FFD9B5",
"| 	c #FFD0A4",
"1 	c #FFC995",
"2 	c #FFCA98",
"3 	c #FFCD9E",
"4 	c #E67A18",
"5 	c #FFE3C8",
"6 	c #FFE0C2",
"7 	c #FFD0A2",
"8 	c #FFC288",
"9 	c #FFBF82",
"0 	c #FFC083",
"a 	c #FFB268",
"b 	c #AA4B00",
"c 	c #EE9C52",
"d 	c #FFD6B0",
"e 	c #FFCFA2",
"f 	c #FFC996",
"g 	c #FFBF83",
"h 	c #FFB670",
"i 	c #EE7D15",
"j 	c #FFC690",
"k 	c #FFFBF8",
"l 	c #FFFFFF",
"m 	c #FFC691",
"n 	c #FF942F",
"o 	c #FFBD7F",
"p 	c #FFAD60",
"q 	c #FFCA99",
"r 	c #FF8F25",
"s 	c #FFB46E",
"t 	c #FF942E",
"u 	c #FFBE80",
"v 	c #FFD6AF",
"w 	c #FF8F24",
"x 	c #FF8109",
"y 	c #FFAE60",
"z 	c #FF7D02",
"A 	c #FF7D03",
"B 	c #FFAF62",
"C 	c #FFCE9F",
"D 	c #FF7C00",
"E 	c #FF7E04",
"F 	c #EE8B31",
"G 	c #FF8B1C",
"H 	c #FFE6CF",
"I 	c #FF8410",
"J 	c #FF820B",
"K 	c #EE7302",
"L 	c #FF9D40",
"M 	c #FF7F06",
"N 	c #FF8817",
"O 	c #E67815",
"P 	c #FF8008",
"Q 	c #FFB570",
"R 	c #FF8E23",
"S 	c #E67107",
"T 	c #E67209",
"U 	c #FF8D21",
"V 	c #FF8511",
"W 	c #FF7E03",
"X 	c #AA4C04",
"Y 	c #EE7F19",
"Z 	c #FF932C",
"` 	c #FF9B3C",
"          . + @ @ # .           ",
"      . $ % & * = - ; > .       ",
"    , ' ) ! ~ { ] ^ / ( _ ,     ",
"  . : < [ } | 1 1 1 1 2 3 4 .   ",
"  $ 5 6 7 & 8 9 9 9 9 9 0 a b   ",
". c 5 - d e f f f f f f g h i . ",
"# j f k l l l l l l l l l m n # ",
"@ o p l l l l l l l l l l q r @ ",
"@ s t u l l l l l l l l v w x @ ",
"+ y z A B l l l l l l C D z E # ",
". F G D D p l l l l H I D J K . ",
"  > L M D D p l l H I D M N b   ",
"  . O n P D D L Q I D P R S .   ",
"    , T n U V W W V U n T ,     ",
"      . X Y Z ` ` Z Y X .       ",
"          . # @ @ # .           "};
