/* XPM */
static char * 2downarrow_xpm[] = {
"16 16 93 2",
"  	c None",
". 	c #772D00",
"+ 	c #913C00",
"@ 	c #994100",
"# 	c #883700",
"$ 	c #AA510C",
"% 	c #EE9F58",
"& 	c #FFCEA0",
"* 	c #FFD4AB",
"= 	c #FFD2A8",
"- 	c #FFC793",
"; 	c #EE9849",
"> 	c #AA4E06",
", 	c #803200",
"' 	c #E68834",
") 	c #FFE6CD",
"! 	c #FFF0E1",
"~ 	c #FFE2C6",
"{ 	c #FFD8B4",
"] 	c #FFD8B3",
"^ 	c #FFDAB6",
"/ 	c #FFDDBC",
"( 	c #FFCFA1",
"_ 	c #E67D1F",
": 	c #E68732",
"< 	c #FFF0E3",
"[ 	c #FFE7CF",
"} 	c #FFD9B5",
"| 	c #FFD0A4",
"1 	c #FFC995",
"2 	c #FFCA98",
"3 	c #FFCD9E",
"4 	c #E67A18",
"5 	c #FFE3C8",
"6 	c #FFF1E4",
"7 	c #FFF4E9",
"8 	c #FFF2E5",
"9 	c #FFF0E2",
"0 	c #FFDCBC",
"a 	c #FFB268",
"b 	c #AA4B00",
"c 	c #EE9C52",
"d 	c #FFEDDD",
"e 	c #FFFFFF",
"f 	c #FFC48C",
"g 	c #EE7D15",
"h 	c #FFC690",
"i 	c #FFC996",
"j 	c #FFEFE0",
"k 	c #FFAC5D",
"l 	c #FF942F",
"m 	c #FFBD7F",
"n 	c #FFA24A",
"o 	c #FFA755",
"p 	c #FFEDDC",
"q 	c #FF8F25",
"r 	c #FFB46E",
"s 	c #FF942E",
"t 	c #FF9837",
"u 	c #FF9E43",
"v 	c #FFEBD8",
"w 	c #FF9734",
"x 	c #FF8F24",
"y 	c #FF8109",
"z 	c #FFAE60",
"A 	c #FF7D02",
"B 	c #FF8613",
"C 	c #FFA44D",
"D 	c #FFAE61",
"E 	c #FFF7EF",
"F 	c #FFAD5F",
"G 	c #FFA148",
"H 	c #FF8410",
"I 	c #FF7E04",
"J 	c #EE8B31",
"K 	c #FF8B1C",
"L 	c #FF820B",
"M 	c #EE7302",
"N 	c #FF9D40",
"O 	c #FFF8F1",
"P 	c #FF8817",
"Q 	c #E67815",
"R 	c #FFA34C",
"S 	c #FF9E41",
"T 	c #E67107",
"U 	c #E67209",
"V 	c #FF8D21",
"W 	c #FF8511",
"X 	c #FF7E03",
"Y 	c #AA4C04",
"Z 	c #EE7F19",
"` 	c #FF932C",
" .	c #FF9B3C",
"          . + @ @ # .           ",
"      . $ % & * = - ; > .       ",
"    , ' ) ! ~ { ] ^ / ( _ ,     ",
"  . : < [ } | 1 1 1 1 2 3 4 .   ",
"  $ 5 6 7 7 8 9 9 9 9 9 0 a b   ",
". c d e e e e e e e e e e f g . ",
"# h i 9 e e e e e e e e j k l # ",
"@ m n o p e e e e e e p o n q @ ",
"@ r s t u v e e e e v u w x y @ ",
"+ z A B C D E e e E F G H A I # ",
". J K E e e e e e e e e E L M . ",
"  > N O e e e e e e e e O P b   ",
"  . Q R G N N N N N N G S T .   ",
"    , U l V W X X W V l U ,     ",
"      . Y Z `  . .` Z Y .       ",
"          . # @ @ # .           "};
