/* XPM */
static char * misc_xpm[] = {
"16 16 130 2",
"  	c None",
". 	c #085FC6",
"+ 	c #02A9E8",
"@ 	c #0868C3",
"# 	c #084EB3",
"$ 	c #047CCE",
"% 	c #074CB2",
"& 	c #0875CA",
"* 	c #096AC4",
"= 	c #0391DE",
"- 	c #00D8FE",
"; 	c #04AEEE",
"> 	c #089BE6",
", 	c #04C4F9",
"' 	c #0580D1",
") 	c #0639A8",
"! 	c #008FF5",
"~ 	c #00D1FE",
"{ 	c #00C3F9",
"] 	c #1079DC",
"^ 	c #1C60CB",
"/ 	c #1D66CC",
"( 	c #2068D0",
"_ 	c #1D82DD",
": 	c #1087DC",
"< 	c #0187D7",
"[ 	c #0440AB",
"} 	c #0C43B2",
"| 	c #035CE4",
"1 	c #00C6FE",
"2 	c #0B89E6",
"3 	c #2470CF",
"4 	c #2479CF",
"5 	c #2479D0",
"6 	c #247AD0",
"7 	c #287AD1",
"8 	c #2E8EE2",
"9 	c #17A8F2",
"0 	c #024DB3",
"a 	c #076BCA",
"b 	c #0293E6",
"c 	c #00B8FD",
"d 	c #157FE0",
"e 	c #2F9EE1",
"f 	c #309FE0",
"g 	c #38A4ED",
"h 	c #1081DB",
"i 	c #003CA9",
"j 	c #018BED",
"k 	c #00BBFE",
"l 	c #00B3FE",
"m 	c #1282E7",
"n 	c #39C4F1",
"o 	c #42C4F2",
"p 	c #27BBFE",
"q 	c #00A0F6",
"r 	c #0147B2",
"s 	c #025EE8",
"t 	c #0077FE",
"u 	c #009AFE",
"v 	c #0599F6",
"w 	c #287AE0",
"x 	c #46E1FD",
"y 	c #31C3FD",
"z 	c #0191F2",
"A 	c #0034A7",
"B 	c #0844B9",
"C 	c #034ED1",
"D 	c #0082F9",
"E 	c #009FFE",
"F 	c #118EF2",
"G 	c #50DEFE",
"H 	c #2BB8FE",
"I 	c #0076E2",
"J 	c #00289A",
"K 	c #083BA8",
"L 	c #0079EB",
"M 	c #0093FE",
"N 	c #0090FE",
"O 	c #0D8FF7",
"P 	c #2E99F2",
"Q 	c #39B8FE",
"R 	c #0898FE",
"S 	c #0062D3",
"T 	c #0552BB",
"U 	c #0090FD",
"V 	c #008DFE",
"W 	c #0096FE",
"X 	c #0088FE",
"Y 	c #0187FE",
"Z 	c #0A8EFD",
"` 	c #1696FD",
" .	c #0D8FFE",
"..	c #0287FE",
"+.	c #0087FE",
"@.	c #00A8FE",
"#.	c #006BD8",
"$.	c #0455B9",
"%.	c #00B0FB",
"&.	c #008CEC",
"*.	c #009EED",
"=.	c #00B8FE",
"-.	c #007DFE",
";.	c #0081FE",
">.	c #0086FE",
",.	c #0082FE",
"'.	c #007DF6",
").	c #0069CB",
"!.	c #002F9E",
"~.	c #0356B7",
"{.	c #0341A9",
"].	c #0339A6",
"^.	c #0093D7",
"/.	c #0097FE",
"(.	c #0079FE",
"_.	c #00A2FE",
":.	c #00CFFE",
"<.	c #00ABFE",
"[.	c #007BF9",
"}.	c #00279C",
"|.	c #014CAE",
"1.	c #0092F9",
"2.	c #003DAF",
"3.	c #0068BB",
"4.	c #00D2F9",
"5.	c #0069D0",
"6.	c #0139A4",
"7.	c #0092D6",
"8.	c #0072C4",
"9.	c #0051B0",
"                                ",
"        . + @ # $ %             ",
"    & * = - ; > , ' )           ",
"    ! ~ { ] ^ / ( _ : < [       ",
"  } | 1 2 3 4 5 6 7 8 9 0       ",
"  a b c d         e f g h i     ",
"  j k l m           n o p q r   ",
"  s t u v w           x y z A   ",
"  B C D E F           G H I J   ",
"    K L M N O P       Q R M S   ",
"    T U V W X Y Z `  ...+.@.#.  ",
"    $.%.&.*.=.X -.;.>.,.'.).!.  ",
"      ~.{.].^./.(._.:.<.[.}.    ",
"            |.l 1.2.3.4.5.      ",
"            6.7.8.    9.        ",
"                                "};
