/* XPM */
static char * search_togglebookmark_xpm[] = {
"16 16 109 2",
"  	c None",
". 	c #F77600",
"+ 	c #F37300",
"@ 	c #F78909",
"# 	c #F48409",
"$ 	c #FCBE36",
"% 	c #F8B938",
"& 	c #F68B0D",
"* 	c #FDE31C",
"= 	c #FBE028",
"- 	c #EC7E10",
"; 	c #F8AC22",
"> 	c #FFF814",
", 	c #FEF716",
"' 	c #EFA024",
") 	c #FB8E10",
"! 	c #F78A12",
"~ 	c #F5911C",
"{ 	c #FCD31E",
"] 	c #FFFF04",
"^ 	c #FFFF07",
"/ 	c #F6CC24",
"( 	c #E57C1D",
"_ 	c #DE6A12",
": 	c #DA6610",
"< 	c #FF8800",
"[ 	c #FFA620",
"} 	c #FFC82D",
"| 	c #FED625",
"1 	c #FEDA27",
"2 	c #FFEC3C",
"3 	c #FFFC20",
"4 	c #FFFD00",
"5 	c #FFFB24",
"6 	c #FDE73E",
"7 	c #F6CE23",
"8 	c #F3C521",
"9 	c #EAA615",
"0 	c #D86A09",
"a 	c #C53F00",
"b 	c #FD9216",
"c 	c #FECB1F",
"d 	c #FFF107",
"e 	c #FFF003",
"f 	c #FFF000",
"g 	c #FFEF00",
"h 	c #FFE806",
"i 	c #EEA409",
"j 	c #CE5505",
"k 	c #F77D02",
"l 	c #FCB808",
"m 	c #FFD601",
"n 	c #FFD900",
"o 	c #FFD700",
"p 	c #FDC804",
"q 	c #EC9202",
"r 	c #CB4800",
"s 	c #F27D02",
"t 	c #FAA701",
"u 	c #FFC600",
"v 	c #FFC700",
"w 	c #E5BD07",
"x 	c #A0A01A",
"y 	c #A09D1A",
"z 	c #9D8F1C",
"A 	c #7B5809",
"B 	c #F58600",
"C 	c #FEB100",
"D 	c #FFB400",
"E 	c #CFA40D",
"F 	c #9CB487",
"G 	c #B9E490",
"H 	c #A0DA67",
"I 	c #437215",
"J 	c #F68500",
"K 	c #FFA000",
"L 	c #FF9C00",
"M 	c #CF950D",
"N 	c #95C26C",
"O 	c #9BE650",
"P 	c #83D133",
"Q 	c #3D6C0B",
"R 	c #F78100",
"S 	c #FF8F00",
"T 	c #FF8300",
"U 	c #AE7F16",
"V 	c #7E8023",
"W 	c #204000",
"X 	c #EA6400",
"Y 	c #F97300",
"Z 	c #F76C00",
"` 	c #E55B00",
" .	c #C75405",
"..	c #577C29",
"+.	c #B6E884",
"@.	c #99E54D",
"#.	c #61A31A",
"$.	c #274B03",
"%.	c #E55D00",
"&.	c #EC5D00",
"*.	c #DD5500",
"=.	c #538618",
"-.	c #7BC52E",
";.	c #6DB225",
">.	c #585406",
",.	c #DD5900",
"'.	c #356008",
").	c #4D5406",
"!.	c #A73100",
"              . +               ",
"              @ #               ",
"              $ %               ",
"            & * = -             ",
"            ; > , '             ",
"      ) ! ~ { ] ^ / ( _ :       ",
"< [ } | 1 2 3 4 4 5 6 7 8 9 0 a ",
"  b c d e f f f f f f g h i j   ",
"    k l m n n n n n o p q r     ",
"      s t u v v w x y z A       ",
"        B C D D E F G H I       ",
"        J K K L M N O P Q       ",
"        R S T U V N O P Q W     ",
"      X Y Z `  ...+.@.P #.$.    ",
"      %.&.*.      =.-.;.>.      ",
"      ,.            '.).!.      "};
