/* XPM */
static char * filefind_xpm[] = {
"16 16 179 2",
"  	c None",
". 	c #A8C2E0",
"+ 	c #8BB9E4",
"@ 	c #84B8E6",
"# 	c #9ABEDE",
"$ 	c #A4B7CE",
"% 	c #B8C0D5",
"& 	c #8FB3E0",
"* 	c #80B9E8",
"= 	c #88C6EC",
"- 	c #8DCAEB",
"; 	c #85C3E9",
"> 	c #89BEE2",
", 	c #92B3D1",
"' 	c #97BDE4",
") 	c #AEDCF8",
"! 	c #C8EDF7",
"~ 	c #CAF0F6",
"{ 	c #C0E6F3",
"] 	c #AED3E9",
"^ 	c #AAD2E7",
"/ 	c #99D0E8",
"( 	c #8CA7BF",
"_ 	c #9AAAC6",
": 	c #9ECCF2",
"< 	c #CEF3FE",
"[ 	c #DEFEFE",
"} 	c #E6FEFD",
"| 	c #CCF1FC",
"1 	c #C0E7F2",
"2 	c #BDE6F3",
"3 	c #C5EDF6",
"4 	c #9EC3D5",
"5 	c #85A1C9",
"6 	c #ABD8F3",
"7 	c #D0F6FD",
"8 	c #E7FEFD",
"9 	c #E9FBFC",
"0 	c #D1F3FC",
"a 	c #CAECF1",
"b 	c #CBF1F3",
"c 	c #DBFDFD",
"d 	c #C9EEF3",
"e 	c #8288A0",
"f 	c #749BCC",
"g 	c #B3DCF2",
"h 	c #C6F0FC",
"i 	c #CBF1FB",
"j 	c #D1F5FB",
"k 	c #DEFCFD",
"l 	c #CEE8ED",
"m 	c #B8D5DD",
"n 	c #BDD7E0",
"o 	c #BCD8E1",
"p 	c #7D849A",
"q 	c #8C90A6",
"r 	c #7895BD",
"s 	c #B2DEF7",
"t 	c #C4ECFC",
"u 	c #CCF2FC",
"v 	c #D7F9FD",
"w 	c #E1FCFD",
"x 	c #DEF8FB",
"y 	c #E2F6F9",
"z 	c #DDECF2",
"A 	c #CEE2EB",
"B 	c #80869C",
"C 	c #72778C",
"D 	c #6F7C9C",
"E 	c #A7D5F1",
"F 	c #C5EDFE",
"G 	c #C8EEFC",
"H 	c #D6FBFD",
"I 	c #DDFDFC",
"J 	c #E1F7F8",
"K 	c #E2EEF5",
"L 	c #E9F1F6",
"M 	c #B6C0CE",
"N 	c #9699AE",
"O 	c #767D95",
"P 	c #86A3C3",
"Q 	c #C4F2FE",
"R 	c #D0F7FE",
"S 	c #D1F7FC",
"T 	c #D8F8F9",
"U 	c #DDF2F7",
"V 	c #E8F5F9",
"W 	c #E0E7EE",
"X 	c #73748D",
"Y 	c #969CB6",
"Z 	c #81828E",
"` 	c #A4AABE",
" .	c #829EB8",
"..	c #B8E3F0",
"+.	c #CEF7FD",
"@.	c #D2F5F8",
"#.	c #DBF7FB",
"$.	c #C0D2DD",
"%.	c #6F748D",
"&.	c #6E708E",
"*.	c #97929A",
"=.	c #B06F2B",
"-.	c #E6E7EC",
";.	c #D2D3DB",
">.	c #8993AA",
",.	c #76869F",
"'.	c #76869C",
").	c #788399",
"!.	c #9599AC",
"~.	c #AEB0C5",
"{.	c #A99EA0",
"].	c #B87F39",
"^.	c #DE8213",
"/.	c #C06409",
"(.	c #E6E7ED",
"_.	c #FEFEFE",
":.	c #F0F0F5",
"<.	c #EBEBF1",
"[.	c #E7E8F0",
"}.	c #E4E6EE",
"|.	c #E4E7F0",
"1.	c #EDF6FE",
"2.	c #CAA482",
"3.	c #DA9E3C",
"4.	c #F9D170",
"5.	c #DD8619",
"6.	c #B25A08",
"7.	c #E4E6EC",
"8.	c #FBFCFD",
"9.	c #F3F6F8",
"0.	c #F1F3F8",
"a.	c #EEF1F7",
"b.	c #ECEEF6",
"c.	c #E8EBF3",
"d.	c #E4E8F3",
"e.	c #DDDEE4",
"f.	c #C49866",
"g.	c #E1B359",
"h.	c #FDD574",
"i.	c #DB8318",
"j.	c #A45207",
"k.	c #F0F2F7",
"l.	c #EDF0F6",
"m.	c #EBEDF5",
"n.	c #E7EBF2",
"o.	c #E3E7EE",
"p.	c #E4E9F6",
"q.	c #CED0DE",
"r.	c #8E653D",
"s.	c #DDB25A",
"t.	c #FED673",
"u.	c #DC8419",
"v.	c #984B08",
"w.	c #E8E9F0",
"x.	c #FBFCFE",
"y.	c #F8FBFD",
"z.	c #F6F8FC",
"A.	c #F3F6FB",
"B.	c #F0F2F8",
"C.	c #ECEEF7",
"D.	c #D8E2F6",
"E.	c #796358",
"F.	c #DCB764",
"G.	c #E8B355",
"H.	c #8F5A2B",
"I.	c #B5B9C6",
"J.	c #A1A4B5",
"K.	c #A2A7B6",
"L.	c #A1A7B6",
"M.	c #A1A6B6",
"N.	c #A0A4B6",
"O.	c #A0A4B5",
"P.	c #9CA1B2",
"Q.	c #9CA2B2",
"R.	c #979EB1",
"S.	c #7C7F8E",
"T.	c #7D3E09",
"U.	c #835D3A",
"V.	c #56526B",
"      . + @ # $                 ",
"  % & * = - ; > ,               ",
"  ' ) ! ~ { ] ^ / (             ",
"_ : < [ } | 1 2 3 4             ",
"5 6 7 8 9 0 a b c d e           ",
"f g h i j k l m n o p q         ",
"r s t u v w x y z A B C         ",
"D E F G H I J K L M N O         ",
"  P Q R S T U V W X Y Z         ",
"  `  ...+.@.#.$.%.&.*.=.        ",
"  -.;.>.,.'.).!.~.{.].^./.      ",
"  (._.:.<.[.}.|.1.2.3.4.5.6.    ",
"  7.8.9.0.a.b.c.d.e.f.g.h.i.j.  ",
"  7.8.0.k.l.m.n.o.p.q.r.s.t.u.v.",
"  w._.x.y.z.A.B.b.C.D.E.  F.G.H.",
"  I.J.K.L.M.N.O.P.Q.R.S.  T.U.V."};
