/* XPM */
static char * search_previousbookmark_xpm[] = {
"16 16 129 2",
"  	c None",
". 	c #BB702A",
"+ 	c #B35F17",
"@ 	c #C37F3D",
"# 	c #EDD190",
"$ 	c #D7A76F",
"% 	c #B35D13",
"& 	c #C17931",
"* 	c #F0D36F",
"= 	c #FEDE24",
"- 	c #FAD94A",
"; 	c #D6A363",
"> 	c #B35F15",
", 	c #B25B0C",
"' 	c #C27D34",
") 	c #F3D658",
"! 	c #FFDF0B",
"~ 	c #FFD800",
"{ 	c #FFD203",
"] 	c #FDD94A",
"^ 	c #D8A563",
"/ 	c #B25D13",
"( 	c #C98B49",
"_ 	c #F2D75E",
": 	c #FFE10A",
"< 	c #FFDB00",
"[ 	c #FFD600",
"} 	c #FFCF00",
"| 	c #FFCA03",
"1 	c #FBCF48",
"2 	c #D29B60",
"3 	c #AF5608",
"4 	c #B15909",
"5 	c #C88A3E",
"6 	c #F9E668",
"7 	c #FFE60B",
"8 	c #FFDF00",
"9 	c #FFD900",
"0 	c #FFD300",
"a 	c #FFCD00",
"b 	c #FFC700",
"c 	c #FFC204",
"d 	c #F8C33E",
"e 	c #CF9047",
"f 	c #B1590C",
"g 	c #B15A0B",
"h 	c #CA8C3F",
"i 	c #F6E14A",
"j 	c #FFE906",
"k 	c #FFE300",
"l 	c #FFDD00",
"m 	c #FFD700",
"n 	c #FFD100",
"o 	c #FFCA00",
"p 	c #FFC500",
"q 	c #FFBF00",
"r 	c #FFB903",
"s 	c #FAC03F",
"t 	c #CD8D49",
"u 	c #AF570A",
"v 	c #BE7422",
"w 	c #F1DA4B",
"x 	c #FCE709",
"y 	c #FCE001",
"z 	c #FDDD01",
"A 	c #FFDA00",
"B 	c #FFD500",
"C 	c #FFC800",
"D 	c #FFC300",
"E 	c #FAB602",
"F 	c #F8AF03",
"G 	c #F8AB06",
"H 	c #EDAA3A",
"I 	c #C07533",
"J 	c #AF5604",
"K 	c #B76606",
"L 	c #BA6B07",
"M 	c #B96906",
"N 	c #CF8C04",
"O 	c #FCD300",
"P 	c #FFD200",
"Q 	c #FFC600",
"R 	c #FFC000",
"S 	c #D98A06",
"T 	c #BA6105",
"U 	c #BB6205",
"V 	c #BA6005",
"W 	c #B35803",
"X 	c #CA8100",
"Y 	c #FBCF00",
"Z 	c #FFD000",
"` 	c #FFC400",
" .	c #FFBE00",
"..	c #D48306",
"+.	c #AE5300",
"@.	c #CB8100",
"#.	c #FBCD00",
"$.	c #FFC200",
"%.	c #FFBC00",
"&.	c #CB8000",
"*.	c #FBCB00",
"=.	c #FFCB00",
"-.	c #FFBA00",
";.	c #D48106",
">.	c #FBC900",
",.	c #FFC900",
"'.	c #FFBD00",
").	c #FFB800",
"!.	c #D48006",
"~.	c #CB7F00",
"{.	c #FBC700",
"].	c #FFC100",
"^.	c #FFBB00",
"/.	c #FEB400",
"(.	c #D47F06",
"_.	c #C47403",
":.	c #F3B904",
"<.	c #F7B904",
"[.	c #F7B504",
"}.	c #F7AE04",
"|.	c #F5A705",
"1.	c #CE7707",
"2.	c #B25A03",
"3.	c #BE6B04",
"4.	c #BF6B04",
"5.	c #BF6A04",
"6.	c #BF6804",
"7.	c #BF6704",
"8.	c #B65C03",
"              . +               ",
"            @ # $ %             ",
"          & * = - ; >           ",
"      , ' ) ! ~ { ] ^ /         ",
"      ( _ : < [ } | 1 2 3       ",
"  4 5 6 7 8 9 0 a b c d e f     ",
"g h i j k l m n o p q r s t u   ",
"v w x y z A B } C D E F G H I   ",
"J K L M N O P a Q R S T U V W   ",
"        X Y Z o `  ...+.        ",
"        @.#.a C $.%...          ",
"        &.*.=.Q q -.;.          ",
"        &.>.,.` '.).!.          ",
"        ~.{.b ].^./.(.          ",
"        _.:.<.[.}.|.1.          ",
"        2.3.4.5.6.7.8.          "};
