/* XPM */
static char * search_forward_xpm[] = {
"16 16 129 2",
"  	c None",
". 	c #B25B0C",
"+ 	c #BA6D27",
"@ 	c #BD7330",
"# 	c #EBC76F",
"$ 	c #C37504",
"% 	c #BF7736",
"& 	c #FEDC37",
"* 	c #F0B900",
"= 	c #C16F00",
"- 	c #BE7634",
"; 	c #FFDA2F",
"> 	c #FFCD00",
", 	c #F3B700",
"' 	c #C57200",
") 	c #B25800",
"! 	c #B35F14",
"~ 	c #C68545",
"{ 	c #CB8D33",
"] 	c #CB8B2D",
"^ 	c #CB8A2D",
"/ 	c #CA872C",
"( 	c #D29949",
"_ 	c #FFD727",
": 	c #FFCC00",
"< 	c #FFC600",
"[ 	c #F4B200",
"} 	c #C97600",
"| 	c #C27E3B",
"1 	c #FBEF69",
"2 	c #FBE809",
"3 	c #FBE306",
"4 	c #FBDE06",
"5 	c #FBD906",
"6 	c #FBD406",
"7 	c #FCD008",
"8 	c #FFCF03",
"9 	c #FFCA00",
"0 	c #FFC400",
"a 	c #FFBE00",
"b 	c #F9B200",
"c 	c #C87300",
"d 	c #B15600",
"e 	c #C38037",
"f 	c #FFF657",
"g 	c #FFEC00",
"h 	c #FFE700",
"i 	c #FFE200",
"j 	c #FFDC00",
"k 	c #FFD700",
"l 	c #FFD200",
"m 	c #FFC700",
"n 	c #FFC200",
"o 	c #FFBC00",
"p 	c #FFB800",
"q 	c #F6A700",
"r 	c #CB7300",
"s 	c #B35801",
"t 	c #FFF457",
"u 	c #FFEB00",
"v 	c #FFE500",
"w 	c #FFE000",
"x 	c #FFDA00",
"y 	c #FFD500",
"z 	c #FFD000",
"A 	c #FFC500",
"B 	c #FFC000",
"C 	c #FFBA00",
"D 	c #FFB600",
"E 	c #FEAF00",
"F 	c #EB9504",
"G 	c #B95F05",
"H 	c #FFF357",
"I 	c #FFE800",
"J 	c #FFE300",
"K 	c #FFDE00",
"L 	c #FFD800",
"M 	c #FFD300",
"N 	c #FFCE00",
"O 	c #FFC800",
"P 	c #FFC300",
"Q 	c #FEB200",
"R 	c #F09D04",
"S 	c #C46B08",
"T 	c #AD5207",
"U 	c #C27D34",
"V 	c #FBEA52",
"W 	c #FDE201",
"X 	c #FDDD01",
"Y 	c #FDD801",
"Z 	c #FDD201",
"` 	c #FDCD01",
" .	c #FECA01",
"..	c #FFC100",
"+.	c #FEB500",
"@.	c #F3A404",
"#.	c #C76F08",
"$.	c #AE5308",
"%.	c #B56316",
"&.	c #CF9322",
"*.	c #D39707",
"=.	c #D39407",
"-.	c #D39107",
";.	c #D38F07",
">.	c #D38C06",
",.	c #DC9807",
"'.	c #FFC503",
").	c #FFBF00",
"!.	c #FEB900",
"~.	c #F2A504",
"{.	c #C87207",
"].	c #AF5505",
"^.	c #AD5202",
"/.	c #BD732B",
"(.	c #FFCB27",
"_.	c #FEBC00",
":.	c #F4AB04",
"<.	c #CC7708",
"[.	c #B15605",
"}.	c #FECA2F",
"|.	c #F6B004",
"1.	c #CF7D07",
"2.	c #B15705",
"3.	c #BD7232",
"4.	c #F2BA36",
"5.	c #CD7B07",
"6.	c #B25804",
"7.	c #B15A12",
"8.	c #C77E2B",
"              . +               ",
"              @ # $             ",
"              % & * =           ",
"              - ; > , ' )       ",
"! ~ { ] ] ^ / ( _ : < [ }       ",
"| 1 2 3 4 5 6 7 8 9 0 a b c d   ",
"e f g h i j k l : m n o p q r s ",
"e t u v w x y z 9 A B C D E F G ",
"e H I J K L M N O P a p Q R S T ",
"U V W X Y Z `  .< ..o +.@.#.$.  ",
"%.&.*.=.-.;.>.,.'.).!.~.{.].    ",
"            ^./.(._.:.<.[.      ",
"              % }.|.1.2.        ",
"              3.4.5.6.          ",
"              7.8.6.            ",
"                                "};
