/* XPM */
static char * search_back_xpm[] = {
"16 16 131 2",
"  	c None",
". 	c #B15A0B",
"+ 	c #BF762E",
"@ 	c #B15804",
"# 	c #B15909",
"$ 	c #CA8C4B",
"% 	c #F4DA67",
"& 	c #BB6A06",
"* 	c #C88A45",
"= 	c #F6DE66",
"- 	c #FFE00D",
"; 	c #BF7000",
"> 	c #B25B0C",
", 	c #C98B49",
"' 	c #F9E568",
") 	c #FFE306",
"! 	c #FFDD00",
"~ 	c #BE6E00",
"{ 	c #C27E3C",
"] 	c #F2D965",
"^ 	c #FFE60B",
"/ 	c #FFE000",
"( 	c #FFDB00",
"_ 	c #D29013",
": 	c #CA852C",
"< 	c #CB852D",
"[ 	c #CB842D",
"} 	c #CB832D",
"| 	c #C67E32",
"1 	c #B46013",
"2 	c #C17A33",
"3 	c #F3DE72",
"4 	c #FFEA14",
"5 	c #FFE300",
"6 	c #FFDE00",
"7 	c #FFD900",
"8 	c #FCCE03",
"9 	c #FBC906",
"0 	c #FBC406",
"a 	c #FBBE06",
"b 	c #FBBA06",
"c 	c #FBB406",
"d 	c #FBB416",
"e 	c #C36E0C",
"f 	c #C37F3D",
"g 	c #F0DA6F",
"h 	c #FFED11",
"i 	c #FFE700",
"j 	c #FFE100",
"k 	c #FFDC00",
"l 	c #FFD700",
"m 	c #FFD000",
"n 	c #FFCB00",
"o 	c #FFC600",
"p 	c #FFC000",
"q 	c #FFBB00",
"r 	c #FFB500",
"s 	c #FFB000",
"t 	c #C46C00",
"u 	c #B96B25",
"v 	c #E9CD6F",
"w 	c #FEEF1B",
"x 	c #FFEA00",
"y 	c #FFE500",
"z 	c #FFDF00",
"A 	c #FFDA00",
"B 	c #FFD500",
"C 	c #FFCE00",
"D 	c #FFC900",
"E 	c #FFC400",
"F 	c #FFBE00",
"G 	c #FFB900",
"H 	c #FFB300",
"I 	c #FFAE00",
"J 	c #C46B00",
"K 	c #B35E10",
"L 	c #CF9619",
"M 	c #F5DA03",
"N 	c #FEE700",
"O 	c #FFD800",
"P 	c #FFD300",
"Q 	c #FFCC00",
"R 	c #FFC700",
"S 	c #FFC200",
"T 	c #FFBC00",
"U 	c #FFB700",
"V 	c #FFB100",
"W 	c #FFAC00",
"X 	c #B25B01",
"Y 	c #CF9203",
"Z 	c #F6D603",
"` 	c #FEE000",
" .	c #FFD600",
"..	c #FFD100",
"+.	c #FEC801",
"@.	c #FDC201",
"#.	c #FDBD01",
"$.	c #FDB701",
"%.	c #FDB201",
"&.	c #FDAC01",
"*.	c #FBA502",
"=.	c #C26801",
"-.	c #B35C01",
";.	c #D09004",
">.	c #F4CC03",
",.	c #FED800",
"'.	c #DC9702",
").	c #D48703",
"!.	c #D48503",
"~.	c #D48203",
"{.	c #D48003",
"].	c #D47D03",
"^.	c #CF7603",
"/.	c #B65B01",
"(.	c #B25A01",
"_.	c #CB8404",
":.	c #F2C103",
"<.	c #FED000",
"[.	c #BE6A00",
"}.	c #AE5300",
"|.	c #AF5500",
"1.	c #C97E03",
"2.	c #F2BB04",
"3.	c #BF6B00",
"4.	c #B15701",
"5.	c #C77903",
"6.	c #ECAC04",
"7.	c #BD6801",
"8.	c #B05600",
"9.	c #C16D03",
"0.	c #B45B01",
"            . + @               ",
"          # $ % &               ",
"          * = - ;               ",
"      > , ' ) ! ~               ",
"      { ] ^ / ( _ : < [ [ } | 1 ",
"    2 3 4 5 6 7 8 9 0 a b c d e ",
"  f g h i j k l m n o p q r s t ",
"u v w x y z A B C D E F G H I J ",
"K L M N 5 ! O P Q R S T U V W J ",
"  X Y Z ` (  ...+.@.#.$.%.&.*.=.",
"    -.;.>.,.P C '.).!.~.{.].^./.",
"      (._.:.<.Q [.}.            ",
"        |.1.2.+.3.              ",
"          4.5.6.7.              ",
"            8.9.0.              ",
"                                "};
