/* XPM */
static char * goto_xpm[] = {
"16 16 41 1",
" 	c None",
".	c #000000",
"+	c #010101",
"@	c #030303",
"#	c #040404",
"$	c #020202",
"%	c #0C0C0C",
"&	c #111111",
"*	c #1F1F1F",
"=	c #151515",
"-	c #2A2A2A",
";	c #2D2D2D",
">	c #272727",
",	c #3A3A3A",
"'	c #3C3C3C",
")	c #373737",
"!	c #0D0D0D",
"~	c #0F0F0F",
"{	c #121212",
"]	c #171717",
"^	c #3E3E3E",
"/	c #070707",
"(	c #363636",
"_	c #4F4F4F",
":	c #242424",
"<	c #1A1A1A",
"[	c #2F2F2F",
"}	c #060606",
"|	c #050505",
"1	c #141414",
"2	c #131313",
"3	c #191919",
"4	c #101010",
"5	c #0A0A0A",
"6	c #313131",
"7	c #343434",
"8	c #4D4D4D",
"9	c #232323",
"0	c #424242",
"a	c #161616",
"b	c #464646",
"         .++.   ",
"        @###$   ",
"       %&&&&#   ",
"      &****=    ",
"     .-;;;>#    ",
"      %,')!     ",
"    ~{ ]^/      ",
"    (_:   .+.   ",
"    <[! .+$$+   ",
"       $}}}}@   ",
"      |1===2@   ",
"      3::::4    ",
"      5677*     ",
"    #% 289      ",
"    *0* #       ",
"    ab-         "};
