/* XPM */
static char * search_findprevious_xpm[] = {
"16 16 83 1",
" 	c None",
".	c #49BF5A",
"+	c #6DE67D",
"@	c #42AE51",
"#	c #5FDB70",
"$	c #7BF68C",
"%	c #3FA74D",
"&	c #60DC71",
"*	c #67E378",
"=	c #68E479",
"-	c #45BC56",
";	c #3EAF4E",
">	c #43BF54",
",	c #41BD52",
"'	c #2B9D3A",
")	c #61DD72",
"!	c #69E57A",
"~	c #5AD66B",
"{	c #62DE73",
"]	c #59D56A",
"^	c #54D065",
"/	c #41B251",
"(	c #003808",
"_	c #65E176",
":	c #5CD86D",
"<	c #48C459",
"[	c #3FBB50",
"}	c #34B045",
"|	c #2DA93E",
"1	c #40B04F",
"2	c #003307",
"3	c #29A43A",
"4	c #5EDA6F",
"5	c #55D166",
"6	c #4CC85D",
"7	c #38B449",
"8	c #2EAA3F",
"9	c #29A53A",
"0	c #3FAF4F",
"a	c #79A8D5",
"b	c #7CB0D8",
"c	c #42826A",
"d	c #28A239",
"e	c #52CE63",
"f	c #4ECA5F",
"g	c #3DB94E",
"h	c #30AC41",
"i	c #229E33",
"j	c #1F9B30",
"k	c #32A241",
"l	c #003207",
"m	c #72A8D4",
"n	c #9CDFF7",
"o	c #9BE5FA",
"p	c #97D8EB",
"q	c #356D50",
"r	c #1A8B2A",
"s	c #005A0D",
"t	c #004B0B",
"u	c #004A0B",
"v	c #00480A",
"w	c #00470A",
"x	c #74B2DC",
"y	c #AAEAFB",
"z	c #BDF8FD",
"A	c #C4FAFC",
"B	c #198928",
"C	c #004E0B",
"D	c #6AA1C7",
"E	c #99E2F7",
"F	c #CDFCFC",
"G	c #CFE0E6",
"H	c #0E771C",
"I	c #004D0B",
"J	c #7BADC2",
"K	c #9DBFCA",
"L	c #8C94A6",
"M	c #A07348",
"N	c #004A0A",
"O	c #C49344",
"P	c #CE943C",
"Q	c #AC8141",
"R	c #7C5738",
"                ",
"                ",
"        .       ",
"       +@       ",
"      #$%       ",
"     &*=-;>,'   ",
"    )!)~!{]^/(  ",
"   #!_:^<[}|12  ",
"   34#56,78902  ",
" abcdefgh9ijkl  ",
"mnopqr,4stuvw   ",
"xyzA  B^C       ",
"DEFG   HI       ",
" JKLM   N       ",
"    OP          ",
"     QR         "};
