/* XPM */
static char * search_findnext_xpm[] = {
"16 16 84 1",
" 	c None",
".	c #47C358",
"+	c #2F9F3F",
"@	c #72EE83",
"#	c #59D56A",
"$	c #53CF64",
"%	c #4FCB60",
"&	c #4AC65B",
"*	c #70EC81",
"=	c #51CD62",
"-	c #248E33",
";	c #81F190",
">	c #6AE67B",
",	c #67E378",
"'	c #60DC71",
")	c #5AD66B",
"!	c #40BC51",
"~	c #208B2F",
"{	c #7FF18F",
"]	c #68E479",
"^	c #63DF74",
"/	c #5BD76C",
"(	c #55D166",
"_	c #4BC75C",
":	c #44C055",
"<	c #3AB64B",
"[	c #33AF44",
"}	c #157B23",
"|	c #7BEF8A",
"1	c #5DD96E",
"2	c #54D065",
"3	c #4DC95E",
"4	c #43BF54",
"5	c #3BB74C",
"6	c #32AE43",
"7	c #26A237",
"8	c #096B17",
"9	c #79A8D5",
"0	c #6AC0AA",
"a	c #74EF85",
"b	c #76F287",
"c	c #69E57A",
"d	c #64E075",
"e	c #3DB94E",
"f	c #34B045",
"g	c #27A338",
"h	c #0D771C",
"i	c #002105",
"j	c #72A8D4",
"k	c #9CDFF7",
"l	c #7CCFC6",
"m	c #30954F",
"n	c #0C6B1E",
"o	c #00600E",
"p	c #00590D",
"q	c #10741E",
"r	c #3FBB50",
"s	c #28A439",
"t	c #096D17",
"u	c #002205",
"v	c #74B2DC",
"w	c #AAEAFB",
"x	c #BAF3F8",
"y	c #ADDCDD",
"z	c #55636E",
"A	c #3BAB4A",
"B	c #4CC85D",
"C	c #0E7A1D",
"D	c #002305",
"E	c #6AA1C7",
"F	c #99E2F7",
"G	c #CDFCFC",
"H	c #CFE0E6",
"I	c #1D812B",
"J	c #7BADC2",
"K	c #9DBFCA",
"L	c #8C94A6",
"M	c #A07348",
"N	c #157A23",
"O	c #002706",
"P	c #C49344",
"Q	c #CE943C",
"R	c #AC8141",
"S	c #7C5738",
"                ",
"                ",
"       .        ",
"       .+       ",
"       .@+      ",
"   #$%&.*=-     ",
"   ;>,')=&!~    ",
"   {]^/(_:<[}   ",
"   |^12345678   ",
" 90ab*cdefghi   ",
"jklmnopqrstu    ",
"vwxyz  ABCD     ",
"EFGH   !ID      ",
" JKLM  NO       ",
"    PQ          ",
"     RS         "};
