/* XPM */
static char * search_nextbookmark_xpm[] = {
"16 16 122 2",
"  	c None",
". 	c #B46013",
"+ 	c #C37E32",
"@ 	c #C48034",
"# 	c #C47F34",
"$ 	c #B8671C",
"% 	c #C6821A",
"& 	c #FBE852",
"* 	c #FFED57",
"= 	c #FFEA57",
"- 	c #FFE557",
"; 	c #FFE157",
"> 	c #D6982B",
", 	c #CB8800",
"' 	c #FBE100",
") 	c #FFE200",
"! 	c #FFDC00",
"~ 	c #FFD600",
"{ 	c #FFD000",
"] 	c #DC9700",
"^ 	c #FBDF00",
"/ 	c #FFE000",
"( 	c #FFDA00",
"_ 	c #FFD300",
": 	c #FFCD00",
"< 	c #DC9500",
"[ 	c #CB8700",
"} 	c #FBDD00",
"| 	c #FFDD00",
"1 	c #FFD800",
"2 	c #FFD100",
"3 	c #FFCB00",
"4 	c #DC9400",
"5 	c #CB8600",
"6 	c #FBDA00",
"7 	c #FFDB00",
"8 	c #FFD500",
"9 	c #FFCF00",
"0 	c #FFC900",
"a 	c #DC9200",
"b 	c #CA8400",
"c 	c #FBD800",
"d 	c #FFD900",
"e 	c #FFCC00",
"f 	c #FFC600",
"g 	c #DB9100",
"h 	c #AE5300",
"i 	c #B15A0B",
"j 	c #BC712D",
"k 	c #BF7736",
"l 	c #BE7634",
"m 	c #D29519",
"n 	c #FCD801",
"o 	c #FFD700",
"p 	c #FFCA00",
"q 	c #FFC400",
"r 	c #E19B0D",
"s 	c #BE7532",
"t 	c #BD7431",
"u 	c #B35E10",
"v 	c #B86717",
"w 	c #E2BC3F",
"x 	c #FCEA30",
"y 	c #FFEA2F",
"z 	c #FFE318",
"A 	c #FFDA01",
"B 	c #FFD400",
"C 	c #FFCE00",
"D 	c #FFC700",
"E 	c #FFC200",
"F 	c #FFBF0D",
"G 	c #FFC22F",
"H 	c #FEBD2F",
"I 	c #F3B03E",
"J 	c #C88443",
"K 	c #BE7302",
"L 	c #E8C004",
"M 	c #FEE201",
"N 	c #FFDE00",
"O 	c #FFD200",
"P 	c #FFC500",
"Q 	c #FFBF00",
"R 	c #FFB900",
"S 	c #FEB200",
"T 	c #F6A403",
"U 	c #CE7504",
"V 	c #B25701",
"W 	c #BD6F02",
"X 	c #EBBF04",
"Y 	c #FDD901",
"Z 	c #FFC300",
"` 	c #FFBD00",
" .	c #FEB700",
"..	c #F4A503",
"+.	c #D07904",
"@.	c #B35801",
"#.	c #C07202",
"$.	c #EBB804",
"%.	c #FDD001",
"&.	c #FFC000",
"*.	c #FEBA00",
"=.	c #F2A603",
"-.	c #CD7604",
";.	c #B15800",
">.	c #C37603",
",.	c #F0B904",
"'.	c #FEBD00",
").	c #F3AA03",
"!.	c #C97503",
"~.	c #B25801",
"{.	c #C37303",
"].	c #EFB103",
"^.	c #FDBF01",
"/.	c #EDA604",
"(.	c #C77303",
"_.	c #B05600",
":.	c #C57403",
"<.	c #E59E05",
"[.	c #C57103",
"}.	c #B05500",
"|.	c #B96201",
"1.	c #AF5500",
"        . + @ @ # # $           ",
"        % & * = - ; >           ",
"        , ' ) ! ~ { ]           ",
"        , ^ / ( _ : <           ",
"        [ } | 1 2 3 4           ",
"        5 6 7 8 9 0 a           ",
"        b c d _ e f g h         ",
"i j k l m n o 2 p q r s k t u   ",
"v w x y z A B C D E F G H I J   ",
"  K L M N 1 O e P Q R S T U V   ",
"    W X Y 8 9 p Z `  ...+.@.    ",
"      #.$.%.: D &.*.=.-.V       ",
"      ;.>.,.p P '.).!.~.        ",
"          {.].^./.(._.          ",
"          _.:.<.[.}.            ",
"            ~.|.1.              "};
