/* XPM */
static char * kcalc_xpm[] = {
"16 16 135 2",
"  	c None",
". 	c #8681BF",
"+ 	c #8481C5",
"@ 	c #8C8DBD",
"# 	c #8995AF",
"$ 	c #7AA788",
"% 	c #7BA099",
"& 	c #4D4881",
"* 	c #9EA2C3",
"= 	c #8FA4A9",
"- 	c #8EB798",
"; 	c #7CCC7C",
"> 	c #34C52F",
", 	c #1E9822",
"' 	c #626AA1",
") 	c #C2C0DD",
"! 	c #BBBFD3",
"~ 	c #98B5A7",
"{ 	c #90BF93",
"] 	c #99DB97",
"^ 	c #52D551",
"/ 	c #04BD04",
"( 	c #00B800",
"_ 	c #16AA18",
": 	c #7F98B0",
"< 	c #322F6D",
"[ 	c #CEC5ED",
"} 	c #91C097",
"| 	c #55BF51",
"1 	c #5EDD5E",
"2 	c #1ACA19",
"3 	c #01B900",
"4 	c #16B318",
"5 	c #60B869",
"6 	c #B0B3B1",
"7 	c #D1CCED",
"8 	c #5C5FA9",
"9 	c #BBC6D3",
"0 	c #2FB52D",
"a 	c #08BD07",
"b 	c #33BF36",
"c 	c #85CA91",
"d 	c #C2D2E2",
"e 	c #DDB9D8",
"f 	c #FC7276",
"g 	c #E15458",
"h 	c #8C89C6",
"i 	c #222355",
"j 	c #9E9BC8",
"k 	c #B7D8C5",
"l 	c #B0DBBC",
"m 	c #DDDEF2",
"n 	c #E8E3FE",
"o 	c #EBF2FE",
"p 	c #B8A6CA",
"q 	c #D2191E",
"r 	c #CF2E35",
"s 	c #B9BFE9",
"t 	c #4C5097",
"u 	c #5F5F89",
"v 	c #CCC9EE",
"w 	c #F3F0FE",
"x 	c #E4E7FE",
"y 	c #B5B9E4",
"z 	c #B8BDE9",
"A 	c #AAB2E6",
"B 	c #C6C8E9",
"C 	c #D5D6EC",
"D 	c #CAD2F7",
"E 	c #7D82CA",
"F 	c #8D8EC6",
"G 	c #D7DCF7",
"H 	c #BCC2EC",
"I 	c #ABB1E1",
"J 	c #CED3F2",
"K 	c #D8DBF3",
"L 	c #C8CFF3",
"M 	c #D7E0FD",
"N 	c #B5BCEC",
"O 	c #9EA4E4",
"P 	c #414286",
"Q 	c #454577",
"R 	c #B8BCE8",
"S 	c #DEE2FB",
"T 	c #D7DAF1",
"U 	c #C8CBEC",
"V 	c #D6DBF9",
"W 	c #A9B0E4",
"X 	c #AFB6E9",
"Y 	c #BBBFE8",
"Z 	c #C8CEF5",
"` 	c #6B6EBD",
" .	c #7778BF",
"..	c #D6DBF8",
"+.	c #D6DDF9",
"@.	c #AFB6E8",
"#.	c #B0B7E7",
"$.	c #B6BCE4",
"%.	c #C3CAF3",
"&.	c #D2D7F6",
"*.	c #D5DAF8",
"=.	c #9197DD",
"-.	c #363675",
";.	c #3A3B7F",
">.	c #ABB0E4",
",.	c #C4CAF2",
"'.	c #B7BBE6",
").	c #C5CCF5",
"!.	c #E1E4FB",
"~.	c #C5CBF1",
"{.	c #B1BBF0",
"].	c #A6ACE3",
"^.	c #777BCB",
"/.	c #383878",
"(.	c #7476C0",
"_.	c #D7E0FE",
":.	c #E8EBFC",
"<.	c #BBC0EC",
"[.	c #B7BFF0",
"}.	c #A8AEE4",
"|.	c #8287D1",
"1.	c #4A4C98",
"2.	c #1A1B42",
"3.	c #393A7C",
"4.	c #B0B6EB",
"5.	c #C9D0F7",
"6.	c #8F96DC",
"7.	c #5456A3",
"8.	c #222253",
"9.	c #7A7FC8",
"0.	c #A6AEE8",
"a.	c #6163B1",
"b.	c #28285E",
"c.	c #434392",
"d.	c #393980",
"                . +             ",
"            @ # $ % &           ",
"        * = - ; > , '           ",
"  ) ! ~ { ] ^ / ( _ : <         ",
"  [ } | 1 2 3 4 5 6 7 8         ",
"    9 0 a b c d e f g h i       ",
"    j k l m n o p q r s t       ",
"    u v w x y z A B C D E       ",
"      F G H I J K L M N O P     ",
"      Q R S T U V W X Y Z `     ",
"         ...+.@.#.$.%.&.*.=.-.  ",
"        ;.>.,.'.).!.~.{.].^./.  ",
"          (._.:.<.[.}.|.1.2.    ",
"          3.4.5.W 6.7.8.        ",
"            9.0.a.b.            ",
"            c.d.                "};
