/* XPM */
static char * fonts_xpm[] = {
"16 16 107 2",
"  	c None",
". 	c #710C0C",
"+ 	c #D3403F",
"@ 	c #DC4545",
"# 	c #E24242",
"$ 	c #D94141",
"% 	c #D73E3E",
"& 	c #DD4646",
"* 	c #E34747",
"= 	c #EE4A4A",
"- 	c #E53837",
"; 	c #901F1F",
"> 	c #FF7271",
", 	c #CE4848",
"' 	c #BA3F3F",
") 	c #F46261",
"! 	c #FF807F",
"~ 	c #DB4A4A",
"{ 	c #B33D3C",
"] 	c #DE5454",
"^ 	c #FF6968",
"/ 	c #B11A1A",
"( 	c #C92222",
"_ 	c #D02827",
": 	c #F75351",
"< 	c #6B0606",
"[ 	c #D52C2B",
"} 	c #410505",
"| 	c #830505",
"1 	c #640404",
"2 	c #DD1716",
"3 	c #A12625",
"4 	c #5E6363",
"5 	c #676A6A",
"6 	c #606363",
"7 	c #736A6A",
"8 	c #706D6D",
"9 	c #6A6A6A",
"0 	c #686868",
"a 	c #6E6E6E",
"b 	c #6B6B6B",
"c 	c #DE0202",
"d 	c #991818",
"e 	c #5D7171",
"f 	c #353535",
"g 	c #252525",
"h 	c #4A4D4D",
"i 	c #8A8B8B",
"j 	c #444444",
"k 	c #212121",
"l 	c #333333",
"m 	c #717171",
"n 	c #101010",
"o 	c #DC0000",
"p 	c #8A1313",
"q 	c #0F2525",
"r 	c #5D5D5D",
"s 	c #191919",
"t 	c #111111",
"u 	c #D80000",
"v 	c #A60403",
"w 	c #250202",
"x 	c #131313",
"y 	c #313131",
"z 	c #0F0F0F",
"A 	c #010101",
"B 	c #D00000",
"C 	c #FF0000",
"D 	c #7B0000",
"E 	c #030303",
"F 	c #0B0B0B",
"G 	c #D00100",
"H 	c #FF0300",
"I 	c #7C0000",
"J 	c #000000",
"K 	c #CF0A00",
"L 	c #FF1000",
"M 	c #780400",
"N 	c #D21500",
"O 	c #FF2000",
"P 	c #800B00",
"Q 	c #D51B00",
"R 	c #FF2B00",
"S 	c #FF2F00",
"T 	c #EF2700",
"U 	c #B81500",
"V 	c #000303",
"W 	c #070707",
"X 	c #851600",
"Y 	c #7A1300",
"Z 	c #781200",
"` 	c #741000",
" .	c #121616",
"..	c #2D2D2D",
"+.	c #121212",
"@.	c #545454",
"#.	c #292929",
"$.	c #4B4B4B",
"%.	c #666666",
"&.	c #6C6C6C",
"*.	c #636363",
"=.	c #494949",
"-.	c #1F1F1F",
";.	c #1E1E1E",
">.	c #1A1A1A",
",.	c #1B1B1B",
"'.	c #1C1C1C",
". + @ # $ % & * = -             ",
"; > , ' ) ! ~ { ] ^             ",
"/ (     _ : <     [ }           ",
"| 1     2 3 4 5 6 7 8 9 0 a b   ",
"        c d e f g h i j k l m n ",
"        o p q     k r s     g t ",
"        u v w     x y z     A A ",
"        B C D     E F E         ",
"        G H I     J J J         ",
"        K L M     J A J         ",
"        N O P     J J J         ",
"      Q R S T U   V W E         ",
"      X Y Z Y `    ...+.        ",
"                  y @.#.        ",
"                $.%.&.*.=.      ",
"                -.;.>.,.'.      "};
