/* XPM */
static char * rebuild_xpm[] = {
"22 22 257 2",
"  	c None",
". 	c #3995E5",
"+ 	c #449DE8",
"@ 	c #4BA0EA",
"# 	c #479BE7",
"$ 	c #4395E5",
"% 	c #3F8FE2",
"& 	c #3A89E0",
"* 	c #3683DD",
"= 	c #327DDB",
"- 	c #2D77D8",
"; 	c #2971D6",
"> 	c #246BD3",
", 	c #2065D1",
"' 	c #1B5FCE",
") 	c #1759CC",
"! 	c #1253C9",
"~ 	c #0E4DC7",
"{ 	c #0A47C4",
"] 	c #0742C2",
"^ 	c #053FBF",
"/ 	c #0238B2",
"( 	c #0032A4",
"_ 	c #8BCFFF",
": 	c #84C9FF",
"< 	c #7DC1FF",
"[ 	c #75BAFF",
"} 	c #6DB2FF",
"| 	c #65AAFF",
"1 	c #5DA1FF",
"2 	c #5499FF",
"3 	c #4B90FF",
"4 	c #4287FF",
"5 	c #397FFF",
"6 	c #3076FF",
"7 	c #276DFF",
"8 	c #1E64FF",
"9 	c #155BFF",
"0 	c #0C52FF",
"a 	c #044AFF",
"b 	c #0349FF",
"c 	c #0340F1",
"d 	c #0032AB",
"e 	c #4DA3EC",
"f 	c #84C8FF",
"g 	c #7EC2FF",
"h 	c #77BBFF",
"i 	c #70B4FF",
"j 	c #68ADFF",
"k 	c #60A5FF",
"l 	c #589DFF",
"m 	c #5095FF",
"n 	c #488DFF",
"o 	c #3F84FF",
"p 	c #367BFF",
"q 	c #2D73FF",
"r 	c #246AFF",
"s 	c #1C61FF",
"t 	c #1358FF",
"u 	c #0A4FFF",
"v 	c #0343F6",
"w 	c #0132B1",
"x 	c #5BA8EB",
"y 	c #BFE1FF",
"z 	c #BCDEFF",
"A 	c #B9DBFF",
"B 	c #B5D7FF",
"C 	c #B1D4FF",
"D 	c #AED0FF",
"E 	c #AACCFF",
"F 	c #A6C8FF",
"G 	c #A2C4FF",
"H 	c #9DC0FF",
"I 	c #99BCFF",
"J 	c #95B8FF",
"K 	c #90B3FF",
"L 	c #8CAFFF",
"M 	c #87AAFF",
"N 	c #82A5FE",
"O 	c #7FA2FE",
"P 	c #7EA1FD",
"Q 	c #7DA0FD",
"R 	c #7A9AF5",
"S 	c #1D48B3",
"T 	c #6AAFEB",
"U 	c #FFFFFF",
"V 	c #FEFEFF",
"W 	c #FDFDFE",
"X 	c #FBFBFC",
"Y 	c #F9F9FB",
"Z 	c #F7F7FA",
"` 	c #F6F6F9",
" .	c #F0EFF4",
"..	c #385EB5",
"+.	c #69AEEA",
"@.	c #F4F4F8",
"#.	c #EEEDF3",
"$.	c #385DB4",
"%.	c #69ACE9",
"&.	c #FBFBFD",
"*.	c #F2F2F7",
"=.	c #ECEBF2",
"-.	c #375CB4",
";.	c #68AAE8",
">.	c #F1F1F6",
",.	c #E9E9F0",
"'.	c #365BB3",
").	c #67A9E7",
"!.	c #F8F8FB",
"~.	c #F3F3F7",
"{.	c #EFEFF5",
"].	c #E7E7EE",
"^.	c #355AB2",
"/.	c #66A7E6",
"(.	c #F9F9FC",
"_.	c #EDEDF4",
":.	c #E5E5ED",
"<.	c #3459B2",
"[.	c #65A6E5",
"}.	c #F0FBF0",
"|.	c #A7ECA7",
"1.	c #97EF91",
"2.	c #90EC8C",
"3.	c #B4EBB6",
"4.	c #EEF4F1",
"5.	c #ECECF3",
"6.	c #E3E3EC",
"7.	c #3358B1",
"8.	c #64A5E4",
"9.	c #DDF4DD",
"0.	c #48E548",
"a.	c #99FC97",
"b.	c #D5FFD2",
"c.	c #BCFDBB",
"d.	c #52F151",
"e.	c #48DF49",
"f.	c #C3E6C6",
"g.	c #EAEAF2",
"h.	c #E1E1EA",
"i.	c #3358B0",
"j.	c #63A3E3",
"k.	c #FDFEFD",
"l.	c #62DE63",
"m.	c #1BFC1B",
"n.	c #2EFD2E",
"o.	c #35E135",
"p.	c #7DE07F",
"q.	c #83DF85",
"r.	c #4FCB50",
"s.	c #39B13A",
"t.	c #CAE0CF",
"u.	c #E8E8F1",
"v.	c #DFDFE9",
"w.	c #3257B0",
"x.	c #62A2E2",
"y.	c #B4D6B4",
"z.	c #A1D4A2",
"A.	c #19E319",
"B.	c #00FE00",
"C.	c #0ED30E",
"D.	c #86C088",
"E.	c #DAE5DE",
"F.	c #EAEEEF",
"G.	c #A6CFAB",
"H.	c #90C294",
"I.	c #E7E7F0",
"J.	c #DEDDE8",
"K.	c #62A0E1",
"L.	c #59A059",
"M.	c #02D202",
"N.	c #00F400",
"O.	c #00F900",
"P.	c #00E500",
"Q.	c #1A8F1B",
"R.	c #CDDDD1",
"S.	c #F0F0F5",
"T.	c #D6EBDC",
"U.	c #E2ECE7",
"V.	c #E5E5EF",
"W.	c #DCDCE7",
"X.	c #619FE1",
"Y.	c #F1F4F3",
"Z.	c #58A758",
"`.	c #01E001",
" +	c #00EA00",
".+	c #1A9F1B",
"++	c #C2D1C5",
"@+	c #F1F1F7",
"#+	c #C2E4C6",
"$+	c #37E234",
"%+	c #66E167",
"&+	c #E0E7E8",
"*+	c #E3E3EE",
"=+	c #DBDBE6",
"-+	c #609DDF",
";+	c #FAFAFC",
">+	c #EEF0F1",
",+	c #609C62",
"'+	c #248025",
")+	c #C5D0C9",
"!+	c #BFDDC4",
"~+	c #20E021",
"{+	c #55FF55",
"]+	c #3FFC3F",
"^+	c #53D656",
"/+	c #DDE3E6",
"(+	c #E2E2ED",
"_+	c #DAD9E6",
":+	c #5E9ADE",
"<+	c #FAFAFB",
"[+	c #F9F9FA",
"}+	c #F7F6F9",
"|+	c #F5F4F7",
"1+	c #F2F2F6",
"2+	c #F1F0F5",
"3+	c #E2E4E6",
"4+	c #D4DAD9",
"5+	c #EAE9F0",
"6+	c #C5D6CA",
"7+	c #19AE1A",
"8+	c #01F601",
"9+	c #02FF02",
"0+	c #02FD02",
"a+	c #02E902",
"b+	c #4EA951",
"c+	c #D4D3E0",
"d+	c #357FD4",
"e+	c #5791D7",
"f+	c #548CD4",
"g+	c #5188D1",
"h+	c #4E83CE",
"i+	c #4B7ECA",
"j+	c #2B7078",
"k+	c #306C88",
"l+	c #4070BB",
"m+	c #406CBE",
"n+	c #3669A7",
"o+	c #1F6B64",
"p+	c #03BB0A",
"q+	c #00FB00",
"r+	c #05C811",
"s+	c #1F6B70",
"t+	c #23617C",
"u+	c #0C3BA7",
"v+	c #004D00",
"w+	c #005E00",
"x+	c #007000",
"y+	c #009D00",
"z+	c #00E800",
"A+	c #00E700",
"B+	c #008500",
"C+	c #006E00",
"D+	c #00A300",
"E+	c #00CB00",
"F+	c #00DC00",
"G+	c #00C900",
"H+	c #007600",
". + @ # $ % & * = - ; > , ' ) ! ~ { ] ^ / ( ",
"+ _ : < [ } | 1 2 3 4 5 6 7 8 9 0 a b b c d ",
"e f g h i j k l m n o p q r s t u b b b v w ",
"x y z A B C D E F G H I J K L M N O P Q R S ",
"T U U U U U U U U U U U U U V W X Y Z `  ...",
"+.U U U U U U U U U U U U V W X Y Z ` @.#.$.",
"%.U U U U U U U U U U U V W &.Y Z ` @.*.=.-.",
";.U U U U U U U U U U V W &.Y Z ` @.*.>.,.'.",
").U U U U U U U U U V W &.Y !.` @.~.>.{.].^.",
"/.U U U U U U U U U W &.(.!.` @.~.>.{._.:.<.",
"[.U U U U U U U }.|.1.2.3.4.@.~.>.{._.5.6.7.",
"8.U U U U U U 9.0.a.b.c.d.e.f.>.{._.5.g.h.i.",
"j.U U U U U k.l.m.n.o.p.q.r.s.t._.5.g.u.v.w.",
"x.U U U U y.z.A.B.C.D.E.~.F.G.H.5.g.u.I.J.w.",
"K.U U U U L.M.N.O.P.Q.R.S.T.U.5.g.u.I.V.W.w.",
"X.U U U W Y.Z.`. +.+++@+#+$+%+&+u.I.V.*+=+w.",
"-+U U W &.;+>+,+'+)+@+!+~+{+]+^+/+V.*+(+_+w.",
":+<+[+}+|+1+2+3+4+5+6+7+8+9+0+a+b+W.=+_+c+w.",
"d+e+f+g+h+i+j+k+l+m+n+o+p+q+r+s+t+w.w.w.w.u+",
"              v+w+  x+y+z+A+B+              ",
"                C+D+E+F+G+H+                ",
"                                            "};
