/* XPM */
static char * divider_xpm[] = {
"8 22 3 1",
" 	c None",
".	c #A7A6AA",
"+	c #FFFFFF",
"        ",
"        ",
"   .+   ",
"   .+   ",
"   .+   ",
"   .+   ",
"   .+   ",
"   .+   ",
"   .+   ",
"   .+   ",
"   .+   ",
"   .+   ",
"   .+   ",
"   .+   ",
"   .+   ",
"   .+   ",
"   .+   ",
"   .+   ",
"   .+   ",
"   .+   ",
"        ",
"        "};
