/* XPM */
static char * filefind_xpm[] = {
"22 22 275 2",
"  	c None",
". 	c #DBDBE2",
"+ 	c #DADAE1",
"@ 	c #BCCCE3",
"# 	c #A6C3E4",
"$ 	c #98BDE6",
"% 	c #B3C6DE",
"& 	c #C0C6D6",
"* 	c #C3C3CF",
"= 	c #D5D5DD",
"- 	c #AFC4E2",
"; 	c #86BCED",
"> 	c #7DC2F6",
", 	c #8CCFF7",
"' 	c #90D3F8",
") 	c #8FD2F8",
"! 	c #89CEF7",
"~ 	c #98C3E6",
"{ 	c #B2B8C9",
"] 	c #B2B2C2",
"^ 	c #CED0DB",
"/ 	c #A3BEE1",
"( 	c #9AC5EC",
"_ 	c #AED2EA",
": 	c #B2D6EB",
"< 	c #B2D6EA",
"[ 	c #AFD3E7",
"} 	c #ABCEE6",
"| 	c #A8CCE1",
"1 	c #AACDE2",
"2 	c #97D5F5",
"3 	c #A4B2C6",
"4 	c #A6A6B7",
"5 	c #C6C6D1",
"6 	c #AABEDA",
"7 	c #ACD6F9",
"8 	c #C8EAFB",
"9 	c #D1F2FD",
"0 	c #D7F7FD",
"a 	c #D5F5FC",
"b 	c #D0F0FA",
"c 	c #C5E7F8",
"d 	c #B3D6EB",
"e 	c #C0E3F3",
"f 	c #B0D3E2",
"g 	c #A2D6ED",
"h 	c #9CA2B6",
"i 	c #BEBECB",
"j 	c #97BFE6",
"k 	c #C4E5FB",
"l 	c #D1F1FD",
"m 	c #DDFCFE",
"n 	c #E4FEFE",
"o 	c #E4FCFD",
"p 	c #CEEEFA",
"q 	c #D7F6FB",
"r 	c #BBDEED",
"s 	c #C8EAF6",
"t 	c #CBEDF7",
"u 	c #B5D7E3",
"v 	c #9CB8CB",
"w 	c #8F8FA6",
"x 	c #A7B1CA",
"y 	c #9FC9EB",
"z 	c #D7F6FD",
"A 	c #E5FEFE",
"B 	c #F0FEFE",
"C 	c #F2FDFE",
"D 	c #CEEFFB",
"E 	c #DEF7FB",
"F 	c #C3E5EE",
"G 	c #D6F7FB",
"H 	c #DCFCFE",
"I 	c #CFEEF4",
"J 	c #B2D0DD",
"K 	c #86869E",
"L 	c #90A8CC",
"M 	c #AACFEB",
"N 	c #CBECFC",
"O 	c #D8F8FD",
"P 	c #E6FEFE",
"Q 	c #F3FEFE",
"R 	c #E7F9FD",
"S 	c #D5F6FC",
"T 	c #E4F9FC",
"U 	c #CAE9EE",
"V 	c #E0FCFD",
"W 	c #E0FBFC",
"X 	c #D7F4F8",
"Y 	c #8A8BA3",
"Z 	c #7CA1D2",
"` 	c #AED1EA",
" .	c #CCEDFC",
"..	c #CCEEFC",
"+.	c #CFEFFC",
"@.	c #D6F4FD",
"#.	c #D6F6FC",
"$.	c #E1FBFD",
"%.	c #E9FBFC",
"&.	c #BAD4DD",
"*.	c #BCD4DD",
"=.	c #BDD4DD",
"-.	c #BBD4DC",
";.	c #808199",
">.	c #A4A9BB",
",.	c #819CC5",
"'.	c #AED3EB",
").	c #CBEDFC",
"!.	c #D3F3FD",
"~.	c #D8F6FD",
"{.	c #E3FCFE",
"].	c #EAFDFD",
"^.	c #E3FBFD",
"/.	c #E3F7FB",
"(.	c #E6F7FB",
"_.	c #E6F6F9",
":.	c #D8E8EE",
"<.	c #D2E6ED",
"[.	c #82839B",
"}.	c #8A8FA2",
"|.	c #8791AF",
"1.	c #A6CFED",
"2.	c #CDEEFC",
"3.	c #C6E8FB",
"4.	c #D2F2FD",
"5.	c #DBF9FE",
"6.	c #E0FDFE",
"7.	c #E3FDFE",
"8.	c #E6FBFD",
"9.	c #E8F9FB",
"0.	c #E9F6F9",
"a.	c #E6F0F5",
"b.	c #DBE8EE",
"c.	c #CAD9E2",
"d.	c #9092A8",
"e.	c #8B90A3",
"f.	c #84849B",
"g.	c #95BBDD",
"h.	c #CEEFFC",
"i.	c #CFF0FD",
"j.	c #D8F8FE",
"k.	c #DFFDFE",
"l.	c #E4FDFD",
"m.	c #E7FBFC",
"n.	c #E5F4F8",
"o.	c #E8F0F5",
"p.	c #E9EEF3",
"q.	c #E3EBF0",
"r.	c #A0A5B9",
"s.	c #BCBFCE",
"t.	c #7D7D96",
"u.	c #7C89A8",
"v.	c #BDE6FB",
"w.	c #D7F8FD",
"x.	c #DDFBFD",
"y.	c #E1FBFC",
"z.	c #E5F9FB",
"A.	c #E4F3F7",
"B.	c #E8F1F5",
"C.	c #D5DCE3",
"D.	c #5F5F7C",
"E.	c #C8CCD8",
"F.	c #8C91A3",
"G.	c #B1B4C4",
"H.	c #8096B6",
"I.	c #C3EBFB",
"J.	c #D8F7FB",
"K.	c #DBF6F9",
"L.	c #E0F6F9",
"M.	c #E3F4F8",
"N.	c #E6F2F7",
"O.	c #D5DFE7",
"P.	c #70718D",
"Q.	c #818199",
"R.	c #BCBECD",
"S.	c #CFD3DE",
"T.	c #CECED8",
"U.	c #717E9A",
"V.	c #ACD0E2",
"W.	c #CFF4FC",
"X.	c #D6F6FB",
"Y.	c #DAF6FA",
"Z.	c #DDF6F9",
"`.	c #DEF5F8",
" +	c #AEBBC9",
".+	c #5C5E7B",
"++	c #88889F",
"@+	c #A7A7B7",
"#+	c #A49690",
"$+	c #D0821F",
"%+	c #CF7F1B",
"&+	c #FFFFFF",
"*+	c #F3F4F6",
"=+	c #9B9CAF",
"-+	c #6F7692",
";+	c #65738F",
">+	c #65728D",
",+	c #65708B",
"'+	c #6F708A",
")+	c #AAACBD",
"!+	c #D3D4E0",
"~+	c #C9CAD7",
"{+	c #AFA19A",
"]+	c #C68128",
"^+	c #E6A035",
"/+	c #DA8310",
"(+	c #C5781A",
"_+	c #F6F8FA",
":+	c #F5F7FA",
"<+	c #F5F6FA",
"[+	c #F3F5F9",
"}+	c #F1F3F8",
"|+	c #F1F2F8",
"1+	c #EDEFF6",
"2+	c #EBEDF4",
"3+	c #EAEDF3",
"4+	c #E7E9F1",
"5+	c #BF7727",
"6+	c #F1D07C",
"7+	c #F6D78B",
"8+	c #ECA839",
"9+	c #D68010",
"0+	c #BB701A",
"a+	c #F7F8FB",
"b+	c #F2F4F9",
"c+	c #EAECF3",
"d+	c #D4B99F",
"e+	c #CE8D2D",
"f+	c #FDE89B",
"g+	c #F6D688",
"h+	c #D27C0F",
"i+	c #B06919",
"j+	c #E8EAF2",
"k+	c #CFB69F",
"l+	c #C6882E",
"m+	c #FDE99E",
"n+	c #F6D687",
"o+	c #ECA737",
"p+	c #CE790E",
"q+	c #A66219",
"r+	c #E5E7F0",
"s+	c #947E70",
"t+	c #C0842F",
"u+	c #FDE99F",
"v+	c #F6D585",
"w+	c #ECA636",
"x+	c #CA760E",
"y+	c #9C5B19",
"z+	c #E6E8F0",
"A+	c #E3E6EE",
"B+	c #8D92A4",
"C+	c #975719",
"D+	c #B9812F",
"E+	c #FDEBA0",
"F+	c #F6D384",
"G+	c #E6A032",
"H+	c #995D1F",
"I+	c #FBFCFD",
"J+	c #F9FAFC",
"K+	c #F0F2F8",
"L+	c #EEF0F7",
"M+	c #8D5019",
"N+	c #B37C30",
"O+	c #F6DE96",
"P+	c #A06B33",
"Q+	c #8C8085",
"R+	c #D2D6E0",
"S+	c #9A9FB0",
"T+	c #979CAE",
"U+	c #959AAC",
"V+	c #8F94A7",
"W+	c #824919",
"X+	c #884F1B",
"Y+	c #7A6E78",
"Z+	c #5C5C7A",
"      . + @ # $ % & *                       ",
"    = - ; > , ' ) ! ~ { ]                   ",
"  ^ / ( _ : < [ } | 1 2 3 4                 ",
"5 6 7 8 9 0 a b c d e f g h                 ",
"i j k l m n o p q r s t u v w               ",
"x y 8 z A B C D E F G H I J K               ",
"L M N O P Q R S T U V A W X Y               ",
"Z `  ...+.@.#.$.%.&.*.=.=.-.;.>.            ",
",.'.).!.z ~.{.].^./.(._.:.<.[.}.            ",
"|.1.2.3.4.5.6.7.8.9.0.a.b.c.d.e.            ",
"f.g.h. .i.j.k.l.m.n.o.p.q.r.s.e.            ",
"t.u.v.!.9 w.x.y.z.A.B.p.C.D.E.F.            ",
"  G.H.I.j.O J.K.L.M.N.O.P.Q.R.F.            ",
"  S.T.U.V.W.X.Y.Z.`. +.+++@+#+$+%+          ",
"  S.&+*+=+-+;+>+,+'+)+!+~+{+]+^+/+(+        ",
"  S.&+_+:+<+[+}+|+1+2+3+4+5+6+7+8+9+0+      ",
"  S.&+a+:+:+b+}+|+1+2+c+4+d+e+f+g+8+h+i+    ",
"  S.&+a+_+<+[+}+}+1+1+2+j+4+k+l+m+n+o+p+q+  ",
"  S.&+a+_+:+[+}+}+1+1+2+4+4+r+s+t+u+v+w+x+y+",
"  S.&+:+<+[+}+}+|+1+2+3+4+z+A+B+C+D+E+F+G+H+",
"  S.&+I+J+J+_+:+[+}+K+L+2+3+4+B+  M+N+O+P+Q+",
"  R+S+T+T+T+T+T+T+T+T+U+U+U+U+V+    W+X+Y+Z+"};
