/* XPM */
static char * findprevious_xpm[] = {
"24 24 137 2",
"  	c None",
". 	c #4ECA5F",
"+ 	c #50CC61",
"@ 	c #4DC95E",
"# 	c #52CE63",
"$ 	c #89FF99",
"% 	c #4CC85D",
"& 	c #54D065",
"* 	c #68E479",
"= 	c #86FF97",
"- 	c #4BC75C",
"; 	c #55D166",
"> 	c #6AE67B",
", 	c #66E277",
"' 	c #82FE93",
") 	c #4AC65B",
"! 	c #56D267",
"~ 	c #63DF74",
"{ 	c #5DD96E",
"] 	c #49C55A",
"^ 	c #47C358",
"/ 	c #44C055",
"( 	c #43BF54",
"_ 	c #42BE53",
": 	c #41BD52",
"< 	c #40BC51",
"[ 	c #005E0D",
"} 	c #69E57A",
"| 	c #64E075",
"1 	c #60DC71",
"2 	c #59D56A",
"3 	c #79F58A",
"4 	c #75F186",
"5 	c #71ED82",
"6 	c #6CE87D",
"7 	c #65E176",
"8 	c #62DE73",
"9 	c #005C0D",
"0 	c #61DD72",
"a 	c #5BD76C",
"b 	c #39B54A",
"c 	c #32AE43",
"d 	c #2DA93E",
"e 	c #005A0D",
"f 	c #67E378",
"g 	c #57D368",
"h 	c #3BB74C",
"i 	c #35B146",
"j 	c #2FAB40",
"k 	c #2AA63B",
"l 	c #5FDB70",
"m 	c #0C881D",
"n 	c #5EDA6F",
"o 	c #3EBA4F",
"p 	c #36B247",
"q 	c #31AD42",
"r 	c #2CA83D",
"s 	c #28A439",
"t 	c #00590D",
"u 	c #048015",
"v 	c #46C257",
"w 	c #5AD66B",
"x 	c #3AB64B",
"y 	c #33AF44",
"z 	c #2EAA3F",
"A 	c #29A53A",
"B 	c #26A237",
"C 	c #7898C3",
"D 	c #79ACDA",
"E 	c #7DB6E1",
"F 	c #80ADCE",
"G 	c #007811",
"H 	c #4FCB60",
"I 	c #48C459",
"J 	c #30AC41",
"K 	c #2BA73C",
"L 	c #219D32",
"M 	c #1E9A2F",
"N 	c #1B972C",
"O 	c #1A962B",
"P 	c #00570D",
"Q 	c #6989B6",
"R 	c #76BAEA",
"S 	c #98E2FA",
"T 	c #94E0FA",
"U 	c #8CDAF9",
"V 	c #8ABFD6",
"W 	c #006E10",
"X 	c #6DE97E",
"Y 	c #00610E",
"Z 	c #00550C",
"` 	c #00540C",
" .	c #6597C7",
"..	c #95E0FB",
"+.	c #CEFCFD",
"@.	c #B1F0FC",
"#.	c #ADF5FC",
"$.	c #B0F4F8",
"%.	c #7D9AAB",
"&.	c #00680F",
"*.	c #3FBB50",
"=.	c #005F0E",
"-.	c #659DCE",
";.	c #8FDBF9",
">.	c #AAECFB",
",.	c #C1FAFD",
"'.	c #CBFDFD",
").	c #D1FDFD",
"!.	c #899EAF",
"~.	c #239F34",
"{.	c #5D8CB6",
"].	c #88D5F9",
"^.	c #A4EDFC",
"/.	c #C6FDFD",
"(.	c #DDFDFD",
"_.	c #E0EEF1",
":.	c #7E899E",
"<.	c #1C982D",
"[.	c #79B5D1",
"}.	c #A5F0FB",
"|.	c #DBF4F6",
"1.	c #989EB0",
"2.	c #6E6778",
"3.	c #6A8EA5",
"4.	c #7D9DAE",
"5.	c #79889C",
"6.	c #67667E",
"7.	c #9F774E",
"8.	c #C5751A",
"9.	c #B48138",
"0.	c #EAB858",
"a.	c #B86D19",
"b.	c #AB8144",
"c.	c #E1B053",
"d.	c #985A1C",
"e.	c #916939",
"f.	c #705645",
"                                                ",
"                                                ",
"                                                ",
"                        .                       ",
"                      + @                       ",
"                    # $ %                       ",
"                  & * = -                       ",
"                ; > , ' )                       ",
"              ! > * ~ { ] ^ / ( _ : < [         ",
"            ; > } | 1 2 3 4 5 6 * 7 8 9         ",
"          ; > } , 0 a ; @ ^ < b c d 1 e         ",
"        & > } f ~ { g + ] _ h i j k l e         ",
"        m - f | n 2 # % / o p q r s l t         ",
"          u v l w & @ v < x y z A B n t         ",
"  C D E F   G o ; H I J K B L M N O : P         ",
"Q R S T U V   W i ) / X Y 9 e t P Z ` `         ",
" ...+.@.#.$.%.  &.r *.} =.                      ",
"-.;.>.,.'.).!.    Y ~.* [                       ",
"{.].^./.(._.:.      9 <.9                       ",
"  [.}./.|.1.2.        t e                       ",
"    3.4.5.6.7.8.        Z                       ",
"            9.0.a.                              ",
"              b.c.d.                            ",
"                e.f.                            "};
