/* XPM */
static char * findnext_xpm[] = {
"24 24 138 2",
"  	c None",
". 	c #47C358",
"+ 	c #006B0F",
"@ 	c #60DC71",
"# 	c #00660F",
"$ 	c #80FC91",
"% 	c #59D56A",
"& 	c #00610E",
"* 	c #7FFB90",
"= 	c #56D267",
"- 	c #51CD62",
"; 	c #005E0D",
"> 	c #5CD86D",
", 	c #58D469",
"' 	c #54D065",
") 	c #4ECA5F",
"! 	c #4BC75C",
"~ 	c #49C55A",
"{ 	c #46C257",
"] 	c #7DF98E",
"^ 	c #53CF64",
"/ 	c #4FCB60",
"( 	c #005A0D",
"_ 	c #5AD66B",
": 	c #95FFA4",
"< 	c #6BE77C",
"[ 	c #69E57A",
"} 	c #67E378",
"| 	c #62DE73",
"1 	c #5EDA6F",
"2 	c #4AC65B",
"3 	c #44C055",
"4 	c #3EBA4F",
"5 	c #00570D",
"6 	c #93FFA2",
"7 	c #6AE67B",
"8 	c #68E479",
"9 	c #64E075",
"0 	c #5FDB70",
"a 	c #5BD76C",
"b 	c #50CC61",
"c 	c #3FBB50",
"d 	c #39B54A",
"e 	c #34B045",
"f 	c #00550C",
"g 	c #57D368",
"h 	c #65E176",
"i 	c #61DD72",
"j 	c #52CE63",
"k 	c #41BD52",
"l 	c #3AB64B",
"m 	c #35B146",
"n 	c #2FAB40",
"o 	c #2AA63B",
"p 	c #00540C",
"q 	c #55D166",
"r 	c #90FF9F",
"s 	c #66E277",
"t 	c #5DD96E",
"u 	c #4CC85D",
"v 	c #40BC51",
"w 	c #3BB74C",
"x 	c #36B247",
"y 	c #30AC41",
"z 	c #138F24",
"A 	c #89FF99",
"B 	c #63DF74",
"C 	c #4DC95E",
"D 	c #48C459",
"E 	c #42BE53",
"F 	c #3CB84D",
"G 	c #128E23",
"H 	c #7898C3",
"I 	c #79ACDA",
"J 	c #7DB6E1",
"K 	c #83FF94",
"L 	c #81FD92",
"M 	c #7AF68B",
"N 	c #77F388",
"O 	c #73EF84",
"P 	c #70EC81",
"Q 	c #3DB94E",
"R 	c #37B348",
"S 	c #2BA73C",
"T 	c #6989B6",
"U 	c #76BAEA",
"V 	c #98E2FA",
"W 	c #94E0FA",
"X 	c #078318",
"Y 	c #037F14",
"Z 	c #007A11",
"` 	c #007511",
" .	c #007010",
"..	c #32AE43",
"+.	c #2CA83D",
"@.	c #149025",
"#.	c #6597C7",
"$.	c #95E0FB",
"%.	c #CEFCFD",
"&.	c #B1F0FC",
"*.	c #9CDDE4",
"=.	c #7EAFB1",
"-.	c #415059",
";.	c #159126",
">.	c #659DCE",
",.	c #8FDBF9",
"'.	c #AAECFB",
").	c #C1FAFD",
"!.	c #C4F5F5",
"~.	c #BDE5E5",
"{.	c #718291",
"].	c #5D8CB6",
"^.	c #88D5F9",
"/.	c #A4EDFC",
"(.	c #C6FDFD",
"_.	c #DDFDFD",
":.	c #E0EEF1",
"<.	c #7E899E",
"[.	c #00590D",
"}.	c #79B5D1",
"|.	c #A5F0FB",
"1.	c #DBF4F6",
"2.	c #989EB0",
"3.	c #6E6778",
"4.	c #6A8EA5",
"5.	c #7D9DAE",
"6.	c #79889C",
"7.	c #67667E",
"8.	c #9F774E",
"9.	c #C5751A",
"0.	c #B48138",
"a.	c #EAB858",
"b.	c #B86D19",
"c.	c #AB8144",
"d.	c #E1B053",
"e.	c #985A1C",
"f.	c #916939",
"g.	c #705645",
"                                                ",
"                                                ",
"                                                ",
"                      .                         ",
"                      . +                       ",
"                      . @ #                     ",
"                      . $ % &                   ",
"                      . * = - ;                 ",
"        > , ' - ) ! ~ { ] ^ / ~ (               ",
"        _ : < [ } | 1 % ' / 2 3 4 5             ",
"        % 6 7 8 9 0 a = b ! 3 c d e f           ",
"        g 6 [ h i > g j ! { k l m n o p         ",
"        q r s i t g j u . v w x y o z p         ",
"        ^ A B 1 , ^ C D E F x y o G p           ",
"  H I J - K L ] M N O P Q R y S z p             ",
"T U V W X Y Z `  .+ # & R ..+.@.f               ",
"#.$.%.&.*.=.-.        k s +.;.5                 ",
">.,.'.).!.~.{.        k B ;.5                   ",
"].^./.(._.:.<.        v Q [.                    ",
"  }.|.(.1.2.3.        c [.                      ",
"    4.5.6.7.8.9.      (                         ",
"            0.a.b.                              ",
"              c.d.e.                            ",
"                f.g.                            "};
