/* XPM */
static char * goto_xpm[] = {
"22 22 57 1",
" 	c None",
".	c #010101",
"+	c #020202",
"@	c #060606",
"#	c #090909",
"$	c #080808",
"%	c #0D0D0D",
"&	c #121212",
"*	c #131313",
"=	c #101010",
"-	c #0F0F0F",
";	c #1D1D1D",
">	c #0A0A0A",
",	c #242424",
"'	c #282828",
")	c #202020",
"!	c #050505",
"~	c #2A2A2A",
"{	c #313131",
"]	c #0E0E0E",
"^	c #383838",
"/	c #3D3D3D",
"(	c #3C3C3C",
"_	c #353535",
":	c #111111",
"<	c #070707",
"[	c #030303",
"}	c #4A4A4A",
"|	c #3A3A3A",
"1	c #232323",
"2	c #373737",
"3	c #222222",
"4	c #3B3B3B",
"5	c #545454",
"6	c #212121",
"7	c #494949",
"8	c #303030",
"9	c #0B0B0B",
"0	c #0C0C0C",
"a	c #040404",
"b	c #151515",
"c	c #171717",
"d	c #191919",
"e	c #1E1E1E",
"f	c #2D2D2D",
"g	c #2B2B2B",
"h	c #393939",
"i	c #1F1F1F",
"j	c #141414",
"k	c #404040",
"l	c #424242",
"m	c #323232",
"n	c #262626",
"o	c #595959",
"p	c #343434",
"q	c #3F3F3F",
"r	c #181818",
"             ...      ",
"           .++++.     ",
"         .@####$+     ",
"        .%&****=+     ",
"       .-;;;;;;-      ",
"       >,''''')!      ",
"       %~{{{{~]       ",
"        *^/(_:        ",
"     <].['}|*.        ",
"    [121!@3@          ",
"    <455~ .   ...     ",
"    .678<   .+++.     ",
"          .+[[[[+     ",
"         !900009a     ",
"        @bccccc&+     ",
"       +d33333)#      ",
"       aeffffgc+      ",
"      . <f|h2ia       ",
"     [-a jkli.        ",
"     jmn<+dj+         ",
"     n5op             ",
"     &q|r             "};
