/* XPM */
static char * redo_xpm[] = {
"22 22 66 1",
" 	c None",
".	c #11AB00",
"+	c #14AD00",
"@	c #16AE00",
"#	c #53C440",
"$	c #35B920",
"%	c #13AD00",
"&	c #009F00",
"*	c #0EA70D",
"=	c #5DCB5C",
"-	c #B4EEB3",
";	c #E2FFE2",
">	c #88DD87",
",	c #28B327",
"'	c #01A000",
")	c #009900",
"!	c #45C645",
"~	c #9FF99F",
"{	c #ABFFAB",
"]	c #009200",
"^	c #26B426",
"/	c #2AB32A",
"(	c #119F11",
"_	c #099809",
":	c #32BA32",
"<	c #5CE35C",
"[	c #75FF75",
"}	c #28BB28",
"|	c #009100",
"1	c #008A00",
"2	c #008C00",
"3	c #1CB51C",
"4	c #3FFF3F",
"5	c #3AF83A",
"6	c #069906",
"7	c #008200",
"8	c #008300",
"9	c #008400",
"0	c #08B108",
"a	c #0CFF0C",
"b	c #06C906",
"c	c #007C00",
"d	c #00D000",
"e	c #00F600",
"f	c #00DF00",
"g	c #007B00",
"h	c #007400",
"i	c #00BF00",
"j	c #00EC00",
"k	c #00CC00",
"l	c #00E100",
"m	c #00B600",
"n	c #006D00",
"o	c #006C00",
"p	c #00C200",
"q	c #00D700",
"r	c #00AD00",
"s	c #006500",
"t	c #00B800",
"u	c #00A300",
"v	c #005E00",
"w	c #006200",
"x	c #00AF00",
"y	c #009C00",
"z	c #005B00",
"A	c #006100",
"                      ",
"                      ",
"                      ",
"                      ",
"      .+@#$@%         ",
"    &*=-;;;;>,'       ",
"   )!~{{{{{{{{!)      ",
"  ]^/(]]_:<[[[[}|     ",
" 111     21344456     ",
"78         90aaab8    ",
"c           cdeefg    ",
"         h8]]ijjj)]]gh",
"          hklllllllmn ",
"           opqqqqqrs  ",
"            stkkkuv   ",
"             wxpyz    ",
"              A1z     ",
"              zz      ",
"                      ",
"                      ",
"                      ",
"                      "};
