/* XPM */
static char * reload_xpm[] = {
"22 22 160 2",
"  	c None",
". 	c #A54501",
"+ 	c #AE5410",
"@ 	c #A34606",
"# 	c #C37B33",
"$ 	c #F9CE90",
"% 	c #D4904F",
"& 	c #A94C05",
"* 	c #C77D23",
"= 	c #F6C353",
"- 	c #FFD766",
"; 	c #FFE091",
"> 	c #D59353",
", 	c #A84D10",
"' 	c #A44603",
") 	c #F4B432",
"! 	c #FFDB47",
"~ 	c #FFD140",
"{ 	c #FFC335",
"] 	c #FFC860",
"^ 	c #FFD086",
"/ 	c #FECB8F",
"( 	c #E39E66",
"_ 	c #AF5519",
": 	c #B5600F",
"< 	c #FAC137",
"[ 	c #FFD240",
"} 	c #FFC239",
"| 	c #FFB935",
"1 	c #FFB536",
"2 	c #FFAD43",
"3 	c #FFBE75",
"4 	c #FEBE89",
"5 	c #BD662B",
"6 	c #AF570A",
"7 	c #F6B934",
"8 	c #FFC73C",
"9 	c #F8B434",
"0 	c #DF8F22",
"a 	c #FBA52A",
"b 	c #FF9D28",
"c 	c #FFA04D",
"d 	c #FFB47A",
"e 	c #B85B1E",
"f 	c #AA5007",
"g 	c #F4B131",
"h 	c #F2AD2F",
"i 	c #983700",
"j 	c #AB4E07",
"k 	c #DB841E",
"l 	c #FF9825",
"m 	c #FF9746",
"n 	c #F69852",
"o 	c #A44303",
"p 	c #B05817",
"q 	c #BC6F33",
"r 	c #B66425",
"s 	c #A14001",
"t 	c #AA5108",
"u 	c #D27C18",
"v 	c #DA7F1C",
"w 	c #FF9228",
"x 	c #FF9440",
"y 	c #C55F19",
"z 	c #EE8928",
"A 	c #FFD884",
"B 	c #F7CB99",
"C 	c #A03E00",
"D 	c #9C3900",
"E 	c #A74905",
"F 	c #FA9726",
"G 	c #FF8623",
"H 	c #ED741C",
"I 	c #EF8319",
"J 	c #FFC156",
"K 	c #EDB980",
"L 	c #DF811D",
"M 	c #FF8C24",
"N 	c #FC7B1B",
"O 	c #A94503",
"P 	c #E77C18",
"Q 	c #FFB850",
"R 	c #F6BC79",
"S 	c #A34000",
"T 	c #CE7417",
"U 	c #FF9026",
"V 	c #FF7F1E",
"W 	c #B14A05",
"X 	c #CF6812",
"Y 	c #FFA93C",
"Z 	c #FFC57B",
"` 	c #B65B13",
" .	c #D27919",
"..	c #FF9427",
"+.	c #FF811F",
"@.	c #B04905",
"#.	c #B55209",
"$.	c #FF9929",
"%.	c #FFBA65",
"&.	c #E69546",
"*.	c #9B3600",
"=.	c #AC4F0A",
"-.	c #AB4D07",
";.	c #BB5D0D",
">.	c #D06412",
",.	c #CD5C0D",
"'.	c #A54101",
").	c #E87D1A",
"!.	c #FF9F37",
"~.	c #FFB767",
"{.	c #D77F34",
"].	c #9F3C00",
"^.	c #C77939",
"/.	c #F8C795",
"(.	c #AC4F0D",
"_.	c #AF4E07",
":.	c #FD8F22",
"<.	c #FF9A37",
"[.	c #FFB262",
"}.	c #EF9E55",
"|.	c #C06724",
"1.	c #DB9353",
"2.	c #FFE2B5",
"3.	c #F7C797",
"4.	c #AF5618",
"5.	c #B8550A",
"6.	c #FE8F22",
"7.	c #FF942B",
"8.	c #FFA249",
"9.	c #FFB56A",
"0.	c #FFC488",
"a.	c #FFA74B",
"b.	c #FFAF55",
"c.	c #F9C692",
"d.	c #B35F24",
"e.	c #B24F07",
"f.	c #EB7E1B",
"g.	c #FF9023",
"h.	c #FF9025",
"i.	c #FF912C",
"j.	c #FF9028",
"k.	c #FF8E1F",
"l.	c #FFA13B",
"m.	c #FFBB79",
"n.	c #B0581D",
"o.	c #B65309",
"p.	c #D16A14",
"q.	c #FE8C23",
"r.	c #FF8B23",
"s.	c #FF8D24",
"t.	c #F27C19",
"u.	c #C45D10",
"v.	c #A64B0F",
"w.	c #B04D07",
"x.	c #FF9627",
"y.	c #F07E1C",
"z.	c #BE570B",
"A.	c #A13E00",
"B.	c #AF4B06",
"C.	c #9E3D00",
"                                            ",
"                      . +                   ",
"                  @ # $ %                   ",
"              & * = - ; > ,                 ",
"            ' ) ! ~ { ] ^ / ( _             ",
"              : < [ } | 1 2 3 4 5           ",
"                6 7 8 9 0 a b c d e         ",
"                  f g h i j k l m n o       ",
"    p q r s         t u       v w x y       ",
"    z A B C           D       E F G H       ",
"    I J K                       L M N O     ",
"    P Q R S                     T U V W     ",
"    X Y Z `                      ...+.@.    ",
"    #.$.%.&.*.    =.-.          ;.>.,.'.    ",
"      ).!.~.{.].  ^./.(.                    ",
"      _.:.<.[.}.|.1.2.3.4.                  ",
"        5.6.7.8.9.0.a.b.c.d.                ",
"          e.f.g.h.i.j.k.l.m.n.              ",
"              o.p.q.r.s.t.u.v.              ",
"                w.x.y.z.A.                  ",
"                B.z.C.                      ",
"                                            "};
