/* XPM */
static char * run_xpm[] = {
"22 22 184 2",
"  	c None",
". 	c #156DC8",
"+ 	c #0D96DB",
"@ 	c #1563C3",
"# 	c #1454BB",
"$ 	c #0794EB",
"% 	c #00E1FF",
"& 	c #08AEE6",
"* 	c #1079CD",
"= 	c #1166C3",
"- 	c #02CFF6",
"; 	c #0999DC",
"> 	c #1251B8",
", 	c #108ED8",
"' 	c #0F8DD7",
") 	c #1663C3",
"! 	c #04BFF3",
"~ 	c #00DFFF",
"{ 	c #02D8FD",
"] 	c #0AC4F6",
"^ 	c #0BC6F7",
"/ 	c #09CDF9",
"( 	c #02CDF6",
"_ 	c #0E62C0",
": 	c #195EC1",
"< 	c #00C5FF",
"[ 	c #00D9FF",
"} 	c #149CEA",
"| 	c #2770D8",
"1 	c #2A72D5",
"2 	c #2C75D6",
"3 	c #307BDA",
"4 	c #348CE4",
"5 	c #20ABEE",
"6 	c #0C85D4",
"7 	c #0791DA",
"8 	c #0A63C1",
"9 	c #1261D0",
"0 	c #0075FF",
"a 	c #00C6FF",
"b 	c #00D3FF",
"c 	c #1499EA",
"d 	c #2B79D8",
"e 	c #3181D4",
"f 	c #398BDE",
"g 	c #3CA0EC",
"h 	c #0EC9FC",
"i 	c #049EE2",
"j 	c #0B46B1",
"k 	c #175BBF",
"l 	c #086CE7",
"m 	c #00CCFF",
"n 	c #2977DB",
"o 	c #3997DD",
"p 	c #3793DB",
"q 	c #3792DB",
"r 	c #3894DC",
"s 	c #3A98DE",
"t 	c #3D9AE1",
"u 	c #49A8F0",
"v 	c #139CE4",
"w 	c #0A44B0",
"x 	c #1468C7",
"y 	c #0B8FDE",
"z 	c #089CE6",
"A 	c #0AB1F6",
"B 	c #3186DF",
"C 	c #41AAE6",
"D 	c #42AFE7",
"E 	c #46AFEA",
"F 	c #42B7F7",
"G 	c #057BD2",
"H 	c #0841AE",
"I 	c #0F74D2",
"J 	c #00C0FF",
"K 	c #03BBFD",
"L 	c #2F7BDF",
"M 	c #4BC5F1",
"N 	c #57BEF5",
"O 	c #18BFFD",
"P 	c #02A7F0",
"Q 	c #055EC0",
"R 	c #0B71DE",
"S 	c #00A7FF",
"T 	c #00B9FF",
"U 	c #2A8CE7",
"V 	c #53DAF9",
"W 	c #54DCFA",
"X 	c #58D5FA",
"Y 	c #33BEFD",
"Z 	c #0292E5",
"` 	c #053BAA",
" .	c #0E5FD1",
"..	c #009CFF",
"+.	c #00B3FF",
"@.	c #0EA8F8",
"#.	c #3D8DE6",
"$.	c #58E7FF",
"%.	c #5CDFFE",
"&.	c #35BDFE",
"*.	c #0445BA",
"=.	c #1357BF",
"-.	c #0C64D4",
";.	c #086CE0",
">.	c #008BFF",
",.	c #00ADFF",
"'.	c #259EF3",
").	c #469AEB",
"!.	c #62D9FF",
"~.	c #30BAFF",
"{.	c #0190EA",
"].	c #0439A9",
"^.	c #1150B8",
"/.	c #0583E8",
"(.	c #00A6FF",
"_.	c #25A2F6",
":.	c #4FA6F0",
"<.	c #61DBFF",
"[.	c #5EC9FF",
"}.	c #07A8FF",
"|.	c #017CDE",
"1.	c #023EAD",
"2.	c #104EB6",
"3.	c #0585E8",
"4.	c #00A0FF",
"5.	c #0AA1FD",
"6.	c #37AAF8",
"7.	c #56B6F7",
"8.	c #62BFF9",
"9.	c #67C5FC",
"0.	c #6BCAFE",
"a.	c #4BBDFF",
"b.	c #0EA5FF",
"c.	c #015DC7",
"d.	c #0D61C4",
"e.	c #00A5FF",
"f.	c #0099FF",
"g.	c #13A0FE",
"h.	c #1AA4FF",
"i.	c #00AEFF",
"j.	c #0046B6",
"k.	c #0A71CC",
"l.	c #00C3FF",
"m.	c #00A8FF",
"n.	c #00BEFF",
"o.	c #00A2FF",
"p.	c #0095FF",
"q.	c #0097F9",
"r.	c #00B1F4",
"s.	c #0068C6",
"t.	c #0032A4",
"u.	c #0E4AB3",
"v.	c #059EE2",
"w.	c #02B8F0",
"x.	c #095FBF",
"y.	c #0677CD",
"z.	c #01CAFA",
"A.	c #00B2FF",
"B.	c #007DE9",
"C.	c #0033A5",
"D.	c #0C46B1",
"E.	c #0B45B0",
"F.	c #084BB3",
"G.	c #01C2F0",
"H.	c #00DCFF",
"I.	c #00E0FF",
"J.	c #00D7FF",
"K.	c #009AFF",
"L.	c #003EAF",
"M.	c #038FD5",
"N.	c #00A3FF",
"O.	c #026DD9",
"P.	c #0338A8",
"Q.	c #0176C8",
"R.	c #00C9FF",
"S.	c #0061C6",
"T.	c #00CCF4",
"U.	c #0343AE",
"V.	c #0134A6",
"W.	c #00A0DD",
"X.	c #0074C6",
"Y.	c #0446B0",
"Z.	c #0363BE",
"`.	c #0257B8",
"                                            ",
"            . + @     #                     ",
"            $ % & * = - ; >                 ",
"      , ' ) ! ~ { ] ^ / ( _                 ",
"    : < [ [ [ } | 1 2 3 4 5 6 7 8           ",
"    9 0 a b c d e e e e e f g h i j         ",
"    k l m m n o p q r o s s t u v w         ",
"  x y z a A B           C D D E F G H       ",
"  I J J J K L               M M N O P Q     ",
"  R S T T T U               V W X Y T Z `   ",
"   .0 0 ..+.@.#.              $.%.&.+.*.    ",
"  =.-.;.>.,.,.'.).            $.!.~.{.].    ",
"      ^./.(.(.(._.:.          <.[.}.(.|.1.  ",
"      2.3.4.4.4.4.5.6.7.8.9.0.a.b.4.4.4.c.  ",
"      d.e.f.f.4.f.f.f.f.g.h.f.f.f.f.i.,.j.  ",
"      k.l.m.i.l.n.o.p.p.p.p.p.p.p.q.r.s.t.  ",
"      u.v.w.x.y.z.b p.p.p.o.A.o.p.B.C.t.    ",
"        D.E.    F.G.p.p.p.H.I.J.K.p.L.      ",
"                  M.A.N.O.P.Q.% R.S.t.      ",
"                  M.% T.U.  V.W.X.t.        ",
"                  Y.Z.`.      t.            ",
"                                            "};
