/* XPM */
static char * filesaveas_xpm[] = {
"22 22 272 2",
"  	c None",
". 	c #A2A2C5",
"+ 	c #8787AE",
"@ 	c #F23332",
"# 	c #8585AD",
"$ 	c #D6D6E9",
"% 	c #8181A9",
"& 	c #8585AF",
"* 	c #9D9DC3",
"= 	c #9C6141",
"- 	c #FE6B2B",
"; 	c #F7692C",
"> 	c #A73827",
", 	c #9E9EC3",
"' 	c #B1B1D2",
") 	c #D5D5E8",
"! 	c #9090B9",
"~ 	c #9393BB",
"{ 	c #8C8CB6",
"] 	c #7474A0",
"^ 	c #7D7DAA",
"/ 	c #9494BE",
"( 	c #81888E",
"_ 	c #BAB9C0",
": 	c #935937",
"< 	c #FF752D",
"[ 	c #7F7FA9",
"} 	c #D4D4E8",
"| 	c #8989B3",
"1 	c #FEFEFF",
"2 	c #E7E7F3",
"3 	c #8686B2",
"4 	c #9090BA",
"5 	c #8383AF",
"6 	c #656596",
"7 	c #676799",
"8 	c #8383B3",
"9 	c #525E72",
"0 	c #F4F4F5",
"a 	c #E8F0FB",
"b 	c #66666B",
"c 	c #7E4020",
"d 	c #7A7AA5",
"e 	c #D3D3E7",
"f 	c #8686B1",
"g 	c #E8E8F3",
"h 	c #E5E5F2",
"i 	c #7A7AAB",
"j 	c #7B7BAC",
"k 	c #B69040",
"l 	c #BCAB5E",
"m 	c #9DADB6",
"n 	c #A5A5A6",
"o 	c #4D5155",
"p 	c #9393BD",
"q 	c #B6B6D5",
"r 	c #D1D1E6",
"s 	c #71719F",
"t 	c #FEFEFE",
"u 	c #E3C372",
"v 	c #EBD652",
"w 	c #FA9338",
"x 	c #8E4543",
"y 	c #44474A",
"z 	c #4B4B6D",
"A 	c #64649D",
"B 	c #7878A6",
"C 	c #D0D0E6",
"D 	c #D0D0E5",
"E 	c #7E7EAC",
"F 	c #F6F8FB",
"G 	c #E7CA82",
"H 	c #E9D04C",
"I 	c #FBA94F",
"J 	c #FF6A2A",
"K 	c #8F3E1A",
"L 	c #565976",
"M 	c #C7C7E0",
"N 	c #4B4B86",
"O 	c #6B6B9B",
"P 	c #C3C3DE",
"Q 	c #7A7AA9",
"R 	c #E6E6F2",
"S 	c #E9CE89",
"T 	c #E6CA46",
"U 	c #FCB254",
"V 	c #FF6527",
"W 	c #B95F25",
"X 	c #786964",
"Y 	c #7D7DB0",
"Z 	c #BDBDDA",
"` 	c #51518C",
" .	c #8787B5",
"..	c #9A9AC3",
"+.	c #C1C1DC",
"@.	c #646496",
"#.	c #F1F2F9",
"$.	c #EDD69B",
"%.	c #E4C43F",
"&.	c #FCBB59",
"*.	c #FF6427",
"=.	c #C26126",
"-.	c #5B4D46",
";.	c #8282B3",
">.	c #6A6A9D",
",.	c #A9A9CD",
"'.	c #ABABCE",
").	c #5E5E91",
"!.	c #8484B3",
"~.	c #FCFCFD",
"{.	c #F2E2BB",
"].	c #E0BB36",
"^.	c #FCC760",
"/.	c #FE6326",
"(.	c #D06528",
"_.	c #877659",
":.	c #626299",
"<.	c #7E7EB1",
"[.	c #CDCDE4",
"}.	c #454580",
"|.	c #5D5D92",
"1.	c #A1A1C8",
"2.	c #A3A3C9",
"3.	c #A1A1C9",
"4.	c #8E8EBB",
"5.	c #7777A2",
"6.	c #58588E",
"7.	c #9797C1",
"8.	c #DEB12D",
"9.	c #FCCE63",
"0.	c #FC6326",
"a.	c #D96729",
"b.	c #86744F",
"c.	c #7C7CAD",
"d.	c #7070A0",
"e.	c #A3A3BD",
"f.	c #404071",
"g.	c #7D7DAF",
"h.	c #8585B6",
"i.	c #9898C3",
"j.	c #9C9CC5",
"k.	c #9D9DC6",
"l.	c #9A9AC4",
"m.	c #B6B4BF",
"n.	c #9E9EC7",
"o.	c #8B8AB2",
"p.	c #FFEC78",
"q.	c #F96327",
"r.	c #E1692A",
"s.	c #715D3A",
"t.	c #BABAC6",
"u.	c #3B3B6A",
"v.	c #61618B",
"w.	c #9696AD",
"x.	c #373765",
"y.	c #040404",
"z.	c #54548C",
"A.	c #9090BD",
"B.	c #595990",
"C.	c #504F86",
"D.	c #67679D",
"E.	c #9696C1",
"F.	c #9393BF",
"G.	c #ACA298",
"H.	c #F2DC8D",
"I.	c #DB6525",
"J.	c #5D4522",
"K.	c #4B4B75",
"L.	c #34345D",
"M.	c #57577B",
"N.	c #59597E",
"O.	c #9797A9",
"P.	c #292957",
"Q.	c #51518A",
"R.	c #8686B7",
"S.	c #7A7AAD",
"T.	c #8383B4",
"U.	c #EAE8EC",
"V.	c #9F9FC8",
"W.	c #55558E",
"X.	c #5A5A93",
"Y.	c #1F263A",
"Z.	c #795340",
"`.	c #7D5507",
" +	c #5E5E82",
".+	c #5F5F85",
"++	c #5E5E86",
"@+	c #60608B",
"#+	c #5F5F8D",
"$+	c #A3A3BC",
"%+	c #49497E",
"&+	c #7575A9",
"*+	c #7474A9",
"=+	c #5B5B94",
"-+	c #A2A2CA",
";+	c #F1F1F8",
">+	c #EFEFF7",
",+	c #D8D8EB",
"'+	c #8A8ABA",
")+	c #4F4F89",
"!+	c #4F4F8A",
"~+	c #7C7CAF",
"{+	c #7777AB",
"]+	c #7474AA",
"^+	c #6F6FA6",
"/+	c #BBBBD9",
"(+	c #464683",
"_+	c #36366E",
":+	c #51518B",
"<+	c #F4F4F9",
"[+	c #EAEAF4",
"}+	c #DBDBEC",
"|+	c #E4E4F1",
"1+	c #EDEDF6",
"2+	c #E1E1EF",
"3+	c #585892",
"4+	c #42427E",
"5+	c #4A4A86",
"6+	c #61619B",
"7+	c #6B6BA3",
"8+	c #CBCBE3",
"9+	c #454582",
"0+	c #63639C",
"a+	c #4A4A85",
"b+	c #484883",
"c+	c #F2F2F8",
"d+	c #D7D7EA",
"e+	c #CFCFE5",
"f+	c #BEBEDC",
"g+	c #5A5A94",
"h+	c #8888B9",
"i+	c #8484B6",
"j+	c #40407C",
"k+	c #63639D",
"l+	c #BCBCDA",
"m+	c #5C5C97",
"n+	c #7070A7",
"o+	c #4C4C88",
"p+	c #484884",
"q+	c #A9A9CF",
"r+	c #C5C5DF",
"s+	c #BDBDDB",
"t+	c #BABAD8",
"u+	c #8D8DBC",
"v+	c #4B4B87",
"w+	c #7F7FB2",
"x+	c #8E8EBD",
"y+	c #565692",
"z+	c #555591",
"A+	c #BBBBDA",
"B+	c #444481",
"C+	c #474783",
"D+	c #A9A9CE",
"E+	c #8787B8",
"F+	c #8B8BBB",
"G+	c #575793",
"H+	c #C9C9E1",
"I+	c #363673",
"J+	c #6E6EA5",
"K+	c #494986",
"L+	c #494985",
"M+	c #9797C3",
"N+	c #3A3A77",
"O+	c #545490",
"P+	c #494987",
"Q+	c #6C6CA4",
"R+	c #484885",
"S+	c #434381",
"T+	c #474784",
"U+	c #424280",
"V+	c #6B6BA4",
"W+	c #5B5B97",
"          . +                         @ @   ",
"          # $ % & *                 = - ; > ",
"        , ' ) ! ~ { ] ^ /         ( _ : < > ",
"        [ } } | 1 2 3 4 5 6 7 8 9 0 a b c   ",
"        d e f g 1 1 1 1 h i j k l m n o     ",
"      p q r s t 1 1 1 0 1 1 u v w x y z A   ",
"      B C D E 1 1 1 1 F 1 G H I J K L M N   ",
"      O P Q R 1 1 1 1 1 S T U V W X Y Z `   ",
"     ...+.@.#.1 1 1 1 $.%.&.*.=.-.;.Z N     ",
"    >.,.'.).!.~.1 1 {.].^./.(._.:.<.[.}.    ",
"    |.1.2.3.4.5.6.7.8.9.0.a.b.:.c.d.e.f.    ",
"  g.h.i.j.k.l.m.n.o.p.q.r.s.t.u.v.w.x.y.    ",
"  z.A.A.B.C.D.E.F.G.H.I.J.K.L.M.N.O.P.      ",
"  Q.R.S.T.U.V.W.X.Y.Z.`. +.+++@+#+$+%+      ",
"&+*+g.=+-+1 ;+>+,+'+)+!+~+{+]+^+/+(+        ",
"_+&+^+:+<+[+}+|+1+2+R.3+4+5+6+7+8+9+        ",
"0+a+7+b+c+d+d+e+M f+g+h+i+j+k+0+l+m+        ",
"  n+o+p+o+q+r+s+t+u+v+w+x+y+z+A+B+          ",
"        ^+v+C+5+D+5+E+F+B+G+z+H+I+          ",
"              J+K+9+L+M+N+z+O+t+P+          ",
"                    Q+R+S+T+U+U+            ",
"                          V+U+W+            "};
