/* XPM */
static char * undo_xpm[] = {
"22 22 67 1",
" 	c None",
".	c #16AE00",
"+	c #12AC00",
"@	c #01A100",
"#	c #6CD16B",
"$	c #0EA70D",
"%	c #009900",
"&	c #67D967",
"*	c #ACFFAC",
"=	c #88EC88",
"-	c #09A009",
";	c #009200",
">	c #46D746",
",	c #76FF76",
"'	c #5DEB5D",
")	c #069906",
"!	c #008A00",
"~	c #23D423",
"{	c #40FF40",
"]	c #31EA31",
"^	c #039203",
"/	c #008300",
"(	c #04D104",
"_	c #0CFF0C",
":	c #07E807",
"<	c #008B00",
"[	c #007B00",
"}	c #009B00",
"|	c #00A200",
"1	c #00F600",
"2	c #00C800",
"3	c #007C00",
"4	c #007400",
"5	c #00D500",
"6	c #00EC00",
"7	c #00C600",
"8	c #006D00",
"9	c #00AE00",
"0	c #00E100",
"a	c #009800",
"b	c #006C00",
"c	c #006E00",
"d	c #00D000",
"e	c #00D700",
"f	c #009000",
"g	c #006500",
"h	c #006400",
"i	c #005F00",
"j	c #008800",
"k	c #00CD00",
"l	c #00B100",
"m	c #008700",
"n	c #005E00",
"o	c #008000",
"p	c #008100",
"q	c #005B00",
"r	c #008900",
"s	c #00C200",
"t	c #00BC00",
"u	c #009600",
"v	c #00B200",
"w	c #00B800",
"x	c #00A700",
"y	c #008500",
"z	c #006100",
"A	c #006600",
"B	c #007100",
"                      ",
"                      ",
"                      ",
"                      ",
"      .+              ",
"     @#$              ",
"    %&*=-             ",
"   ;>,,,')            ",
"  !~{{{{{]^           ",
" /(_______:<          ",
"[/}}|1112}}<3         ",
"    456674           4",
"    89000ab         8c",
"     4deeefgh     ggg ",
"     ijkkkklmgnnbopn  ",
"      qrsssssssstrq   ",
"       q8uvwwwxyzq    ",
"         qqABqqq      ",
"                      ",
"                      ",
"                      ",
"                      "};
